<?xml version="1.0" encoding="utf-8"?>
<!-- Generator: Adobe Illustrator 17.0.0, SVG Export Plug-In . SVG Version: 6.00 Build 0)  -->
<!DOCTYPE svg PUBLIC "-//W3C//DTD SVG 1.1//EN" "http://www.w3.org/Graphics/SVG/1.1/DTD/svg11.dtd">
<svg version="1.1" id="Layer_1" xmlns="http://www.w3.org/2000/svg" xmlns:xlink="http://www.w3.org/1999/xlink" x="0px" y="0px"
	 width="153px" height="183px" viewBox="0 0 153 183" enable-background="new 0 0 153 183" xml:space="preserve">
<g>
	<g>
		<g>
			<path fill="#58595B" d="M151.5,171.5c0,5.523-4.477,10-10,10h-130c-5.523,0-10-4.477-10-10v-160c0-5.523,4.477-10,10-10h130
				c5.523,0,10,4.477,10,10V171.5z"/>
		</g>
		<g>
			<rect x="17.025" y="34.5" fill="#808285" width="118.95" height="88.75"/>
			<path fill="#414042" d="M137.475,124.75H15.525V33h121.95V124.75z M18.525,121.75h115.95V36H18.525V121.75z"/>
		</g>
		<g>
			<g>
				<circle fill="#808285" cx="76.5" cy="136" r="3.5"/>
			</g>
			<g>
				<circle fill="#808285" cx="90.5" cy="136" r="3.5"/>
			</g>
			<g>
				<circle fill="#808285" cx="62.5" cy="136" r="3.5"/>
			</g>
		</g>
		<g>
			<rect x="17.025" y="149" fill="#414042" width="118.95" height="3"/>
		</g>
		<g>
			<rect x="17.025" y="159" fill="#414042" width="98.95" height="3"/>
		</g>
		<g>
			<path fill="#414042" d="M68.06,96.795c-0.241,0-0.481-0.058-0.702-0.174c-0.491-0.26-0.798-0.77-0.798-1.326v-32.84
				c0-0.556,0.307-1.066,0.798-1.326c0.491-0.259,1.086-0.226,1.545,0.085l24.155,16.42c0.411,0.279,0.657,0.744,0.657,1.241
				s-0.246,0.961-0.657,1.241l-24.155,16.42C68.65,96.708,68.355,96.795,68.06,96.795z M69.56,65.289v27.173l19.987-13.587
				L69.56,65.289z"/>
		</g>
		<g>
			<rect x="17.025" y="34.5" fill="#414042" width="119.023" height="11.333"/>
			<path fill="#414042" d="M137.548,47.333H15.525V33h122.023V47.333z M18.525,44.333h116.023V36H18.525V44.333z"/>
		</g>
		<g>
			<rect x="17.025" y="111.917" fill="#414042" width="119.023" height="11.333"/>
			<path fill="#414042" d="M137.548,124.75H15.525v-14.333h122.023V124.75z M18.525,121.75h116.023v-8.333H18.525V121.75z"/>
		</g>
		<g>
			<g>
				<path fill="#414042" d="M141.5,183h-130C5.159,183,0,177.841,0,171.5v-160C0,5.159,5.159,0,11.5,0h130
					c6.341,0,11.5,5.159,11.5,11.5v160C153,177.841,147.841,183,141.5,183z M11.5,3C6.813,3,3,6.813,3,11.5v160
					c0,4.687,3.813,8.5,8.5,8.5h130c4.687,0,8.5-3.813,8.5-8.5v-160c0-4.687-3.813-8.5-8.5-8.5H11.5z"/>
			</g>
			<g>
				<rect x="1.5" y="20" fill="#414042" width="150" height="3"/>
			</g>
			<g>
				<circle fill="#808285" cx="12" cy="11.5" r="2.5"/>
			</g>
			<g>
				<circle fill="#808285" cx="20" cy="11.5" r="2.5"/>
			</g>
			<g>
				<circle fill="#808285" cx="28" cy="11.5" r="2.5"/>
			</g>
		</g>
	</g>
</g>
</svg>
