<?xml version="1.0" encoding="utf-8"?>
<!-- Generator: Adobe Illustrator 17.0.0, SVG Export Plug-In . SVG Version: 6.00 Build 0)  -->
<!DOCTYPE svg PUBLIC "-//W3C//DTD SVG 1.1//EN" "http://www.w3.org/Graphics/SVG/1.1/DTD/svg11.dtd">
<svg version="1.1" id="Layer_1" xmlns="http://www.w3.org/2000/svg" xmlns:xlink="http://www.w3.org/1999/xlink" x="0px" y="0px"
	 width="153px" height="183px" viewBox="0 0 153 183" enable-background="new 0 0 153 183" xml:space="preserve">
<g>
	<g>
		<g>
			<path fill="#58595B" d="M151.5,171.5c0,5.523-4.477,10-10,10h-130c-5.523,0-10-4.477-10-10v-160c0-5.523,4.477-10,10-10h130
				c5.523,0,10,4.477,10,10V171.5z"/>
		</g>
		<g>
			<rect x="15.025" y="34.5" fill="#808285" width="122.95" height="88.75"/>
			<path fill="#414042" d="M139.475,124.75H13.525V33h125.95V124.75z M16.525,121.75h119.95V36H16.525V121.75z"/>
		</g>
		<g>
			<g>
				<circle fill="#808285" cx="76.5" cy="136" r="3.5"/>
			</g>
			<g>
				<circle fill="#808285" cx="90.5" cy="136" r="3.5"/>
			</g>
			<g>
				<circle fill="#808285" cx="62.5" cy="136" r="3.5"/>
			</g>
		</g>
		<g>
			<g>
				<rect x="13.5" y="148.833" fill="#414042" width="59.75" height="22.667"/>
			</g>
			<g>
				<rect x="79.75" y="148.833" fill="#414042" width="59.75" height="22.667"/>
			</g>
		</g>
		<g>
			<rect x="46.563" y="55.375" fill="#414042" width="60" height="3"/>
		</g>
		<g>
			<rect x="36.563" y="75.375" fill="#414042" width="80" height="3"/>
		</g>
		<g>
			<rect x="55.181" y="92.702" fill="#58595B" width="42.638" height="11"/>
		</g>
		<g>
			<rect x="36.563" y="65.375" fill="#414042" width="80" height="3"/>
		</g>
		<g>
			<g>
				<path fill="#414042" d="M141.5,183h-130C5.159,183,0,177.841,0,171.5v-160C0,5.159,5.159,0,11.5,0h130
					c6.341,0,11.5,5.159,11.5,11.5v160C153,177.841,147.841,183,141.5,183z M11.5,3C6.813,3,3,6.813,3,11.5v160
					c0,4.687,3.813,8.5,8.5,8.5h130c4.687,0,8.5-3.813,8.5-8.5v-160c0-4.687-3.813-8.5-8.5-8.5H11.5z"/>
			</g>
			<g>
				<rect x="1.5" y="20" fill="#414042" width="150" height="3"/>
			</g>
			<g>
				<circle fill="#808285" cx="12" cy="11.5" r="2.5"/>
			</g>
			<g>
				<circle fill="#808285" cx="20" cy="11.5" r="2.5"/>
			</g>
			<g>
				<circle fill="#808285" cx="28" cy="11.5" r="2.5"/>
			</g>
		</g>
	</g>
</g>
</svg>
