<?xml version="1.0" encoding="utf-8"?>
<!-- Generator: Adobe Illustrator 17.0.0, SVG Export Plug-In . SVG Version: 6.00 Build 0)  -->
<!DOCTYPE svg PUBLIC "-//W3C//DTD SVG 1.1//EN" "http://www.w3.org/Graphics/SVG/1.1/DTD/svg11.dtd">
<svg version="1.1" id="Layer_1" xmlns="http://www.w3.org/2000/svg" xmlns:xlink="http://www.w3.org/1999/xlink" x="0px" y="0px"
	 width="153px" height="183px" viewBox="0 0 153 183" enable-background="new 0 0 153 183" xml:space="preserve">
<g>
	<g>
		<g>
			<path fill="#58595B" d="M151.5,171.5c0,5.523-4.477,10-10,10h-130c-5.523,0-10-4.477-10-10v-160c0-5.523,4.477-10,10-10h130
				c5.523,0,10,4.477,10,10V171.5z"/>
		</g>
		<g>
			<g>
				<g>
					<polygon fill="#808285" points="51.148,47.4 23.025,47.4 23.025,107.4 68.677,107.4 68.677,64.93 					"/>
					<path fill="#414042" d="M70.178,108.9H21.525v-63h30.243l18.409,18.408V108.9z M24.525,105.9h42.652v-40.35L50.526,48.9H24.525
						V105.9z"/>
				</g>
				<g>
					<polygon fill="#414042" points="68.678,66.43 49.647,66.43 49.647,47.4 52.647,47.4 52.647,63.43 68.678,63.43 					"/>
				</g>
			</g>
			<g>
				<rect x="30.758" y="87.163" fill="#414042" width="30.187" height="3"/>
			</g>
			<g>
				<rect x="30.758" y="93.278" fill="#414042" width="19.602" height="3"/>
			</g>
			<g>
				<rect x="30.758" y="81.196" fill="#414042" width="30.187" height="3"/>
			</g>
			<g>
				<rect x="30.758" y="75.229" fill="#414042" width="30.187" height="3"/>
			</g>
		</g>
		<g>
			<g>
				<g>
					<polygon fill="#808285" points="112.445,47.4 84.322,47.4 84.322,107.4 129.975,107.4 129.975,64.93 					"/>
					<path fill="#414042" d="M131.475,108.9H82.822v-63h30.244l18.408,18.408V108.9z M85.822,105.9h42.652v-40.35l-16.65-16.65
						H85.822V105.9z"/>
				</g>
				<g>
					<polygon fill="#414042" points="129.975,66.43 110.945,66.43 110.945,47.4 113.945,47.4 113.945,63.43 129.975,63.43 					"/>
				</g>
			</g>
			<g>
				<rect x="92.056" y="87.163" fill="#414042" width="30.187" height="3"/>
			</g>
			<g>
				<rect x="92.056" y="93.278" fill="#414042" width="19.602" height="3"/>
			</g>
			<g>
				<rect x="92.056" y="81.196" fill="#414042" width="30.187" height="3"/>
			</g>
			<g>
				<rect x="92.056" y="75.229" fill="#414042" width="30.187" height="3"/>
			</g>
		</g>
		<g>
			<rect x="23.5" y="122" fill="#808285" width="40" height="3"/>
		</g>
		<g>
			<rect x="23.5" y="132" fill="#808285" width="40" height="3"/>
		</g>
		<g>
			<rect x="33.5" y="142" fill="#808285" width="20" height="3"/>
		</g>
		<g>
			<rect x="89.344" y="122" fill="#808285" width="40" height="3"/>
		</g>
		<g>
			<rect x="89.344" y="132" fill="#808285" width="40" height="3"/>
		</g>
		<g>
			<rect x="99.344" y="142" fill="#808285" width="20" height="3"/>
		</g>
		<g>
			<g>
				<path fill="#414042" d="M141.5,183h-130C5.159,183,0,177.841,0,171.5v-160C0,5.159,5.159,0,11.5,0h130
					c6.341,0,11.5,5.159,11.5,11.5v160C153,177.841,147.841,183,141.5,183z M11.5,3C6.813,3,3,6.813,3,11.5v160
					c0,4.687,3.813,8.5,8.5,8.5h130c4.687,0,8.5-3.813,8.5-8.5v-160c0-4.687-3.813-8.5-8.5-8.5H11.5z"/>
			</g>
			<g>
				<rect x="1.5" y="20" fill="#414042" width="150" height="3"/>
			</g>
			<g>
				<circle fill="#808285" cx="12" cy="11.5" r="2.5"/>
			</g>
			<g>
				<circle fill="#808285" cx="20" cy="11.5" r="2.5"/>
			</g>
			<g>
				<circle fill="#808285" cx="28" cy="11.5" r="2.5"/>
			</g>
		</g>
	</g>
</g>
</svg>
