<?xml version="1.0" encoding="utf-8"?>
<!-- Generator: Adobe Illustrator 17.0.0, SVG Export Plug-In . SVG Version: 6.00 Build 0)  -->
<!DOCTYPE svg PUBLIC "-//W3C//DTD SVG 1.1//EN" "http://www.w3.org/Graphics/SVG/1.1/DTD/svg11.dtd">
<svg version="1.1" id="Layer_1" xmlns="http://www.w3.org/2000/svg" xmlns:xlink="http://www.w3.org/1999/xlink" x="0px" y="0px"
	 width="153px" height="93px" viewBox="0 0 153 93" enable-background="new 0 0 153 93" xml:space="preserve">
<g>
	<g>
		<g>
			<path fill="#58595B" d="M151.5,81.5c0,5.523-4.477,10-10,10h-130c-5.523,0-10-4.477-10-10v-70c0-5.523,4.477-10,10-10h130
				c5.523,0,10,4.477,10,10V81.5z"/>
			<path fill="#414042" d="M141.5,93h-130C5.159,93,0,87.841,0,81.5v-70C0,5.159,5.159,0,11.5,0h130c6.341,0,11.5,5.159,11.5,11.5
				v70C153,87.841,147.841,93,141.5,93z M11.5,3C6.813,3,3,6.813,3,11.5v70c0,4.687,3.813,8.5,8.5,8.5h130
				c4.687,0,8.5-3.813,8.5-8.5v-70c0-4.687-3.813-8.5-8.5-8.5H11.5z"/>
		</g>
	</g>
	<g>
		<g>
			<g>
				<circle fill="#414042" cx="98.071" cy="46.5" r="30"/>
			</g>
			<g>
				<polygon fill="#808285" points="98.045,58.668 82.006,42.628 84.834,39.8 98.045,53.011 111.31,39.747 114.138,42.575 				"/>
			</g>
		</g>
		<g>
			<g>
				<g>
					<polygon fill="#808285" points="57.797,16.5 29.674,16.5 29.674,76.5 75.327,76.5 75.327,34.03 					"/>
					<path fill="#414042" d="M76.826,78H28.174V15h30.244l18.408,18.409V78z M31.174,75h42.652V34.651L57.176,18H31.174V75z"/>
				</g>
				<g>
					<polygon fill="#414042" points="75.326,35.53 56.297,35.53 56.297,16.5 59.297,16.5 59.297,32.53 75.326,32.53 					"/>
				</g>
			</g>
			<g>
				<rect x="37.407" y="56.263" fill="#414042" width="30.187" height="3"/>
			</g>
			<g>
				<rect x="37.407" y="62.378" fill="#414042" width="19.602" height="3"/>
			</g>
			<g>
				<rect x="37.407" y="50.296" fill="#414042" width="30.187" height="3"/>
			</g>
			<g>
				<rect x="37.407" y="44.329" fill="#414042" width="30.187" height="3"/>
			</g>
		</g>
	</g>
</g>
</svg>
