<?xml version="1.0" encoding="utf-8"?>
<!-- Generator: Adobe Illustrator 17.0.0, SVG Export Plug-In . SVG Version: 6.00 Build 0)  -->
<!DOCTYPE svg PUBLIC "-//W3C//DTD SVG 1.1//EN" "http://www.w3.org/Graphics/SVG/1.1/DTD/svg11.dtd">
<svg version="1.1" id="Layer_1" xmlns="http://www.w3.org/2000/svg" xmlns:xlink="http://www.w3.org/1999/xlink" x="0px" y="0px"
	 width="153px" height="183px" viewBox="0 0 153 183" enable-background="new 0 0 153 183" xml:space="preserve">
<g>
	<g>
		<g>
			<path fill="#58595B" d="M151.5,171.5c0,5.523-4.477,10-10,10h-130c-5.523,0-10-4.477-10-10v-160c0-5.523,4.477-10,10-10h130
				c5.523,0,10,4.477,10,10V171.5z"/>
		</g>
		<g>
			<g>
				<rect x="36.554" y="43.25" fill="#808285" width="79.892" height="103"/>
				<path fill="#414042" d="M117.945,147.751H35.054v-106h82.892V147.751z M38.054,144.751h76.892v-100H38.054V144.751z"/>
			</g>
			<g>
				<rect x="45.471" y="110.002" fill="#414042" width="62.059" height="3"/>
			</g>
			<g>
				<rect x="45.471" y="128.448" fill="#414042" width="52.059" height="3"/>
			</g>
			<g>
				<rect x="45.471" y="119.226" fill="#414042" width="62.059" height="3"/>
			</g>
			<g>
				<g>
					<g>
						<rect x="45.47" y="51.587" fill="#58595B" width="62.059" height="47.015"/>
						<path fill="#414042" d="M109.029,100.103H43.971V50.087h65.059V100.103z M46.971,97.103h59.059V53.087H46.971V97.103z"/>
					</g>
				</g>
				<g>
					<polygon fill="#808285" points="71.83,64.513 71.83,86.113 87.717,75.313 					"/>
					<path fill="#414042" d="M70.33,88.945V61.68l20.055,13.633L70.33,88.945z M73.33,67.346v15.934l11.719-7.967L73.33,67.346z"/>
				</g>
			</g>
		</g>
		<g>
			<g>
				<circle fill="#808285" cx="76.5" cy="163" r="3.5"/>
			</g>
			<g>
				<circle fill="#808285" cx="90.5" cy="163" r="3.5"/>
			</g>
			<g>
				<circle fill="#808285" cx="62.5" cy="163" r="3.5"/>
			</g>
		</g>
		<g>
			<g>
				<polyline fill="#808285" points="1.5,131.597 25.5,131.597 25.5,54.905 1.5,54.905 				"/>
				<polygon fill="#414042" points="27,133.097 1.5,133.097 1.5,130.097 24,130.097 24,56.404 1.5,56.404 1.5,53.404 27,53.404 				
					"/>
			</g>
			<g>
				<g>
					<g>
						<polyline fill="#58595B" points="1.5,95.921 18.893,95.921 18.893,61.082 1.5,61.082 						"/>
						<polygon fill="#414042" points="20.393,97.421 1.5,97.421 1.5,94.421 17.393,94.421 17.393,62.582 1.5,62.582 1.5,59.582 
							20.393,59.582 						"/>
					</g>
				</g>
			</g>
			<g>
				<rect x="1.5" y="103.98" fill="#414042" width="17.394" height="3"/>
			</g>
			<g>
				<rect x="1.5" y="111.603" fill="#414042" width="17.394" height="3"/>
			</g>
			<g>
				<rect x="1.5" y="119.226" fill="#414042" width="17.394" height="3"/>
			</g>
		</g>
		<g>
			<g>
				<polyline fill="#808285" points="151.5,131.597 127.5,131.597 127.5,54.905 151.5,54.905 				"/>
				<polygon fill="#414042" points="151.5,133.097 126,133.097 126,53.404 151.5,53.404 151.5,56.404 129,56.404 129,130.097 
					151.5,130.097 				"/>
			</g>
			<g>
				<g>
					<g>
						<polyline fill="#58595B" points="151.5,95.921 134.107,95.921 134.107,61.082 151.5,61.082 						"/>
						<polygon fill="#414042" points="151.5,97.421 132.606,97.421 132.606,59.582 151.5,59.582 151.5,62.582 135.606,62.582 
							135.606,94.421 151.5,94.421 						"/>
					</g>
				</g>
			</g>
			<g>
				<rect x="134.106" y="103.98" fill="#414042" width="17.394" height="3"/>
			</g>
			<g>
				<rect x="134.106" y="111.603" fill="#414042" width="17.394" height="3"/>
			</g>
			<g>
				<rect x="134.106" y="119.226" fill="#414042" width="17.394" height="3"/>
			</g>
		</g>
		<g>
			<g>
				<path fill="#414042" d="M141.5,183h-130C5.159,183,0,177.841,0,171.5v-160C0,5.159,5.159,0,11.5,0h130
					c6.341,0,11.5,5.159,11.5,11.5v160C153,177.841,147.841,183,141.5,183z M11.5,3C6.813,3,3,6.813,3,11.5v160
					c0,4.687,3.813,8.5,8.5,8.5h130c4.687,0,8.5-3.813,8.5-8.5v-160c0-4.687-3.813-8.5-8.5-8.5H11.5z"/>
			</g>
			<g>
				<rect x="1.5" y="20" fill="#414042" width="150" height="3"/>
			</g>
			<g>
				<circle fill="#808285" cx="12" cy="11.5" r="2.5"/>
			</g>
			<g>
				<circle fill="#808285" cx="20" cy="11.5" r="2.5"/>
			</g>
			<g>
				<circle fill="#808285" cx="28" cy="11.5" r="2.5"/>
			</g>
		</g>
	</g>
</g>
</svg>
