<?xml version="1.0" encoding="utf-8"?>
<!-- Generator: Adobe Illustrator 17.0.0, SVG Export Plug-In . SVG Version: 6.00 Build 0)  -->
<!DOCTYPE svg PUBLIC "-//W3C//DTD SVG 1.1//EN" "http://www.w3.org/Graphics/SVG/1.1/DTD/svg11.dtd">
<svg version="1.1" id="Layer_1" xmlns="http://www.w3.org/2000/svg" xmlns:xlink="http://www.w3.org/1999/xlink" x="0px" y="0px"
	 width="153px" height="183px" viewBox="0 0 153 183" enable-background="new 0 0 153 183" xml:space="preserve">
<g>
	<g>
		<g>
			<path fill="#58595B" d="M151.5,171.5c0,5.523-4.477,10-10,10h-130c-5.523,0-10-4.477-10-10v-160c0-5.523,4.477-10,10-10h130
				c5.523,0,10,4.477,10,10V171.5z"/>
		</g>
		<g>
			<rect x="32.031" y="48.6" fill="#808285" width="88.937" height="100.55"/>
			<path fill="#414042" d="M122.469,150.65H30.531V47.101h91.938V150.65z M33.531,147.65h85.938v-97.55H33.531V147.65z"/>
		</g>
		<g>
			<g>
				<g>
					<path fill="#414042" d="M68.322,96.951c-3.449,0-6.255-2.806-6.255-6.254c0-3.449,2.806-6.255,6.255-6.255
						c3.448,0,6.254,2.806,6.254,6.255C74.576,94.146,71.771,96.951,68.322,96.951z M68.322,87.442c-1.795,0-3.255,1.46-3.255,3.255
						c0,1.794,1.46,3.254,3.255,3.254c1.794,0,3.254-1.46,3.254-3.254C71.576,88.902,70.116,87.442,68.322,87.442z"/>
				</g>
				<g>
					<rect x="66.822" y="64.956" fill="#414042" width="3" height="20.986"/>
				</g>
				<g>
					<rect x="66.822" y="95.451" fill="#414042" width="3" height="37.343"/>
				</g>
			</g>
			<g>
				<g>
					<path fill="#414042" d="M51.966,121.486c-3.449,0-6.255-2.806-6.255-6.255s2.806-6.255,6.255-6.255
						c3.448,0,6.254,2.806,6.254,6.255S55.414,121.486,51.966,121.486z M51.966,111.977c-1.795,0-3.255,1.46-3.255,3.255
						s1.46,3.255,3.255,3.255c1.794,0,3.254-1.46,3.254-3.255S53.76,111.977,51.966,111.977z"/>
				</g>
				<g>
					<rect x="50.466" y="64.956" fill="#414042" width="3" height="45.521"/>
				</g>
				<g>
					<rect x="50.466" y="119.986" fill="#414042" width="3" height="12.808"/>
				</g>
			</g>
			<g>
				<g>
					<path fill="#414042" d="M84.678,113.308c-3.448,0-6.254-2.806-6.254-6.255c0-3.448,2.806-6.254,6.254-6.254
						c3.449,0,6.255,2.806,6.255,6.254C90.933,110.502,88.127,113.308,84.678,113.308z M84.678,103.799
						c-1.794,0-3.254,1.46-3.254,3.254c0,1.795,1.46,3.255,3.254,3.255c1.795,0,3.255-1.46,3.255-3.255
						C87.933,105.259,86.473,103.799,84.678,103.799z"/>
				</g>
				<g>
					<rect x="83.178" y="64.956" fill="#414042" width="3" height="37.343"/>
				</g>
				<g>
					<rect x="83.178" y="111.808" fill="#414042" width="3" height="20.986"/>
				</g>
			</g>
			<g>
				<g>
					<path fill="#414042" d="M101.034,88.773c-3.449,0-6.255-2.806-6.255-6.255c0-3.448,2.806-6.254,6.255-6.254
						s6.255,2.806,6.255,6.254C107.289,85.968,104.483,88.773,101.034,88.773z M101.034,79.265c-1.795,0-3.255,1.46-3.255,3.254
						c0,1.795,1.46,3.255,3.255,3.255s3.255-1.46,3.255-3.255C104.289,80.725,102.829,79.265,101.034,79.265z"/>
				</g>
				<g>
					<rect x="99.534" y="64.956" fill="#414042" width="3" height="12.809"/>
				</g>
				<g>
					<rect x="99.534" y="87.273" fill="#414042" width="3" height="45.521"/>
				</g>
			</g>
		</g>
		<g>
			<g>
				<path fill="#414042" d="M141.5,183h-130C5.159,183,0,177.841,0,171.5v-160C0,5.159,5.159,0,11.5,0h130
					c6.341,0,11.5,5.159,11.5,11.5v160C153,177.841,147.841,183,141.5,183z M11.5,3C6.813,3,3,6.813,3,11.5v160
					c0,4.687,3.813,8.5,8.5,8.5h130c4.687,0,8.5-3.813,8.5-8.5v-160c0-4.687-3.813-8.5-8.5-8.5H11.5z"/>
			</g>
			<g>
				<rect x="1.5" y="20" fill="#414042" width="150" height="3"/>
			</g>
			<g>
				<circle fill="#808285" cx="12" cy="11.5" r="2.5"/>
			</g>
			<g>
				<circle fill="#808285" cx="20" cy="11.5" r="2.5"/>
			</g>
			<g>
				<circle fill="#808285" cx="28" cy="11.5" r="2.5"/>
			</g>
		</g>
	</g>
</g>
</svg>
