<?xml version="1.0" encoding="utf-8"?>
<!-- Generator: Adobe Illustrator 17.0.0, SVG Export Plug-In . SVG Version: 6.00 Build 0)  -->
<!DOCTYPE svg PUBLIC "-//W3C//DTD SVG 1.1//EN" "http://www.w3.org/Graphics/SVG/1.1/DTD/svg11.dtd">
<svg version="1.1" id="Layer_1" xmlns="http://www.w3.org/2000/svg" xmlns:xlink="http://www.w3.org/1999/xlink" x="0px" y="0px"
	 width="153px" height="183px" viewBox="0 0 153 183" enable-background="new 0 0 153 183" xml:space="preserve">
<g>
	<g>
		<g>
			<path fill="#58595B" d="M151.5,171.5c0,5.523-4.477,10-10,10h-130c-5.523,0-10-4.477-10-10v-160c0-5.523,4.477-10,10-10h130
				c5.523,0,10,4.477,10,10V171.5z"/>
		</g>
		<g>
			<g>
				<g>
					<g>
						<path fill="#808285" d="M31.638,41c-9.258,0-16.764,7.505-16.764,16.764c0,4.93,2.129,9.363,5.517,12.43
							c2.974,2.693,6.919,4.334,11.247,4.334s8.273-1.641,11.247-4.334c3.388-3.067,5.517-7.5,5.517-12.43
							C48.402,48.505,40.897,41,31.638,41z"/>
					</g>
					<g>
						<g>
							<circle fill="#58595B" cx="31.638" cy="54.411" r="7.184"/>
							<path fill="#414042" d="M31.638,63.095c-4.789,0-8.685-3.896-8.685-8.684c0-4.789,3.896-8.685,8.685-8.685
								s8.685,3.896,8.685,8.685C40.323,59.199,36.427,63.095,31.638,63.095z M31.638,48.727c-3.134,0-5.685,2.55-5.685,5.685
								c0,3.134,2.55,5.684,5.685,5.684s5.685-2.55,5.685-5.684C37.323,51.276,34.772,48.727,31.638,48.727z"/>
						</g>
						<g>
							<path fill="#58595B" d="M31.638,61.595c-5.379,0-9.904,3.645-11.247,8.598c2.974,2.693,6.919,4.334,11.247,4.334
								s8.273-1.641,11.247-4.334C41.542,65.24,37.017,61.595,31.638,61.595z"/>
							<path fill="#414042" d="M31.638,76.027c-4.54,0-8.892-1.677-12.254-4.722l-0.682-0.617l0.241-0.888
								c1.55-5.715,6.77-9.706,12.695-9.706s11.145,3.991,12.695,9.706l0.241,0.888l-0.682,0.617
								C40.53,74.351,36.178,76.027,31.638,76.027z M22.124,69.699c2.697,2.152,6.04,3.328,9.515,3.328s6.818-1.176,9.515-3.328
								c-1.466-3.932-5.254-6.604-9.515-6.604S23.589,65.768,22.124,69.699z"/>
						</g>
					</g>
					<g>
						<path fill="#414042" d="M31.638,76.027c-4.54,0-8.892-1.677-12.254-4.722c-3.819-3.459-6.01-8.395-6.01-13.542
							c0-10.07,8.193-18.264,18.264-18.264s18.264,8.193,18.264,18.264c0,5.148-2.19,10.084-6.01,13.542
							C40.53,74.351,36.178,76.027,31.638,76.027z M31.638,42.5c-8.417,0-15.264,6.848-15.264,15.264
							c0,4.302,1.831,8.427,5.023,11.317c2.81,2.545,6.446,3.946,10.24,3.946s7.431-1.401,10.24-3.946
							c3.192-2.89,5.023-7.015,5.023-11.317C46.902,49.348,40.055,42.5,31.638,42.5z"/>
					</g>
				</g>
				<g>
					<g>
						<g>
							<rect x="62" y="46.053" fill="#808285" width="75.5" height="3"/>
						</g>
						<g>
							<rect x="62" y="56.053" fill="#808285" width="75.5" height="3"/>
						</g>
						<g>
							<path fill="none" stroke="#808285" stroke-width="3" stroke-miterlimit="10" d="M62,67.552"/>
						</g>
						<g>
							<rect x="62" y="66.053" fill="#808285" width="65.5" height="3"/>
						</g>
					</g>
				</g>
			</g>
			<g>
				<g>
					<g>
						<path fill="#808285" d="M31.638,126.122c-9.258,0-16.764,7.505-16.764,16.764c0,4.93,2.129,9.363,5.517,12.43
							c2.974,2.693,6.919,4.334,11.247,4.334s8.273-1.641,11.247-4.334c3.388-3.067,5.517-7.5,5.517-12.43
							C48.402,133.627,40.897,126.122,31.638,126.122z"/>
					</g>
					<g>
						<g>
							<circle fill="#58595B" cx="31.638" cy="139.533" r="7.184"/>
							<path fill="#414042" d="M31.638,148.218c-4.789,0-8.685-3.896-8.685-8.685s3.896-8.685,8.685-8.685s8.685,3.896,8.685,8.685
								S36.427,148.218,31.638,148.218z M31.638,133.849c-3.134,0-5.685,2.55-5.685,5.685s2.55,5.685,5.685,5.685
								s5.685-2.55,5.685-5.685S34.772,133.849,31.638,133.849z"/>
						</g>
						<g>
							<path fill="#58595B" d="M31.638,146.717c-5.379,0-9.904,3.645-11.247,8.598c2.974,2.693,6.919,4.334,11.247,4.334
								s8.273-1.641,11.247-4.334C41.542,150.362,37.017,146.717,31.638,146.717z"/>
							<path fill="#414042" d="M31.638,161.149c-4.54,0-8.892-1.677-12.254-4.722l-0.682-0.617l0.241-0.888
								c1.55-5.714,6.77-9.705,12.695-9.705s11.145,3.991,12.695,9.705l0.241,0.888l-0.682,0.617
								C40.53,159.473,36.178,161.149,31.638,161.149z M22.124,154.821c2.696,2.152,6.039,3.328,9.514,3.328
								s6.818-1.176,9.514-3.328c-1.465-3.931-5.254-6.604-9.514-6.604S23.589,150.891,22.124,154.821z"/>
						</g>
					</g>
					<g>
						<path fill="#414042" d="M31.638,161.149c-4.54,0-8.892-1.677-12.254-4.722c-3.819-3.459-6.01-8.395-6.01-13.542
							c0-10.07,8.193-18.264,18.264-18.264s18.264,8.193,18.264,18.264c0,5.148-2.19,10.084-6.01,13.542
							C40.53,159.473,36.178,161.149,31.638,161.149z M31.638,127.622c-8.417,0-15.264,6.848-15.264,15.264
							c0,4.302,1.831,8.427,5.023,11.317c2.81,2.545,6.446,3.946,10.24,3.946s7.431-1.401,10.24-3.946
							c3.192-2.89,5.023-7.015,5.023-11.317C46.902,134.47,40.055,127.622,31.638,127.622z"/>
					</g>
				</g>
				<g>
					<g>
						<g>
							<rect x="62" y="131.175" fill="#808285" width="75.5" height="3"/>
						</g>
						<g>
							<rect x="62" y="141.175" fill="#808285" width="75.5" height="3"/>
						</g>
						<g>
							<path fill="none" stroke="#808285" stroke-width="3" stroke-miterlimit="10" d="M62,152.675"/>
						</g>
						<g>
							<rect x="62" y="151.175" fill="#808285" width="65.5" height="3"/>
						</g>
					</g>
				</g>
			</g>
			<g>
				<g>
					<g>
						<path fill="#808285" d="M31.638,83.561c-9.258,0-16.764,7.505-16.764,16.764c0,4.93,2.129,9.363,5.517,12.43
							c2.974,2.693,6.919,4.334,11.247,4.334s8.273-1.641,11.247-4.334c3.388-3.067,5.517-7.5,5.517-12.43
							C48.402,91.066,40.897,83.561,31.638,83.561z"/>
					</g>
					<g>
						<g>
							<circle fill="#58595B" cx="31.638" cy="96.972" r="7.184"/>
							<path fill="#414042" d="M31.638,105.656c-4.789,0-8.685-3.896-8.685-8.685s3.896-8.685,8.685-8.685s8.685,3.896,8.685,8.685
								S36.427,105.656,31.638,105.656z M31.638,91.287c-3.134,0-5.685,2.55-5.685,5.685s2.55,5.685,5.685,5.685
								s5.685-2.55,5.685-5.685S34.772,91.287,31.638,91.287z"/>
						</g>
						<g>
							<path fill="#58595B" d="M31.638,104.156c-5.379,0-9.904,3.645-11.247,8.598c2.974,2.693,6.919,4.334,11.247,4.334
								s8.273-1.641,11.247-4.334C41.542,107.801,37.017,104.156,31.638,104.156z"/>
							<path fill="#414042" d="M31.638,118.588c-4.539,0-8.891-1.677-12.254-4.721l-0.682-0.617l0.241-0.888
								c1.549-5.715,6.77-9.706,12.695-9.706s11.146,3.991,12.695,9.706l0.241,0.888l-0.682,0.617
								C40.529,116.911,36.177,118.588,31.638,118.588z M22.124,112.26c2.697,2.152,6.04,3.328,9.514,3.328s6.817-1.176,9.514-3.328
								c-1.465-3.931-5.253-6.604-9.514-6.604S23.589,108.329,22.124,112.26z"/>
						</g>
					</g>
					<g>
						<path fill="#414042" d="M31.638,118.588c-4.539,0-8.891-1.677-12.254-4.721c-3.819-3.459-6.01-8.395-6.01-13.543
							c0-10.07,8.193-18.264,18.264-18.264s18.264,8.193,18.264,18.264c0,5.148-2.19,10.085-6.01,13.543
							C40.529,116.911,36.177,118.588,31.638,118.588z M31.638,85.061c-8.417,0-15.264,6.848-15.264,15.264
							c0,4.303,1.831,8.428,5.023,11.318c2.81,2.544,6.447,3.945,10.24,3.945s7.43-1.401,10.24-3.945
							c3.192-2.89,5.023-7.016,5.023-11.318C46.902,91.908,40.055,85.061,31.638,85.061z"/>
					</g>
				</g>
				<g>
					<g>
						<g>
							<rect x="62" y="88.613" fill="#808285" width="75.5" height="3"/>
						</g>
						<g>
							<rect x="62" y="98.613" fill="#808285" width="75.5" height="3"/>
						</g>
						<g>
							<path fill="none" stroke="#808285" stroke-width="3" stroke-miterlimit="10" d="M62,110.114"/>
						</g>
						<g>
							<rect x="62" y="108.613" fill="#808285" width="65.5" height="3"/>
						</g>
					</g>
				</g>
			</g>
		</g>
		<g>
			<g>
				<path fill="#414042" d="M141.5,183h-130C5.159,183,0,177.841,0,171.5v-160C0,5.159,5.159,0,11.5,0h130
					c6.341,0,11.5,5.159,11.5,11.5v160C153,177.841,147.841,183,141.5,183z M11.5,3C6.813,3,3,6.813,3,11.5v160
					c0,4.687,3.813,8.5,8.5,8.5h130c4.687,0,8.5-3.813,8.5-8.5v-160c0-4.687-3.813-8.5-8.5-8.5H11.5z"/>
			</g>
			<g>
				<rect x="1.5" y="20" fill="#414042" width="150" height="3"/>
			</g>
			<g>
				<circle fill="#808285" cx="12" cy="11.5" r="2.5"/>
			</g>
			<g>
				<circle fill="#808285" cx="20" cy="11.5" r="2.5"/>
			</g>
			<g>
				<circle fill="#808285" cx="28" cy="11.5" r="2.5"/>
			</g>
		</g>
	</g>
</g>
</svg>
