<?xml version="1.0" encoding="utf-8"?>
<!-- Generator: Adobe Illustrator 17.0.0, SVG Export Plug-In . SVG Version: 6.00 Build 0)  -->
<!DOCTYPE svg PUBLIC "-//W3C//DTD SVG 1.1//EN" "http://www.w3.org/Graphics/SVG/1.1/DTD/svg11.dtd">
<svg version="1.1" id="Layer_1" xmlns="http://www.w3.org/2000/svg" xmlns:xlink="http://www.w3.org/1999/xlink" x="0px" y="0px"
	 width="153px" height="183px" viewBox="0 0 153 183" enable-background="new 0 0 153 183" xml:space="preserve">
<g>
	<g>
		<g>
			<path fill="#58595B" d="M151.5,171.5c0,5.523-4.477,10-10,10h-130c-5.523,0-10-4.477-10-10v-160c0-5.523,4.477-10,10-10h130
				c5.523,0,10,4.477,10,10V171.5z"/>
		</g>
		<g>
			<g>
				<rect x="32.116" y="48.25" fill="#808285" width="88.768" height="100"/>
				<path fill="#414042" d="M122.384,149.751H30.616v-103h91.769V149.751z M33.616,146.751h85.769v-97H33.616V146.751z"/>
			</g>
			<g>
				<g>
					<g>
						<rect x="42.023" y="57.514" fill="#58595B" width="68.955" height="52.239"/>
						<path fill="#414042" d="M112.478,111.252H40.522V56.014h71.955V111.252z M43.522,108.252h65.955V59.014H43.522V108.252z"/>
					</g>
				</g>
				<g>
					<polygon fill="#414042" points="48.492,102.587 46.371,100.466 67.295,79.542 83.403,95.65 95.092,83.962 106.629,95.5 
						104.508,97.621 95.092,88.205 83.403,99.893 67.295,83.784 					"/>
				</g>
				<g>
					<path fill="#414042" d="M84.897,80.973c-4.033,0-7.314-3.281-7.314-7.314s3.281-7.313,7.314-7.313s7.313,3.281,7.313,7.313
						S88.93,80.973,84.897,80.973z M84.897,69.346c-2.379,0-4.314,1.935-4.314,4.313c0,2.379,1.935,4.314,4.314,4.314
						c2.378,0,4.313-1.935,4.313-4.314C89.211,71.281,87.276,69.346,84.897,69.346z"/>
				</g>
			</g>
			<g>
				<rect x="42.022" y="122.586" fill="#414042" width="68.955" height="3"/>
			</g>
			<g>
				<rect x="42.022" y="132.834" fill="#414042" width="44.776" height="3"/>
			</g>
		</g>
		<g>
			<g>
				<path fill="#414042" d="M141.5,183h-130C5.159,183,0,177.841,0,171.5v-160C0,5.159,5.159,0,11.5,0h130
					c6.341,0,11.5,5.159,11.5,11.5v160C153,177.841,147.841,183,141.5,183z M11.5,3C6.813,3,3,6.813,3,11.5v160
					c0,4.687,3.813,8.5,8.5,8.5h130c4.687,0,8.5-3.813,8.5-8.5v-160c0-4.687-3.813-8.5-8.5-8.5H11.5z"/>
			</g>
			<g>
				<rect x="1.5" y="20" fill="#414042" width="150" height="3"/>
			</g>
			<g>
				<circle fill="#808285" cx="12" cy="11.5" r="2.5"/>
			</g>
			<g>
				<circle fill="#808285" cx="20" cy="11.5" r="2.5"/>
			</g>
			<g>
				<circle fill="#808285" cx="28" cy="11.5" r="2.5"/>
			</g>
		</g>
	</g>
</g>
</svg>
