<?xml version="1.0" encoding="utf-8"?>
<!-- Generator: Adobe Illustrator 17.0.0, SVG Export Plug-In . SVG Version: 6.00 Build 0)  -->
<!DOCTYPE svg PUBLIC "-//W3C//DTD SVG 1.1//EN" "http://www.w3.org/Graphics/SVG/1.1/DTD/svg11.dtd">
<svg version="1.1" id="Layer_1" xmlns="http://www.w3.org/2000/svg" xmlns:xlink="http://www.w3.org/1999/xlink" x="0px" y="0px"
	 width="153px" height="183px" viewBox="0 0 153 183" enable-background="new 0 0 153 183" xml:space="preserve">
<g>
	<g>
		<g>
			<path fill="#58595B" d="M151.5,171.5c0,5.523-4.477,10-10,10h-130c-5.523,0-10-4.477-10-10v-160c0-5.523,4.477-10,10-10h130
				c5.523,0,10,4.477,10,10V171.5z"/>
		</g>
		<g>
			<g>
				<g>
					<polygon fill="#808285" points="53.148,37.4 25.025,37.4 25.025,97.4 70.677,97.4 70.677,54.93 					"/>
					<path fill="#414042" d="M72.178,98.9H23.525v-63h30.243l18.409,18.408V98.9z M26.525,95.9h42.652v-40.35L52.526,38.9H26.525
						V95.9z"/>
				</g>
				<g>
					<polygon fill="#414042" points="70.678,56.43 51.647,56.43 51.647,37.4 54.647,37.4 54.647,53.43 70.678,53.43 					"/>
				</g>
			</g>
			<g>
				<rect x="32.758" y="77.163" fill="#414042" width="30.187" height="3"/>
			</g>
			<g>
				<rect x="32.758" y="83.278" fill="#414042" width="19.602" height="3"/>
			</g>
			<g>
				<rect x="32.758" y="71.196" fill="#414042" width="30.187" height="3"/>
			</g>
			<g>
				<rect x="32.758" y="65.229" fill="#414042" width="30.187" height="3"/>
			</g>
		</g>
		<g>
			<g>
				<g>
					<polygon fill="#808285" points="53.148,107.4 25.025,107.4 25.025,167.4 70.677,167.4 70.677,124.93 					"/>
					<path fill="#414042" d="M72.178,168.9H23.525v-63h30.243l18.409,18.408V168.9z M26.525,165.9h42.652v-40.35L52.526,108.9
						H26.525V165.9z"/>
				</g>
				<g>
					<polygon fill="#414042" points="70.678,126.43 51.647,126.43 51.647,107.4 54.647,107.4 54.647,123.43 70.678,123.43 					"/>
				</g>
			</g>
			<g>
				<rect x="32.758" y="147.163" fill="#414042" width="30.187" height="3"/>
			</g>
			<g>
				<rect x="32.758" y="153.278" fill="#414042" width="19.602" height="3"/>
			</g>
			<g>
				<rect x="32.758" y="141.196" fill="#414042" width="30.187" height="3"/>
			</g>
			<g>
				<rect x="32.758" y="135.229" fill="#414042" width="30.187" height="3"/>
			</g>
		</g>
		<g>
			<g>
				<g>
					<polygon fill="#808285" points="110.445,37.4 82.322,37.4 82.322,97.4 127.975,97.4 127.975,54.93 					"/>
					<path fill="#414042" d="M129.475,98.9H80.822v-63h30.244l18.408,18.408V98.9z M83.822,95.9h42.652v-40.35l-16.65-16.65H83.822
						V95.9z"/>
				</g>
				<g>
					<polygon fill="#414042" points="127.975,56.43 108.945,56.43 108.945,37.4 111.945,37.4 111.945,53.43 127.975,53.43 					"/>
				</g>
			</g>
			<g>
				<rect x="90.056" y="77.163" fill="#414042" width="30.187" height="3"/>
			</g>
			<g>
				<rect x="90.056" y="83.278" fill="#414042" width="19.602" height="3"/>
			</g>
			<g>
				<rect x="90.056" y="71.196" fill="#414042" width="30.187" height="3"/>
			</g>
			<g>
				<rect x="90.056" y="65.229" fill="#414042" width="30.187" height="3"/>
			</g>
		</g>
		<g>
			<g>
				<g>
					<polygon fill="#808285" points="110.445,107.4 82.322,107.4 82.322,167.4 127.975,167.4 127.975,124.93 					"/>
					<path fill="#414042" d="M129.475,168.9H80.822v-63h30.244l18.408,18.408V168.9z M83.822,165.9h42.652v-40.35l-16.65-16.65
						H83.822V165.9z"/>
				</g>
				<g>
					<polygon fill="#414042" points="127.975,126.43 108.945,126.43 108.945,107.4 111.945,107.4 111.945,123.43 127.975,123.43 
											"/>
				</g>
			</g>
			<g>
				<rect x="90.056" y="147.163" fill="#414042" width="30.187" height="3"/>
			</g>
			<g>
				<rect x="90.056" y="153.278" fill="#414042" width="19.602" height="3"/>
			</g>
			<g>
				<rect x="90.056" y="141.196" fill="#414042" width="30.187" height="3"/>
			</g>
			<g>
				<rect x="90.056" y="135.229" fill="#414042" width="30.187" height="3"/>
			</g>
		</g>
		<g>
			<g>
				<path fill="#414042" d="M141.5,183h-130C5.159,183,0,177.841,0,171.5v-160C0,5.159,5.159,0,11.5,0h130
					c6.341,0,11.5,5.159,11.5,11.5v160C153,177.841,147.841,183,141.5,183z M11.5,3C6.813,3,3,6.813,3,11.5v160
					c0,4.687,3.813,8.5,8.5,8.5h130c4.687,0,8.5-3.813,8.5-8.5v-160c0-4.687-3.813-8.5-8.5-8.5H11.5z"/>
			</g>
			<g>
				<rect x="1.5" y="20" fill="#414042" width="150" height="3"/>
			</g>
			<g>
				<circle fill="#808285" cx="12" cy="11.5" r="2.5"/>
			</g>
			<g>
				<circle fill="#808285" cx="20" cy="11.5" r="2.5"/>
			</g>
			<g>
				<circle fill="#808285" cx="28" cy="11.5" r="2.5"/>
			</g>
		</g>
	</g>
</g>
</svg>
