<?xml version="1.0" encoding="utf-8"?>
<!-- Generator: Adobe Illustrator 17.0.0, SVG Export Plug-In . SVG Version: 6.00 Build 0)  -->
<!DOCTYPE svg PUBLIC "-//W3C//DTD SVG 1.1//EN" "http://www.w3.org/Graphics/SVG/1.1/DTD/svg11.dtd">
<svg version="1.1" id="Layer_1" xmlns="http://www.w3.org/2000/svg" xmlns:xlink="http://www.w3.org/1999/xlink" x="0px" y="0px"
	 width="153px" height="183px" viewBox="0 0 153 183" enable-background="new 0 0 153 183" xml:space="preserve">
<g>
	<g>
		<g>
			<path fill="#58595B" d="M151.5,171.5c0,5.523-4.477,10-10,10h-130c-5.523,0-10-4.477-10-10v-160c0-5.523,4.477-10,10-10h130
				c5.523,0,10,4.477,10,10V171.5z"/>
		</g>
		<g>
			<g>
				<rect x="17" y="33.345" fill="#414042" width="55" height="62.742"/>
			</g>
			<g>
				<rect x="55.69" y="51.292" fill="#58595B" width="10.311" height="41.021"/>
			</g>
			<g>
				<rect x="23.057" y="55.915" fill="#58595B" width="10.311" height="36.397"/>
			</g>
			<g>
				<rect x="39.373" y="42.044" fill="#58595B" width="10.311" height="50.269"/>
			</g>
			<g>
				<rect x="55.69" y="74.653" fill="#808285" width="10.311" height="17.66"/>
			</g>
			<g>
				<rect x="23.057" y="81.622" fill="#808285" width="10.311" height="10.691"/>
			</g>
			<g>
				<rect x="39.373" y="68.037" fill="#808285" width="10.311" height="24.275"/>
			</g>
		</g>
		<g>
			<g>
				<rect x="81.477" y="107.033" fill="#414042" width="55" height="61.111"/>
			</g>
			<g>
				<rect x="106.808" y="138.489" fill="#58595B" width="4.382" height="27.036"/>
			</g>
			<g>
				<rect x="88.734" y="142.854" fill="#58595B" width="4.382" height="22.671"/>
			</g>
			<g>
				<rect x="97.771" y="129.759" fill="#58595B" width="4.382" height="35.766"/>
			</g>
			<g>
				<rect x="124.881" y="116.663" fill="#58595B" width="4.382" height="48.862"/>
			</g>
			<g>
				<rect x="115.845" y="112.299" fill="#58595B" width="4.382" height="53.227"/>
			</g>
			<g>
				<rect x="106.808" y="146.653" fill="#808285" width="4.382" height="18.872"/>
			</g>
			<g>
				<rect x="88.734" y="149.447" fill="#808285" width="4.382" height="16.079"/>
			</g>
			<g>
				<rect x="97.771" y="141.067" fill="#808285" width="4.382" height="24.458"/>
			</g>
			<g>
				<rect x="124.881" y="132.688" fill="#808285" width="4.382" height="32.837"/>
			</g>
			<g>
				<rect x="115.845" y="129.895" fill="#808285" width="4.382" height="35.63"/>
			</g>
		</g>
		<g>
			<g>
				<path fill="#808285" d="M107.114,35.839v28.802h28.803C135.917,48.734,123.022,35.839,107.114,35.839z"/>
				<path fill="#414042" d="M137.417,66.142h-31.803V34.339h1.5c16.709,0,30.303,13.594,30.303,30.303V66.142z M108.614,63.142
					h25.762c-0.754-13.862-11.899-25.008-25.762-25.762V63.142z"/>
			</g>
			<g>
				<path fill="#414042" d="M101.794,70.962V44.017C91.135,46.04,83.072,55.394,83.072,66.641c0,12.726,10.316,23.042,23.042,23.042
					c11.248,0,20.601-8.063,22.624-18.722H101.794z"/>
			</g>
		</g>
		<g>
			<g>
				<rect x="17.025" y="107.033" fill="#414042" width="54.975" height="61.028"/>
			</g>
			<g>
				<g>
					<polygon fill="#808285" points="60.238,142.586 54.712,137.061 56.833,134.939 60.238,138.344 65.832,132.749 67.953,134.87 
											"/>
				</g>
				<g>
					<polygon fill="#808285" points="43.664,147.57 35.816,139.722 37.938,137.601 43.664,143.328 52.054,134.939 54.175,137.061 
											"/>
				</g>
				<g>
					
						<rect x="28.828" y="137.049" transform="matrix(0.7071 0.7071 -0.7071 0.7071 109.6824 20.3077)" fill="#808285" width="3" height="11.006"/>
				</g>
				<g>
					<circle fill="#808285" cx="54.443" cy="134.67" r="3"/>
				</g>
				<g>
					<circle fill="#808285" cx="35.548" cy="137.332" r="3"/>
				</g>
			</g>
			<g>
				<polygon fill="#58595B" points="66.893,164.438 20.632,164.438 20.632,112.209 23.632,112.209 23.632,161.438 66.893,161.438 
									"/>
			</g>
			<g opacity="0.5">
				<g>
					<polygon fill="#808285" points="33.092,136.586 25.376,128.87 27.497,126.749 33.092,132.344 36.497,128.939 38.618,131.061 
											"/>
				</g>
				<g>
					<polygon fill="#808285" points="49.665,141.57 39.155,131.061 41.276,128.939 49.665,137.328 55.393,131.601 57.514,133.722 
											"/>
				</g>
				<g>
					
						<rect x="57.499" y="135.052" transform="matrix(0.7071 0.7072 -0.7072 0.7071 115.0187 -4.5506)" fill="#808285" width="11.005" height="3"/>
				</g>
				<g>
					<circle fill="#808285" cx="38.887" cy="128.67" r="3"/>
				</g>
				<g>
					<circle fill="#808285" cx="57.782" cy="131.332" r="3"/>
				</g>
			</g>
		</g>
		<g>
			<g>
				<path fill="#414042" d="M141.5,183h-130C5.159,183,0,177.841,0,171.5v-160C0,5.159,5.159,0,11.5,0h130
					c6.341,0,11.5,5.159,11.5,11.5v160C153,177.841,147.841,183,141.5,183z M11.5,3C6.813,3,3,6.813,3,11.5v160
					c0,4.687,3.813,8.5,8.5,8.5h130c4.687,0,8.5-3.813,8.5-8.5v-160c0-4.687-3.813-8.5-8.5-8.5H11.5z"/>
			</g>
			<g>
				<rect x="1.5" y="20" fill="#414042" width="150" height="3"/>
			</g>
			<g>
				<circle fill="#808285" cx="12" cy="11.5" r="2.5"/>
			</g>
			<g>
				<circle fill="#808285" cx="20" cy="11.5" r="2.5"/>
			</g>
			<g>
				<circle fill="#808285" cx="28" cy="11.5" r="2.5"/>
			</g>
		</g>
	</g>
</g>
</svg>
