<?xml version="1.0" encoding="utf-8"?>
<!-- Generator: Adobe Illustrator 17.0.0, SVG Export Plug-In . SVG Version: 6.00 Build 0)  -->
<!DOCTYPE svg PUBLIC "-//W3C//DTD SVG 1.1//EN" "http://www.w3.org/Graphics/SVG/1.1/DTD/svg11.dtd">
<svg version="1.1" id="Layer_1" xmlns="http://www.w3.org/2000/svg" xmlns:xlink="http://www.w3.org/1999/xlink" x="0px" y="0px"
	 width="153px" height="183px" viewBox="0 0 153 183" enable-background="new 0 0 153 183" xml:space="preserve">
<g>
	<g>
		<g>
			<path fill="#58595B" d="M151.5,171.5c0,5.523-4.477,10-10,10h-130c-5.523,0-10-4.477-10-10v-160c0-5.523,4.477-10,10-10h130
				c5.523,0,10,4.477,10,10V171.5z"/>
		</g>
		<g>
			<rect x="36.5" y="149" fill="#808285" width="80" height="3"/>
		</g>
		<g>
			<rect x="46.5" y="159" fill="#808285" width="60" height="3"/>
		</g>
		<g>
			<path fill="#808285" d="M33.404,60.325c-0.42-0.3-0.66-0.69-0.66-1.17c0-0.66,0.51-1.26,1.29-1.26c0.3,0,0.601,0.12,0.84,0.27
				c1.47,0.93,3.12,1.59,5.07,1.59c2.88,0,4.56-1.38,4.56-3.48c0-1.74-0.96-2.82-4.26-3.33l-0.99-0.15
				c-4.109-0.63-6.029-2.46-6.029-5.67c0-3.63,2.58-5.939,6.659-5.939c2.19,0,4.17,0.63,5.4,1.38c0.51,0.33,0.72,0.72,0.72,1.17
				c0,0.66-0.51,1.2-1.2,1.2c-0.27,0-0.6-0.12-0.87-0.24c-1.29-0.57-2.64-1.02-4.14-1.02c-2.58,0-3.87,1.41-3.87,3.3
				c0,1.71,1.051,2.79,4.23,3.27l0.99,0.15c4.109,0.63,6.06,2.46,6.06,5.73c0,3.54-2.521,6.12-7.47,6.12
				C37.094,62.245,34.845,61.315,33.404,60.325z"/>
			<path fill="#808285" d="M50.864,58.345c-0.301-0.9-0.48-1.92-0.48-3.63s0.15-2.73,0.45-3.63c0.81-2.49,2.88-3.87,5.609-3.87
				c2.82,0,4.86,1.38,5.64,3.84c0.33,0.96,0.48,2.07,0.48,3.479c0,0.57-0.39,0.96-0.99,0.96h-8.43c-0.12,0-0.18,0.06-0.18,0.18
				c0,0.69,0.06,1.17,0.24,1.74c0.54,1.65,1.859,2.49,3.63,2.49c1.409,0,2.369-0.42,3.449-1.23c0.3-0.24,0.57-0.36,0.87-0.36
				c0.601,0,1.05,0.45,1.05,1.05c0,0.36-0.149,0.66-0.39,0.9c-1.23,1.14-2.94,1.98-5.16,1.98
				C53.684,62.245,51.674,60.865,50.864,58.345z M59.804,53.485c0.12,0,0.18-0.06,0.18-0.18c0-0.66-0.06-1.17-0.21-1.62
				c-0.479-1.44-1.68-2.25-3.3-2.25s-2.82,0.81-3.3,2.25c-0.15,0.45-0.21,0.96-0.21,1.62c0,0.12,0.06,0.18,0.18,0.18H59.804z"/>
			<path fill="#808285" d="M78.373,60.865c0,0.69-0.54,1.2-1.29,1.2c-0.45,0-0.811-0.21-1.11-0.63l-0.569-0.9h-0.03
				c-0.96,1.08-2.311,1.71-4.41,1.71c-3.21,0-5.069-1.59-5.069-4.32c0-2.97,2.04-4.44,5.609-4.44h3.27c0.12,0,0.181-0.06,0.181-0.18
				v-0.69c0-2.01-0.931-3.15-3.45-3.15c-1.11,0-2.25,0.36-2.939,0.72c-0.24,0.12-0.511,0.21-0.721,0.21
				c-0.659,0-1.079-0.42-1.079-1.08c0-0.39,0.18-0.78,0.6-1.02c0.899-0.6,2.399-1.08,4.38-1.08c3.84,0,5.64,1.83,5.64,5.37v5.16
				c0,0.75,0.06,1.05,0.27,1.47l0.511,0.93C78.283,60.355,78.373,60.625,78.373,60.865z M74.953,57.265v-1.59
				c0-0.12-0.061-0.18-0.181-0.18h-2.88c-2.459,0-3.569,0.72-3.569,2.34c0,1.5,1.08,2.25,3,2.25
				C73.543,60.085,74.953,59.035,74.953,57.265z"/>
			<path fill="#808285" d="M82.213,60.715v-11.97c0-0.84,0.54-1.35,1.26-1.35s1.26,0.51,1.26,1.35v0.66h0.03
				c0.6-1.29,1.92-2.19,3.689-2.19c0.99,0,1.65,0.24,2.13,0.51c0.511,0.27,0.721,0.66,0.721,1.08c0,0.72-0.51,1.26-1.26,1.26
				c-0.181,0-0.421-0.06-0.631-0.15c-0.539-0.21-1.05-0.36-1.649-0.36c-2.16,0-3.03,1.8-3.03,4.2v6.96c0,0.84-0.54,1.35-1.26,1.35
				S82.213,61.555,82.213,60.715z"/>
			<path fill="#808285" d="M93.463,58.375c-0.271-0.87-0.45-2.04-0.45-3.66c0-1.59,0.18-2.76,0.45-3.63
				c0.81-2.49,2.91-3.87,5.67-3.87c2.159,0,3.689,0.93,4.59,2.1c0.239,0.33,0.359,0.6,0.359,0.93c0,0.63-0.479,1.11-1.109,1.11
				c-0.45,0-0.78-0.24-1.11-0.6c-0.66-0.72-1.439-1.2-2.729-1.2c-1.561,0-2.73,0.75-3.21,2.25c-0.24,0.75-0.33,1.65-0.33,2.91
				c0,1.29,0.09,2.19,0.33,2.94c0.479,1.5,1.649,2.25,3.21,2.25c1.29,0,2.069-0.48,2.729-1.2c0.33-0.36,0.66-0.6,1.11-0.6
				c0.63,0,1.109,0.48,1.109,1.11c0,0.33-0.12,0.6-0.359,0.93c-0.9,1.17-2.431,2.1-4.59,2.1
				C96.373,62.245,94.272,60.865,93.463,58.375z"/>
			<path fill="#808285" d="M108.042,42.716c0-0.84,0.54-1.35,1.26-1.35s1.26,0.51,1.26,1.35v6.45h0.03
				c0.69-1.11,2.07-1.95,4.02-1.95c3.12,0,4.98,2.13,4.98,5.399v8.1c0,0.84-0.54,1.35-1.261,1.35c-0.72,0-1.26-0.51-1.26-1.35v-7.5
				c0-2.31-1.05-3.66-3.21-3.66c-1.949,0-3.3,1.38-3.3,3.51v7.65c0,0.84-0.54,1.35-1.26,1.35s-1.26-0.51-1.26-1.35V42.716z"/>
		</g>
		<g>
			<g>
				<g>
					<rect x="17.025" y="83.915" fill="#808285" width="118.95" height="22.191"/>
					<path fill="#414042" d="M137.475,107.606H15.525v-25.19h121.949V107.606z M18.525,104.606h115.949v-19.19H18.525V104.606z"/>
				</g>
			</g>
			<g>
				<rect x="112.475" y="83.916" fill="#414042" width="3" height="22.19"/>
			</g>
			<g>
				<g>
					<path fill="#414042" d="M124.013,98.673c-1.339,0-2.598-0.521-3.543-1.467c-0.946-0.946-1.468-2.205-1.468-3.543
						c0-1.339,0.521-2.597,1.468-3.543c0.945-0.946,2.204-1.467,3.543-1.467c1.338,0,2.597,0.521,3.543,1.468
						c1.953,1.953,1.953,5.132,0.001,7.085C126.609,98.152,125.351,98.673,124.013,98.673z M124.013,91.652
						c-0.537,0-1.042,0.209-1.421,0.588c-0.381,0.38-0.59,0.885-0.59,1.422s0.209,1.042,0.589,1.422c0.76,0.759,2.084,0.759,2.844,0
						c0.783-0.784,0.783-2.06,0-2.843C125.055,91.861,124.55,91.652,124.013,91.652z"/>
				</g>
				<g>
					
						<rect x="125.724" y="96.507" transform="matrix(0.7071 0.7071 -0.7071 0.7071 106.8967 -62.0567)" fill="#414042" width="5.267" height="3"/>
				</g>
			</g>
		</g>
		<g>
			<g>
				<path fill="#414042" d="M141.5,183h-130C5.159,183,0,177.841,0,171.5v-160C0,5.159,5.159,0,11.5,0h130
					c6.341,0,11.5,5.159,11.5,11.5v160C153,177.841,147.841,183,141.5,183z M11.5,3C6.813,3,3,6.813,3,11.5v160
					c0,4.687,3.813,8.5,8.5,8.5h130c4.687,0,8.5-3.813,8.5-8.5v-160c0-4.687-3.813-8.5-8.5-8.5H11.5z"/>
			</g>
			<g>
				<rect x="1.5" y="20" fill="#414042" width="150" height="3"/>
			</g>
			<g>
				<circle fill="#808285" cx="12" cy="11.5" r="2.5"/>
			</g>
			<g>
				<circle fill="#808285" cx="20" cy="11.5" r="2.5"/>
			</g>
			<g>
				<circle fill="#808285" cx="28" cy="11.5" r="2.5"/>
			</g>
		</g>
	</g>
</g>
</svg>
