<?xml version="1.0" encoding="utf-8"?>
<!-- Generator: Adobe Illustrator 17.0.0, SVG Export Plug-In . SVG Version: 6.00 Build 0)  -->
<!DOCTYPE svg PUBLIC "-//W3C//DTD SVG 1.1//EN" "http://www.w3.org/Graphics/SVG/1.1/DTD/svg11.dtd">
<svg version="1.1" id="Layer_1" xmlns="http://www.w3.org/2000/svg" xmlns:xlink="http://www.w3.org/1999/xlink" x="0px" y="0px"
	 width="153px" height="93px" viewBox="0 0 153 93" enable-background="new 0 0 153 93" xml:space="preserve">
<g>
	<g>
		<g>
			<path fill="#58595B" d="M151.5,81.5c0,5.523-4.477,10-10,10h-130c-5.523,0-10-4.477-10-10v-70c0-5.523,4.477-10,10-10h130
				c5.523,0,10,4.477,10,10V81.5z"/>
			<path fill="#414042" d="M141.5,93h-130C5.159,93,0,87.841,0,81.5v-70C0,5.159,5.159,0,11.5,0h130c6.341,0,11.5,5.159,11.5,11.5
				v70C153,87.841,147.841,93,141.5,93z M11.5,3C6.813,3,3,6.813,3,11.5v70c0,4.687,3.813,8.5,8.5,8.5h130
				c4.687,0,8.5-3.813,8.5-8.5v-70c0-4.687-3.813-8.5-8.5-8.5H11.5z"/>
		</g>
	</g>
	<g>
		<g>
			<g>
				<circle fill="#414042" cx="100.071" cy="46.5" r="30"/>
			</g>
			<g>
				<g>
					
						<rect x="98.072" y="36.121" transform="matrix(0.7071 0.7071 -0.7071 0.7071 62.1908 -57.1419)" fill="#808285" width="4" height="20.758"/>
				</g>
				<g>
					
						<rect x="89.693" y="44.5" transform="matrix(0.7071 0.7071 -0.7071 0.7071 62.1874 -57.1406)" fill="#808285" width="20.758" height="4"/>
				</g>
			</g>
		</g>
		<g>
			<g>
				<g>
					<g>
						<path fill="#808285" d="M52.929,16.5c-16.569,0-30,13.431-30,30c0,8.823,3.81,16.755,9.873,22.244
							c5.323,4.819,12.382,7.756,20.127,7.756s14.805-2.936,20.127-7.756c6.063-5.489,9.872-13.421,9.872-22.244
							C82.929,29.931,69.497,16.5,52.929,16.5z"/>
					</g>
					<g>
						<g>
							<circle fill="#58595B" cx="52.929" cy="40.5" r="12.857"/>
							<path fill="#414042" d="M52.929,54.857c-7.917,0-14.357-6.44-14.357-14.357s6.441-14.357,14.357-14.357
								s14.357,6.44,14.357,14.357S60.845,54.857,52.929,54.857z M52.929,29.143c-6.263,0-11.357,5.095-11.357,11.357
								s5.095,11.357,11.357,11.357c6.262,0,11.357-5.095,11.357-11.357S59.191,29.143,52.929,29.143z"/>
						</g>
						<g>
							<path fill="#58595B" d="M52.929,53.357c-9.626,0-17.724,6.522-20.127,15.387c5.323,4.819,12.382,7.756,20.127,7.756
								s14.805-2.936,20.127-7.756C70.652,59.88,62.554,53.357,52.929,53.357z"/>
							<path fill="#414042" d="M52.929,78c-7.828,0-15.334-2.893-21.134-8.144l-0.682-0.617l0.241-0.888
								c2.633-9.712,11.505-16.494,21.575-16.494c10.069,0,18.941,6.782,21.575,16.494l0.241,0.888l-0.682,0.617
								C68.263,75.107,60.757,78,52.929,78z M34.513,68.249C39.656,72.609,46.159,75,52.929,75s13.272-2.391,18.416-6.751
								c-2.564-7.93-10.008-13.392-18.416-13.392C44.52,54.857,37.076,60.319,34.513,68.249z"/>
						</g>
					</g>
					<g>
						<path fill="#414042" d="M52.929,78c-7.828,0-15.334-2.893-21.134-8.144C25.207,63.892,21.429,55.379,21.429,46.5
							c0-17.369,14.131-31.5,31.5-31.5s31.5,14.131,31.5,31.5c0,8.879-3.778,17.392-10.366,23.356
							C68.263,75.107,60.757,78,52.929,78z M52.929,18c-15.715,0-28.5,12.785-28.5,28.5c0,8.033,3.418,15.735,9.379,21.132
							C39.056,72.384,45.846,75,52.929,75s13.873-2.616,19.121-7.368c5.96-5.396,9.379-13.099,9.379-21.132
							C81.429,30.785,68.644,18,52.929,18z"/>
					</g>
				</g>
			</g>
		</g>
	</g>
</g>
</svg>
