<?xml version="1.0" encoding="utf-8"?>
<!-- Generator: Adobe Illustrator 17.0.0, SVG Export Plug-In . SVG Version: 6.00 Build 0)  -->
<!DOCTYPE svg PUBLIC "-//W3C//DTD SVG 1.1//EN" "http://www.w3.org/Graphics/SVG/1.1/DTD/svg11.dtd">
<svg version="1.1" id="Layer_1" xmlns="http://www.w3.org/2000/svg" xmlns:xlink="http://www.w3.org/1999/xlink" x="0px" y="0px"
	 width="153px" height="183px" viewBox="0 0 153 183" enable-background="new 0 0 153 183" xml:space="preserve">
<g>
	<g>
		<g>
			<path fill="#58595B" d="M151.5,171.5c0,5.523-4.477,10-10,10h-130c-5.523,0-10-4.477-10-10v-160c0-5.523,4.477-10,10-10h130
				c5.523,0,10,4.477,10,10V171.5z"/>
		</g>
		<g>
			<rect x="13.5" y="31.5" fill="#414042" width="126" height="140"/>
		</g>
		<g>
			<rect x="63.25" y="103.563" fill="#58595B" width="10.038" height="61.938"/>
		</g>
		<g>
			<rect x="30.125" y="113.563" fill="#58595B" width="10.038" height="51.938"/>
		</g>
		<g>
			<rect x="46.687" y="83.563" fill="#58595B" width="10.038" height="81.938"/>
		</g>
		<g>
			<rect x="112.936" y="53.563" fill="#58595B" width="10.038" height="111.938"/>
		</g>
		<g>
			<rect x="79.812" y="43.563" fill="#58595B" width="10.038" height="121.938"/>
		</g>
		<g>
			<rect x="96.374" y="73.563" fill="#58595B" width="10.038" height="91.938"/>
		</g>
		<g>
			<rect x="63.25" y="122.267" fill="#808285" width="10.038" height="43.233"/>
		</g>
		<g>
			<rect x="30.125" y="128.666" fill="#808285" width="10.038" height="36.834"/>
		</g>
		<g>
			<rect x="46.687" y="109.47" fill="#808285" width="10.038" height="56.03"/>
		</g>
		<g>
			<rect x="112.936" y="90.274" fill="#808285" width="10.038" height="75.226"/>
		</g>
		<g>
			<rect x="79.812" y="83.875" fill="#808285" width="10.038" height="81.625"/>
		</g>
		<g>
			<rect x="96.374" y="103.071" fill="#808285" width="10.038" height="62.429"/>
		</g>
		<g>
			<g>
				<path fill="#414042" d="M141.5,183h-130C5.159,183,0,177.841,0,171.5v-160C0,5.159,5.159,0,11.5,0h130
					c6.341,0,11.5,5.159,11.5,11.5v160C153,177.841,147.841,183,141.5,183z M11.5,3C6.813,3,3,6.813,3,11.5v160
					c0,4.687,3.813,8.5,8.5,8.5h130c4.687,0,8.5-3.813,8.5-8.5v-160c0-4.687-3.813-8.5-8.5-8.5H11.5z"/>
			</g>
			<g>
				<rect x="1.5" y="20" fill="#414042" width="150" height="3"/>
			</g>
			<g>
				<circle fill="#808285" cx="12" cy="11.5" r="2.5"/>
			</g>
			<g>
				<circle fill="#808285" cx="20" cy="11.5" r="2.5"/>
			</g>
			<g>
				<circle fill="#808285" cx="28" cy="11.5" r="2.5"/>
			</g>
		</g>
	</g>
</g>
</svg>
