<?xml version="1.0" encoding="utf-8"?>
<!-- Generator: Adobe Illustrator 17.0.0, SVG Export Plug-In . SVG Version: 6.00 Build 0)  -->
<!DOCTYPE svg PUBLIC "-//W3C//DTD SVG 1.1//EN" "http://www.w3.org/Graphics/SVG/1.1/DTD/svg11.dtd">
<svg version="1.1" id="Layer_1" xmlns="http://www.w3.org/2000/svg" xmlns:xlink="http://www.w3.org/1999/xlink" x="0px" y="0px"
	 width="153px" height="183px" viewBox="0 0 153 183" enable-background="new 0 0 153 183" xml:space="preserve">
<g>
	<g>
		<g>
			<path fill="#58595B" d="M151.5,171.5c0,5.523-4.477,10-10,10h-130c-5.523,0-10-4.477-10-10v-160c0-5.523,4.477-10,10-10h130
				c5.523,0,10,4.477,10,10V171.5z"/>
		</g>
		<g>
			<g>
				<g>
					<path fill="#808285" d="M43.5,58c-13.807,0-25,11.193-25,25c0,7.353,3.175,13.963,8.227,18.537
						C31.163,105.553,37.045,108,43.5,108c6.455,0,12.337-2.447,16.773-6.463C65.325,96.963,68.5,90.353,68.5,83
						C68.5,69.193,57.307,58,43.5,58z"/>
				</g>
				<g>
					<g>
						<circle fill="#58595B" cx="43.5" cy="78" r="10.714"/>
						<path fill="#414042" d="M43.5,90.215c-6.735,0-12.214-5.479-12.214-12.215c0-6.734,5.479-12.214,12.214-12.214
							S55.714,71.266,55.714,78C55.714,84.735,50.235,90.215,43.5,90.215z M43.5,68.786c-5.081,0-9.214,4.134-9.214,9.214
							c0,5.081,4.133,9.215,9.214,9.215s9.214-4.134,9.214-9.215C52.714,72.92,48.581,68.786,43.5,68.786z"/>
					</g>
					<g>
						<path fill="#58595B" d="M43.5,88.714c-8.021,0-14.77,5.435-16.773,12.823C31.163,105.553,37.045,108,43.5,108
							c6.455,0,12.337-2.447,16.773-6.463C58.27,94.15,51.521,88.714,43.5,88.714z"/>
						<path fill="#414042" d="M43.5,109.5c-6.585,0-12.9-2.433-17.78-6.851l-0.682-0.617l0.241-0.888
							c2.224-8.201,9.716-13.93,18.221-13.93c8.504,0,15.997,5.729,18.221,13.93l0.241,0.888l-0.682,0.617
							C56.4,107.067,50.085,109.5,43.5,109.5z M28.443,101.042c4.221,3.526,9.531,5.458,15.057,5.458s10.835-1.932,15.057-5.458
							c-2.151-6.42-8.215-10.827-15.057-10.827C36.658,90.215,30.594,94.622,28.443,101.042z"/>
					</g>
				</g>
				<g>
					<path fill="#414042" d="M43.5,109.5c-6.585,0-12.9-2.433-17.78-6.851C20.178,97.632,17,90.47,17,83
						c0-14.612,11.888-26.5,26.5-26.5S70,68.388,70,83c0,7.47-3.178,14.632-8.72,19.649C56.4,107.067,50.085,109.5,43.5,109.5z
						 M43.5,59.5C30.542,59.5,20,70.042,20,83c0,6.624,2.819,12.976,7.734,17.425c4.327,3.918,9.926,6.075,15.766,6.075
						s11.439-2.157,15.766-6.075C64.181,95.976,67,89.624,67,83C67,70.042,56.458,59.5,43.5,59.5z"/>
				</g>
			</g>
			<g>
				<rect x="23.5" y="122" fill="#808285" width="40" height="3"/>
			</g>
			<g>
				<rect x="33.5" y="132" fill="#808285" width="20" height="3"/>
			</g>
			<g>
				<g>
					<path fill="#808285" d="M109.5,58c-13.807,0-25,11.193-25,25c0,7.353,3.175,13.963,8.227,18.537
						C97.163,105.553,103.045,108,109.5,108c6.455,0,12.337-2.447,16.773-6.463C131.325,96.963,134.5,90.353,134.5,83
						C134.5,69.193,123.307,58,109.5,58z"/>
				</g>
				<g>
					<g>
						<circle fill="#58595B" cx="109.5" cy="78" r="10.714"/>
						<path fill="#414042" d="M109.5,90.215c-6.735,0-12.214-5.479-12.214-12.215c0-6.734,5.479-12.214,12.214-12.214
							S121.714,71.266,121.714,78C121.714,84.735,116.235,90.215,109.5,90.215z M109.5,68.786c-5.081,0-9.214,4.134-9.214,9.214
							c0,5.081,4.133,9.215,9.214,9.215s9.214-4.134,9.214-9.215C118.714,72.92,114.581,68.786,109.5,68.786z"/>
					</g>
					<g>
						<path fill="#58595B" d="M109.5,88.714c-8.021,0-14.77,5.435-16.773,12.823C97.163,105.553,103.045,108,109.5,108
							c6.455,0,12.337-2.447,16.773-6.463C124.27,94.15,117.521,88.714,109.5,88.714z"/>
						<path fill="#414042" d="M109.5,109.5c-6.585,0-12.9-2.433-17.78-6.851l-0.682-0.617l0.241-0.888
							c2.224-8.201,9.716-13.93,18.221-13.93c8.504,0,15.997,5.729,18.221,13.93l0.241,0.888l-0.682,0.617
							C122.4,107.067,116.085,109.5,109.5,109.5z M94.443,101.042c4.221,3.526,9.531,5.458,15.057,5.458s10.835-1.932,15.057-5.458
							c-2.151-6.42-8.215-10.827-15.057-10.827C102.658,90.215,96.594,94.622,94.443,101.042z"/>
					</g>
				</g>
				<g>
					<path fill="#414042" d="M109.5,109.5c-6.585,0-12.9-2.433-17.78-6.851C86.178,97.632,83,90.47,83,83
						c0-14.612,11.888-26.5,26.5-26.5S136,68.388,136,83c0,7.47-3.178,14.632-8.72,19.649C122.4,107.067,116.085,109.5,109.5,109.5z
						 M109.5,59.5C96.542,59.5,86,70.042,86,83c0,6.624,2.819,12.976,7.734,17.425c4.327,3.918,9.926,6.075,15.766,6.075
						s11.439-2.157,15.766-6.075C130.181,95.976,133,89.624,133,83C133,70.042,122.458,59.5,109.5,59.5z"/>
				</g>
			</g>
			<g>
				<rect x="89.5" y="122" fill="#808285" width="40" height="3"/>
			</g>
			<g>
				<rect x="99.5" y="132" fill="#808285" width="20" height="3"/>
			</g>
		</g>
		<g>
			<g>
				<path fill="#414042" d="M141.5,183h-130C5.159,183,0,177.841,0,171.5v-160C0,5.159,5.159,0,11.5,0h130
					c6.341,0,11.5,5.159,11.5,11.5v160C153,177.841,147.841,183,141.5,183z M11.5,3C6.813,3,3,6.813,3,11.5v160
					c0,4.687,3.813,8.5,8.5,8.5h130c4.687,0,8.5-3.813,8.5-8.5v-160c0-4.687-3.813-8.5-8.5-8.5H11.5z"/>
			</g>
			<g>
				<rect x="1.5" y="20" fill="#414042" width="150" height="3"/>
			</g>
			<g>
				<circle fill="#808285" cx="12" cy="11.5" r="2.5"/>
			</g>
			<g>
				<circle fill="#808285" cx="20" cy="11.5" r="2.5"/>
			</g>
			<g>
				<circle fill="#808285" cx="28" cy="11.5" r="2.5"/>
			</g>
		</g>
	</g>
</g>
</svg>
