<?xml version="1.0" encoding="utf-8"?>
<!-- Generator: Adobe Illustrator 17.0.0, SVG Export Plug-In . SVG Version: 6.00 Build 0)  -->
<!DOCTYPE svg PUBLIC "-//W3C//DTD SVG 1.1//EN" "http://www.w3.org/Graphics/SVG/1.1/DTD/svg11.dtd">
<svg version="1.1" id="Layer_1" xmlns="http://www.w3.org/2000/svg" xmlns:xlink="http://www.w3.org/1999/xlink" x="0px" y="0px"
	 width="153px" height="183px" viewBox="0 0 153 183" enable-background="new 0 0 153 183" xml:space="preserve">
<g>
	<g>
		<g>
			<path fill="#58595B" d="M151.5,171.5c0,5.523-4.477,10-10,10h-130c-5.523,0-10-4.477-10-10v-160c0-5.523,4.477-10,10-10h130
				c5.523,0,10,4.477,10,10V171.5z"/>
		</g>
		<g>
			<g>
				<rect x="14.875" y="80.053" fill="#808285" width="33.527" height="3"/>
			</g>
			<g>
				<g>
					<g>
						<path fill="#808285" d="M31.638,40c-9.258,0-16.764,7.505-16.764,16.764c0,4.93,2.129,9.363,5.517,12.43
							c2.974,2.693,6.919,4.334,11.247,4.334s8.273-1.641,11.247-4.334c3.388-3.067,5.517-7.5,5.517-12.43
							C48.402,47.505,40.897,40,31.638,40z"/>
					</g>
					<g>
						<g>
							<circle fill="#58595B" cx="31.638" cy="53.411" r="7.185"/>
							<path fill="#414042" d="M31.639,62.095c-4.789,0-8.685-3.896-8.685-8.684c0-4.789,3.896-8.685,8.685-8.685
								s8.685,3.896,8.685,8.685C40.323,58.199,36.428,62.095,31.639,62.095z M31.639,47.727c-3.135,0-5.685,2.55-5.685,5.685
								c0,3.134,2.55,5.684,5.685,5.684s5.685-2.55,5.685-5.684C37.323,50.276,34.773,47.727,31.639,47.727z"/>
						</g>
						<g>
							<path fill="#58595B" d="M31.638,60.595c-5.379,0-9.904,3.645-11.247,8.598c2.974,2.693,6.919,4.334,11.247,4.334
								s8.273-1.641,11.247-4.334C41.542,64.24,37.017,60.595,31.638,60.595z"/>
							<path fill="#414042" d="M31.639,75.027c-4.54,0-8.892-1.677-12.254-4.723l-0.682-0.616l0.241-0.888
								c1.549-5.715,6.77-9.706,12.694-9.706c5.924,0,11.145,3.991,12.694,9.706l0.241,0.888l-0.682,0.617
								C40.529,73.351,36.178,75.027,31.639,75.027z M22.124,68.699c2.696,2.152,6.039,3.328,9.515,3.328
								c3.475,0,6.817-1.176,9.515-3.328c-1.467-3.932-5.255-6.604-9.515-6.604C27.378,62.095,23.59,64.768,22.124,68.699z"/>
						</g>
					</g>
					<g>
						<path fill="#414042" d="M31.639,75.027c-4.54,0-8.892-1.677-12.254-4.723c-3.819-3.457-6.01-8.393-6.01-13.541
							c0-10.07,8.193-18.264,18.264-18.264s18.264,8.193,18.264,18.264c0,5.147-2.19,10.083-6.01,13.542
							C40.529,73.351,36.178,75.027,31.639,75.027z M31.639,41.5c-8.416,0-15.264,6.848-15.264,15.264
							c0,4.303,1.831,8.428,5.023,11.317c2.81,2.545,6.446,3.946,10.24,3.946c3.793,0,7.43-1.401,10.24-3.946
							c3.192-2.891,5.023-7.016,5.023-11.317C46.902,48.348,40.055,41.5,31.639,41.5z"/>
					</g>
				</g>
				<g>
					<g>
						<rect x="75" y="41.553" fill="#414042" width="42.5" height="10"/>
					</g>
					<g>
						<rect x="85" y="60.053" fill="#808285" width="52.5" height="3"/>
					</g>
					<g>
						<path fill="none" stroke="#808285" stroke-width="3" stroke-miterlimit="10" d="M75,71.552"/>
					</g>
					<g>
						<rect x="75" y="70.053" fill="#808285" width="62.5" height="3"/>
					</g>
				</g>
				<g>
					<g>
						<g>
							<rect x="75" y="80.053" fill="#808285" width="62.5" height="3"/>
						</g>
						<g>
							<rect x="75" y="90.053" fill="#808285" width="62.5" height="3"/>
						</g>
						<g>
							<path fill="none" stroke="#808285" stroke-width="3" stroke-miterlimit="10" d="M75,101.552"/>
						</g>
						<g>
							<rect x="75" y="100.053" fill="#808285" width="52.5" height="3"/>
						</g>
					</g>
				</g>
				<g>
					<g>
						<g>
							<rect x="75" y="120.053" fill="#808285" width="62.5" height="3"/>
						</g>
						<g>
							<rect x="75" y="130.053" fill="#808285" width="62.5" height="3"/>
						</g>
						<g>
							<path fill="none" stroke="#808285" stroke-width="3" stroke-miterlimit="10" d="M75,141.552"/>
						</g>
						<g>
							<rect x="75" y="140.053" fill="#808285" width="62.5" height="3"/>
						</g>
					</g>
				</g>
				<g>
					<g>
						<g>
							<rect x="75" y="150.053" fill="#808285" width="62.5" height="3"/>
						</g>
						<g>
							<rect x="75" y="160.053" fill="#808285" width="52.5" height="3"/>
						</g>
					</g>
				</g>
			</g>
			<g>
				<rect x="75" y="110.053" fill="#808285" width="62.5" height="3"/>
			</g>
		</g>
		<g>
			<rect x="14.875" y="90.053" fill="#808285" width="33.527" height="3"/>
		</g>
		<g>
			<rect x="14.875" y="100.053" fill="#808285" width="33.527" height="3"/>
		</g>
		<g>
			<rect x="59.902" y="21.5" fill="#414042" width="3" height="160"/>
		</g>
		<g>
			<g>
				<path fill="#414042" d="M141.5,183h-130C5.159,183,0,177.841,0,171.5v-160C0,5.159,5.159,0,11.5,0h130
					c6.341,0,11.5,5.159,11.5,11.5v160C153,177.841,147.841,183,141.5,183z M11.5,3C6.813,3,3,6.813,3,11.5v160
					c0,4.687,3.813,8.5,8.5,8.5h130c4.687,0,8.5-3.813,8.5-8.5v-160c0-4.687-3.813-8.5-8.5-8.5H11.5z"/>
			</g>
			<g>
				<rect x="1.5" y="20" fill="#414042" width="150" height="3"/>
			</g>
			<g>
				<circle fill="#808285" cx="12" cy="11.5" r="2.5"/>
			</g>
			<g>
				<circle fill="#808285" cx="20" cy="11.5" r="2.5"/>
			</g>
			<g>
				<circle fill="#808285" cx="28" cy="11.5" r="2.5"/>
			</g>
		</g>
	</g>
</g>
</svg>
