<?xml version="1.0" encoding="utf-8"?>
<!-- Generator: Adobe Illustrator 17.0.0, SVG Export Plug-In . SVG Version: 6.00 Build 0)  -->
<!DOCTYPE svg PUBLIC "-//W3C//DTD SVG 1.1//EN" "http://www.w3.org/Graphics/SVG/1.1/DTD/svg11.dtd">
<svg version="1.1" id="Layer_1" xmlns="http://www.w3.org/2000/svg" xmlns:xlink="http://www.w3.org/1999/xlink" x="0px" y="0px"
	 width="153px" height="183px" viewBox="0 0 153 183" enable-background="new 0 0 153 183" xml:space="preserve">
<g>
	<g>
		<g>
			<path fill="#58595B" d="M151.5,171.5c0,5.523-4.477,10-10,10h-130c-5.523,0-10-4.477-10-10v-160c0-5.523,4.477-10,10-10h130
				c5.523,0,10,4.477,10,10V171.5z"/>
		</g>
		<g>
			<g>
				<g>
					<path fill="#808285" d="M76.5,43.5C54.685,43.5,37,61.185,37,83c0,11.617,5.016,22.061,12.999,29.289
						C57.007,118.634,66.302,122.5,76.5,122.5s19.493-3.866,26.501-10.211C110.984,105.061,116,94.617,116,83
						C116,61.185,98.315,43.5,76.5,43.5z"/>
				</g>
				<g>
					<g>
						<circle fill="#58595B" cx="76.5" cy="75.1" r="16.929"/>
						<path fill="#414042" d="M76.5,93.528c-10.162,0-18.429-8.267-18.429-18.428c0-10.162,8.267-18.429,18.429-18.429
							s18.429,8.267,18.429,18.429C94.929,85.262,86.662,93.528,76.5,93.528z M76.5,59.672c-8.507,0-15.429,6.921-15.429,15.429
							c0,8.507,6.921,15.428,15.429,15.428s15.429-6.921,15.429-15.428C91.929,66.593,85.007,59.672,76.5,59.672z"/>
					</g>
					<g>
						<path fill="#58595B" d="M76.5,92.029c-12.674,0-23.336,8.588-26.501,20.26C57.007,118.634,66.302,122.5,76.5,122.5
							s19.493-3.866,26.501-10.211C99.836,100.616,89.174,92.029,76.5,92.029z"/>
						<path fill="#414042" d="M76.5,124c-10.189,0-19.958-3.764-27.508-10.599l-0.682-0.617l0.241-0.888
							C51.962,99.315,63.455,90.528,76.5,90.528s24.538,8.787,27.949,21.368l0.241,0.888l-0.682,0.617
							C96.458,120.236,86.689,124,76.5,124z M51.704,111.794C58.6,117.738,67.368,121,76.5,121s17.9-3.262,24.795-9.206
							C97.95,100.993,87.885,93.528,76.5,93.528C65.116,93.528,55.05,100.993,51.704,111.794z"/>
					</g>
				</g>
				<g>
					<path fill="#414042" d="M76.5,124c-10.189,0-19.958-3.764-27.508-10.599C40.417,105.638,35.5,94.557,35.5,83
						c0-22.607,18.393-41,41-41s41,18.393,41,41c0,11.557-4.918,22.638-13.492,30.401C96.458,120.236,86.689,124,76.5,124z M76.5,45
						c-20.953,0-38,17.047-38,38c0,10.711,4.558,20.981,12.505,28.177C58.002,117.512,67.056,121,76.5,121
						s18.498-3.488,25.494-9.823C109.942,103.981,114.5,93.711,114.5,83C114.5,62.047,97.453,45,76.5,45z"/>
				</g>
			</g>
			<g>
				<rect x="36.5" y="142" fill="#808285" width="80" height="3"/>
			</g>
			<g>
				<rect x="46.5" y="152" fill="#808285" width="60" height="3"/>
			</g>
		</g>
		<g>
			<g>
				<path fill="#414042" d="M141.5,183h-130C5.159,183,0,177.841,0,171.5v-160C0,5.159,5.159,0,11.5,0h130
					c6.341,0,11.5,5.159,11.5,11.5v160C153,177.841,147.841,183,141.5,183z M11.5,3C6.813,3,3,6.813,3,11.5v160
					c0,4.687,3.813,8.5,8.5,8.5h130c4.687,0,8.5-3.813,8.5-8.5v-160c0-4.687-3.813-8.5-8.5-8.5H11.5z"/>
			</g>
			<g>
				<rect x="1.5" y="20" fill="#414042" width="150" height="3"/>
			</g>
			<g>
				<circle fill="#808285" cx="12" cy="11.5" r="2.5"/>
			</g>
			<g>
				<circle fill="#808285" cx="20" cy="11.5" r="2.5"/>
			</g>
			<g>
				<circle fill="#808285" cx="28" cy="11.5" r="2.5"/>
			</g>
		</g>
	</g>
</g>
</svg>
