<?xml version="1.0" encoding="utf-8"?>
<!-- Generator: Adobe Illustrator 17.0.0, SVG Export Plug-In . SVG Version: 6.00 Build 0)  -->
<!DOCTYPE svg PUBLIC "-//W3C//DTD SVG 1.1//EN" "http://www.w3.org/Graphics/SVG/1.1/DTD/svg11.dtd">
<svg version="1.1" id="Layer_1" xmlns="http://www.w3.org/2000/svg" xmlns:xlink="http://www.w3.org/1999/xlink" x="0px" y="0px"
	 width="153px" height="183px" viewBox="0 0 153 183" enable-background="new 0 0 153 183" xml:space="preserve">
<g>
	<g>
		<g>
			<path fill="#58595B" d="M151.5,171.5c0,5.523-4.477,10-10,10h-130c-5.523,0-10-4.477-10-10v-160c0-5.523,4.477-10,10-10h130
				c5.523,0,10,4.477,10,10V171.5z"/>
		</g>
		<g>
			<rect x="17.025" y="149" fill="#414042" width="118.95" height="3"/>
		</g>
		<g>
			<rect x="17.025" y="159" fill="#414042" width="98.95" height="3"/>
		</g>
		<g>
			<g>
				<rect x="17.025" y="34.5" fill="#414042" width="21.1" height="88.75"/>
				<path fill="#414042" d="M39.625,124.75h-24.1V33h24.1V124.75z M18.525,121.75h18.1V36h-18.1V121.75z"/>
			</g>
			<g>
				<rect x="38.125" y="34.5" fill="#808285" width="76.75" height="88.75"/>
				<path fill="#414042" d="M116.375,124.75h-79.75V33h79.75V124.75z M39.625,121.75h73.75V36h-73.75V121.75z"/>
			</g>
			<g>
				<rect x="114.875" y="34.5" fill="#414042" width="21.1" height="88.75"/>
				<path fill="#414042" d="M137.475,124.75h-24.1V33h24.1V124.75z M116.375,121.75h18.1V36h-18.1V121.75z"/>
			</g>
			<g>
				<g>
					<polygon fill="#414042" points="51.929,94.725 49.808,92.604 68.562,73.85 82.91,88.199 93.321,77.788 103.713,88.181 
						101.592,90.302 93.321,82.03 82.91,92.441 68.562,78.092 					"/>
				</g>
				<g>
					<path fill="#414042" d="M84.24,75.521c-3.683,0-6.678-2.996-6.678-6.678s2.996-6.679,6.678-6.679s6.679,2.996,6.679,6.679
						S87.923,75.521,84.24,75.521z M84.24,65.164c-2.028,0-3.678,1.65-3.678,3.679s1.65,3.678,3.678,3.678s3.679-1.65,3.679-3.678
						S86.269,65.164,84.24,65.164z"/>
				</g>
			</g>
			<g>
				<polygon fill="#808285" points="29.265,85.436 22.704,78.875 29.265,72.314 31.386,74.436 26.946,78.875 31.386,83.314 				"/>
			</g>
			<g>
				<polygon fill="#808285" points="123.886,85.436 121.765,83.314 126.204,78.875 121.765,74.436 123.886,72.314 130.446,78.875 
									"/>
			</g>
		</g>
		<g>
			<rect x="17.025" y="139" fill="#414042" width="118.95" height="3"/>
		</g>
		<g>
			<g>
				<path fill="#414042" d="M141.5,183h-130C5.159,183,0,177.841,0,171.5v-160C0,5.159,5.159,0,11.5,0h130
					c6.341,0,11.5,5.159,11.5,11.5v160C153,177.841,147.841,183,141.5,183z M11.5,3C6.813,3,3,6.813,3,11.5v160
					c0,4.687,3.813,8.5,8.5,8.5h130c4.687,0,8.5-3.813,8.5-8.5v-160c0-4.687-3.813-8.5-8.5-8.5H11.5z"/>
			</g>
			<g>
				<rect x="1.5" y="20" fill="#414042" width="150" height="3"/>
			</g>
			<g>
				<circle fill="#808285" cx="12" cy="11.5" r="2.5"/>
			</g>
			<g>
				<circle fill="#808285" cx="20" cy="11.5" r="2.5"/>
			</g>
			<g>
				<circle fill="#808285" cx="28" cy="11.5" r="2.5"/>
			</g>
		</g>
	</g>
</g>
</svg>
