<?xml version="1.0" encoding="utf-8"?>
<!-- Generator: Adobe Illustrator 17.0.0, SVG Export Plug-In . SVG Version: 6.00 Build 0)  -->
<!DOCTYPE svg PUBLIC "-//W3C//DTD SVG 1.1//EN" "http://www.w3.org/Graphics/SVG/1.1/DTD/svg11.dtd">
<svg version="1.1" id="Layer_1" xmlns="http://www.w3.org/2000/svg" xmlns:xlink="http://www.w3.org/1999/xlink" x="0px" y="0px"
	 width="153px" height="93px" viewBox="0 0 153 93" enable-background="new 0 0 153 93" xml:space="preserve">
<g>
	<g>
		<g>
			<path fill="#58595B" d="M151.5,81.5c0,5.523-4.477,10-10,10h-130c-5.523,0-10-4.477-10-10v-70c0-5.523,4.477-10,10-10h130
				c5.523,0,10,4.477,10,10V81.5z"/>
			<path fill="#414042" d="M141.5,93h-130C5.159,93,0,87.841,0,81.5v-70C0,5.159,5.159,0,11.5,0h130c6.341,0,11.5,5.159,11.5,11.5
				v70C153,87.841,147.841,93,141.5,93z M11.5,3C6.813,3,3,6.813,3,11.5v70c0,4.687,3.813,8.5,8.5,8.5h130
				c4.687,0,8.5-3.813,8.5-8.5v-70c0-4.687-3.813-8.5-8.5-8.5H11.5z"/>
		</g>
	</g>
	<g>
		<circle fill="#414042" cx="76.5" cy="46.5" r="35"/>
	</g>
	<g>
		<g>
			<rect x="64.391" y="44.5" fill="#808285" width="24.219" height="4"/>
		</g>
		<g>
			<rect x="74.5" y="34.391" fill="#808285" width="4" height="24.219"/>
		</g>
	</g>
</g>
</svg>
