<?xml version="1.0" encoding="utf-8"?>
<!-- Generator: Adobe Illustrator 17.0.0, SVG Export Plug-In . SVG Version: 6.00 Build 0)  -->
<!DOCTYPE svg PUBLIC "-//W3C//DTD SVG 1.1//EN" "http://www.w3.org/Graphics/SVG/1.1/DTD/svg11.dtd">
<svg version="1.1" id="Layer_1" xmlns="http://www.w3.org/2000/svg" xmlns:xlink="http://www.w3.org/1999/xlink" x="0px" y="0px"
	 width="153px" height="93px" viewBox="0 0 153 93" enable-background="new 0 0 153 93" xml:space="preserve">
<g>
	<g>
		<g>
			<path fill="#58595B" d="M151.5,81.5c0,5.523-4.477,10-10,10h-130c-5.523,0-10-4.477-10-10v-70c0-5.523,4.477-10,10-10h130
				c5.523,0,10,4.477,10,10V81.5z"/>
			<path fill="#414042" d="M141.5,93h-130C5.159,93,0,87.841,0,81.5v-70C0,5.159,5.159,0,11.5,0h130c6.341,0,11.5,5.159,11.5,11.5
				v70C153,87.841,147.841,93,141.5,93z M11.5,3C6.813,3,3,6.813,3,11.5v70c0,4.687,3.813,8.5,8.5,8.5h130
				c4.687,0,8.5-3.813,8.5-8.5v-70c0-4.687-3.813-8.5-8.5-8.5H11.5z"/>
		</g>
	</g>
	<g>
		<polygon fill="#414042" points="61.698,23.5 61.698,42.957 56.198,46.457 61.698,49.957 61.698,69.5 137.198,69.5 137.198,23.5 		
			"/>
	</g>
	<g>
		<g>
			<g>
				<rect x="74.448" y="35" fill="#808285" width="50" height="3"/>
			</g>
			<g>
				<rect x="74.448" y="45" fill="#808285" width="50" height="3"/>
			</g>
			<g>
				<path fill="none" stroke="#808285" stroke-width="3" stroke-miterlimit="10" d="M74.448,56.5"/>
			</g>
			<g>
				<rect x="74.448" y="55" fill="#808285" width="40" height="3"/>
			</g>
		</g>
	</g>
	<g>
		<g>
			<g>
				<g>
					<path fill="#808285" d="M31.336,29.904c-9.258,0-16.764,7.505-16.764,16.764c0,4.93,2.129,9.363,5.517,12.43
						c2.974,2.693,6.919,4.334,11.247,4.334s8.273-1.641,11.247-4.334c3.388-3.067,5.517-7.5,5.517-12.43
						C48.1,37.41,40.595,29.904,31.336,29.904z"/>
				</g>
				<g>
					<g>
						<circle fill="#58595B" cx="31.336" cy="43.315" r="7.184"/>
						<path fill="#414042" d="M31.336,52c-4.789,0-8.685-3.896-8.685-8.685s3.896-8.685,8.685-8.685s8.685,3.896,8.685,8.685
							S36.125,52,31.336,52z M31.336,37.631c-3.134,0-5.685,2.55-5.685,5.685S28.202,49,31.336,49s5.685-2.55,5.685-5.685
							S34.471,37.631,31.336,37.631z"/>
					</g>
					<g>
						<path fill="#58595B" d="M31.336,50.5c-5.379,0-9.904,3.645-11.247,8.598c2.974,2.693,6.919,4.334,11.247,4.334
							s8.273-1.641,11.247-4.334C41.24,54.145,36.715,50.5,31.336,50.5z"/>
						<path fill="#414042" d="M31.336,64.932c-4.539,0-8.891-1.677-12.254-4.722l-0.682-0.617l0.241-0.887
							C20.191,52.991,25.412,49,31.336,49s11.145,3.991,12.695,9.706l0.241,0.888L43.59,60.21
							C40.227,63.255,35.875,64.932,31.336,64.932z M21.822,58.604c2.697,2.153,6.04,3.329,9.514,3.329
							c3.474,0,6.817-1.176,9.514-3.329C39.385,54.673,35.597,52,31.336,52C27.076,52,23.288,54.672,21.822,58.604z"/>
					</g>
				</g>
				<g>
					<path fill="#414042" d="M31.336,64.932c-4.539,0-8.891-1.677-12.254-4.722c-3.819-3.458-6.01-8.394-6.01-13.542
						c0-10.071,8.193-18.264,18.264-18.264S49.6,36.598,49.6,46.668c0,5.147-2.19,10.083-6.01,13.542
						C40.227,63.255,35.875,64.932,31.336,64.932z M31.336,31.404c-8.417,0-15.264,6.848-15.264,15.264
						c0,4.302,1.831,8.428,5.023,11.318c2.81,2.544,6.447,3.946,10.24,3.946c3.793,0,7.43-1.401,10.24-3.946
						c3.192-2.891,5.023-7.016,5.023-11.318C46.6,38.252,39.753,31.404,31.336,31.404z"/>
				</g>
			</g>
		</g>
	</g>
</g>
</svg>
