<?xml version="1.0" encoding="utf-8"?>
<!-- Generator: Adobe Illustrator 17.0.0, SVG Export Plug-In . SVG Version: 6.00 Build 0)  -->
<!DOCTYPE svg PUBLIC "-//W3C//DTD SVG 1.1//EN" "http://www.w3.org/Graphics/SVG/1.1/DTD/svg11.dtd">
<svg version="1.1" id="Layer_1" xmlns="http://www.w3.org/2000/svg" xmlns:xlink="http://www.w3.org/1999/xlink" x="0px" y="0px"
	 width="153px" height="183px" viewBox="0 0 153 183" enable-background="new 0 0 153 183" xml:space="preserve">
<g>
	<g>
		<g>
			<path fill="#58595B" d="M151.5,171.5c0,5.523-4.477,10-10,10h-130c-5.523,0-10-4.477-10-10v-160c0-5.523,4.477-10,10-10h130
				c5.523,0,10,4.477,10,10V171.5z"/>
		</g>
		<g>
			<g>
				<rect x="18.025" y="37.4" fill="#808285" width="53.261" height="60"/>
				<path fill="#414042" d="M72.786,98.9H16.525v-63h56.261V98.9z M19.525,95.9h50.261v-57H19.525V95.9z"/>
			</g>
			<g>
				<g>
					<g>
						<rect x="23.969" y="42.958" fill="#58595B" width="41.373" height="31.343"/>
						<path fill="#414042" d="M66.842,75.801H22.469V41.458h44.373V75.801z M25.469,72.801h38.373V44.458H25.469V72.801z"/>
					</g>
				</g>
				<g>
					<g>
						<polygon fill="#808285" points="34.981,47.825 35.015,57.209 46.969,69.163 56.356,59.777 44.401,47.823 						"/>
						<path fill="#414042" d="M46.969,71.284L33.518,57.833l-0.042-11.507l11.547-0.003l13.454,13.455L46.969,71.284z
							 M36.513,56.585l10.457,10.457l7.265-7.265L43.78,49.323l-7.294,0.002L36.513,56.585z"/>
					</g>
					<g>
						<circle fill="#58595B" cx="41.509" cy="54.317" r="2.607"/>
					</g>
				</g>
			</g>
			<g>
				<rect x="23.969" y="81.401" fill="#414042" width="41.373" height="3"/>
			</g>
			<g>
				<rect x="23.969" y="87.55" fill="#414042" width="26.866" height="3"/>
			</g>
		</g>
		<g>
			<g>
				<rect x="81.714" y="37.4" fill="#808285" width="53.261" height="60"/>
				<path fill="#414042" d="M136.475,98.9H80.214v-63h56.261V98.9z M83.214,95.9h50.261v-57H83.214V95.9z"/>
			</g>
			<g>
				<g>
					<g>
						<rect x="87.658" y="42.958" fill="#58595B" width="41.373" height="31.343"/>
						<path fill="#414042" d="M130.531,75.801H86.158V41.458h44.373V75.801z M89.158,72.801h38.373V44.458H89.158V72.801z"/>
					</g>
				</g>
				<g>
					<g>
						<polygon fill="#808285" points="98.669,47.825 98.704,57.209 110.658,69.163 120.044,59.777 108.09,47.823 						"/>
						<path fill="#414042" d="M110.658,71.284L97.206,57.833l-0.042-11.507l11.547-0.003l13.455,13.455L110.658,71.284z
							 M100.201,56.585l10.457,10.457l7.265-7.265l-10.454-10.455l-7.294,0.002L100.201,56.585z"/>
					</g>
					<g>
						<circle fill="#58595B" cx="105.198" cy="54.317" r="2.607"/>
					</g>
				</g>
			</g>
			<g>
				<rect x="87.658" y="81.401" fill="#414042" width="41.373" height="3"/>
			</g>
			<g>
				<rect x="87.658" y="87.55" fill="#414042" width="26.866" height="3"/>
			</g>
		</g>
		<g>
			<g>
				<rect x="18.025" y="107.4" fill="#808285" width="53.261" height="60"/>
				<path fill="#414042" d="M72.786,168.9H16.525v-63h56.261V168.9z M19.525,165.9h50.261v-57H19.525V165.9z"/>
			</g>
			<g>
				<g>
					<g>
						<rect x="23.969" y="112.958" fill="#58595B" width="41.373" height="31.343"/>
						<path fill="#414042" d="M66.842,145.801H22.469v-34.343h44.373V145.801z M25.469,142.801h38.373v-28.343H25.469V142.801z"/>
					</g>
				</g>
				<g>
					<g>
						<polygon fill="#808285" points="34.981,117.825 35.015,127.209 46.969,139.163 56.356,129.777 44.401,117.823 						"/>
						<path fill="#414042" d="M46.969,141.284l-13.452-13.452l-0.042-11.507l11.547-0.003l13.454,13.455L46.969,141.284z
							 M36.513,126.585l10.457,10.457l7.265-7.265L43.78,119.323l-7.294,0.002L36.513,126.585z"/>
					</g>
					<g>
						<circle fill="#58595B" cx="41.509" cy="124.317" r="2.607"/>
					</g>
				</g>
			</g>
			<g>
				<rect x="23.969" y="151.401" fill="#414042" width="41.373" height="3"/>
			</g>
			<g>
				<rect x="23.969" y="157.55" fill="#414042" width="26.866" height="3"/>
			</g>
		</g>
		<g>
			<g>
				<rect x="81.714" y="107.4" fill="#808285" width="53.261" height="60"/>
				<path fill="#414042" d="M136.475,168.9H80.214v-63h56.261V168.9z M83.214,165.9h50.261v-57H83.214V165.9z"/>
			</g>
			<g>
				<g>
					<g>
						<rect x="87.658" y="112.958" fill="#58595B" width="41.373" height="31.343"/>
						<path fill="#414042" d="M130.531,145.801H86.158v-34.343h44.373V145.801z M89.158,142.801h38.373v-28.343H89.158V142.801z"/>
					</g>
				</g>
				<g>
					<g>
						<polygon fill="#808285" points="98.669,117.825 98.704,127.209 110.658,139.163 120.044,129.777 108.09,117.823 						"/>
						<path fill="#414042" d="M110.658,141.284l-13.452-13.452l-0.042-11.507l11.547-0.003l13.455,13.455L110.658,141.284z
							 M100.201,126.585l10.457,10.457l7.265-7.265l-10.454-10.455l-7.294,0.002L100.201,126.585z"/>
					</g>
					<g>
						<circle fill="#58595B" cx="105.198" cy="124.317" r="2.607"/>
					</g>
				</g>
			</g>
			<g>
				<rect x="87.658" y="151.401" fill="#414042" width="41.373" height="3"/>
			</g>
			<g>
				<rect x="87.658" y="157.55" fill="#414042" width="26.866" height="3"/>
			</g>
		</g>
		<g>
			<g>
				<path fill="#414042" d="M141.5,183h-130C5.159,183,0,177.841,0,171.5v-160C0,5.159,5.159,0,11.5,0h130
					c6.341,0,11.5,5.159,11.5,11.5v160C153,177.841,147.841,183,141.5,183z M11.5,3C6.813,3,3,6.813,3,11.5v160
					c0,4.687,3.813,8.5,8.5,8.5h130c4.687,0,8.5-3.813,8.5-8.5v-160c0-4.687-3.813-8.5-8.5-8.5H11.5z"/>
			</g>
			<g>
				<rect x="1.5" y="20" fill="#414042" width="150" height="3"/>
			</g>
			<g>
				<circle fill="#808285" cx="12" cy="11.5" r="2.5"/>
			</g>
			<g>
				<circle fill="#808285" cx="20" cy="11.5" r="2.5"/>
			</g>
			<g>
				<circle fill="#808285" cx="28" cy="11.5" r="2.5"/>
			</g>
		</g>
	</g>
</g>
</svg>
