<?xml version="1.0" encoding="utf-8"?>
<!-- Generator: Adobe Illustrator 17.0.0, SVG Export Plug-In . SVG Version: 6.00 Build 0)  -->
<!DOCTYPE svg PUBLIC "-//W3C//DTD SVG 1.1//EN" "http://www.w3.org/Graphics/SVG/1.1/DTD/svg11.dtd">
<svg version="1.1" id="Layer_1" xmlns="http://www.w3.org/2000/svg" xmlns:xlink="http://www.w3.org/1999/xlink" x="0px" y="0px"
	 width="153px" height="183px" viewBox="0 0 153 183" enable-background="new 0 0 153 183" xml:space="preserve">
<g>
	<g>
		<g>
			<path fill="#58595B" d="M151.5,171.5c0,5.523-4.477,10-10,10h-130c-5.523,0-10-4.477-10-10v-160c0-5.523,4.477-10,10-10h130
				c5.523,0,10,4.477,10,10V171.5z"/>
		</g>
		<g>
			<rect x="36.5" y="142" fill="#808285" width="80" height="3"/>
		</g>
		<g>
			<rect x="46.5" y="152" fill="#808285" width="60" height="3"/>
		</g>
		<g>
			<path fill="#414042" d="M51.5,84.225c0-13.785,11.215-25,25-25c13.785,0,25,11.215,25,25s-11.215,25-25,25
				C62.715,109.225,51.5,98.01,51.5,84.225 M36.5,84.225c0,22.091,17.909,40,40,40s40-17.909,40-40c0-22.091-17.909-40-40-40
				S36.5,62.134,36.5,84.225L36.5,84.225z"/>
			<path fill="#414042" d="M76.5,125.726c-22.883,0-41.5-18.617-41.5-41.5s18.617-41.5,41.5-41.5s41.5,18.617,41.5,41.5
				S99.383,125.726,76.5,125.726z M76.5,45.726c-21.229,0-38.5,17.271-38.5,38.5s17.271,38.5,38.5,38.5s38.5-17.271,38.5-38.5
				S97.729,45.726,76.5,45.726z M76.5,110.726c-14.612,0-26.5-11.888-26.5-26.5s11.888-26.5,26.5-26.5s26.5,11.888,26.5,26.5
				S91.112,110.726,76.5,110.726z M76.5,60.726c-12.958,0-23.5,10.542-23.5,23.5s10.542,23.5,23.5,23.5s23.5-10.542,23.5-23.5
				S89.458,60.726,76.5,60.726z"/>
		</g>
		<g>
			<g>
				<path fill="#808285" d="M76.5,59.225c13.785,0,25,11.215,25,25c0,6.893-2.804,13.143-7.33,17.669l10.615,10.615
					c7.239-7.238,11.716-17.239,11.716-28.284c0-22.091-17.909-40-40-40V59.225z"/>
				<path fill="#414042" d="M104.784,114.631l-12.735-12.736l1.061-1.061C97.553,96.391,100,90.492,100,84.226
					c0-12.958-10.542-23.5-23.5-23.5H75v-18h1.5c22.883,0,41.5,18.617,41.5,41.5c0,11.086-4.316,21.508-12.155,29.345
					L104.784,114.631z M96.262,101.865l8.502,8.503C111.376,103.233,115,94.009,115,84.226c0-20.727-16.464-37.68-37-38.471v12.013
					c13.918,0.779,25,12.349,25,26.458C103,90.793,100.618,97,96.262,101.865z"/>
			</g>
		</g>
		<g>
			<g>
				<path fill="#414042" d="M141.5,183h-130C5.159,183,0,177.841,0,171.5v-160C0,5.159,5.159,0,11.5,0h130
					c6.341,0,11.5,5.159,11.5,11.5v160C153,177.841,147.841,183,141.5,183z M11.5,3C6.813,3,3,6.813,3,11.5v160
					c0,4.687,3.813,8.5,8.5,8.5h130c4.687,0,8.5-3.813,8.5-8.5v-160c0-4.687-3.813-8.5-8.5-8.5H11.5z"/>
			</g>
			<g>
				<rect x="1.5" y="20" fill="#414042" width="150" height="3"/>
			</g>
			<g>
				<circle fill="#808285" cx="12" cy="11.5" r="2.5"/>
			</g>
			<g>
				<circle fill="#808285" cx="20" cy="11.5" r="2.5"/>
			</g>
			<g>
				<circle fill="#808285" cx="28" cy="11.5" r="2.5"/>
			</g>
		</g>
	</g>
</g>
</svg>
