<?xml version="1.0" encoding="utf-8"?>
<!-- Generator: Adobe Illustrator 17.0.0, SVG Export Plug-In . SVG Version: 6.00 Build 0)  -->
<!DOCTYPE svg PUBLIC "-//W3C//DTD SVG 1.1//EN" "http://www.w3.org/Graphics/SVG/1.1/DTD/svg11.dtd">
<svg version="1.1" id="Layer_1" xmlns="http://www.w3.org/2000/svg" xmlns:xlink="http://www.w3.org/1999/xlink" x="0px" y="0px"
	 width="153px" height="183px" viewBox="0 0 153 183" enable-background="new 0 0 153 183" xml:space="preserve">
<g>
	<g>
		<g>
			<path fill="#58595B" d="M151.5,171.5c0,5.523-4.477,10-10,10h-130c-5.523,0-10-4.477-10-10v-160c0-5.523,4.477-10,10-10h130
				c5.523,0,10,4.477,10,10V171.5z"/>
		</g>
		<g>
			<g>
				<g>
					<g>
						<rect x="48.542" y="51.5" fill="#808285" width="55.915" height="90"/>
						<path fill="#414042" d="M105.957,143H47.042V50h58.915V143z M50.042,140h52.915V53H50.042V140z"/>
					</g>
					<g>
						<g>
							<rect x="66.181" y="104.489" fill="#414042" width="20.639" height="3"/>
						</g>
						<g>
							<rect x="55.181" y="124.702" fill="#58595B" width="42.639" height="11"/>
						</g>
					</g>
					<g>
						<rect x="48.638" y="116.83" fill="#414042" width="55.819" height="3"/>
					</g>
				</g>
				<g>
					<g>
						<path fill="#808285" d="M76.548,62c-9.258,0-16.764,7.505-16.764,16.764c0,4.93,2.129,9.363,5.517,12.43
							c2.974,2.693,6.919,4.334,11.247,4.334c4.328,0,8.273-1.641,11.247-4.334c3.388-3.067,5.517-7.5,5.517-12.43
							C93.311,69.505,85.806,62,76.548,62z"/>
					</g>
					<g>
						<g>
							<circle fill="#58595B" cx="76.548" cy="75.411" r="7.184"/>
							<path fill="#414042" d="M76.548,84.095c-4.789,0-8.685-3.896-8.685-8.684c0-4.789,3.896-8.685,8.685-8.685
								s8.685,3.896,8.685,8.685C85.232,80.199,81.337,84.095,76.548,84.095z M76.548,69.727c-3.135,0-5.685,2.55-5.685,5.685
								c0,3.134,2.55,5.684,5.685,5.684s5.685-2.55,5.685-5.684C82.232,72.276,79.683,69.727,76.548,69.727z"/>
						</g>
						<g>
							<path fill="#58595B" d="M76.548,82.595c-5.379,0-9.904,3.645-11.247,8.598c2.974,2.693,6.919,4.334,11.247,4.334
								c4.328,0,8.273-1.641,11.247-4.334C86.452,86.24,81.926,82.595,76.548,82.595z"/>
							<path fill="#414042" d="M76.548,97.027c-4.539,0-8.891-1.677-12.254-4.722l-0.682-0.617l0.241-0.888
								c1.549-5.715,6.77-9.706,12.694-9.706s11.146,3.991,12.694,9.706l0.241,0.888l-0.682,0.617
								C85.438,95.351,81.087,97.027,76.548,97.027z M67.033,90.699c2.697,2.152,6.04,3.328,9.515,3.328s6.817-1.176,9.515-3.328
								c-1.466-3.932-5.254-6.604-9.515-6.604S68.499,86.768,67.033,90.699z"/>
						</g>
					</g>
					<g>
						<path fill="#414042" d="M76.548,97.027c-4.539,0-8.891-1.677-12.254-4.722c-3.819-3.459-6.01-8.395-6.01-13.542
							c0-10.07,8.193-18.264,18.264-18.264s18.264,8.193,18.264,18.264c0,5.147-2.19,10.083-6.01,13.542
							C85.438,95.351,81.087,97.027,76.548,97.027z M76.548,63.5c-8.416,0-15.264,6.848-15.264,15.264
							c0,4.302,1.831,8.427,5.023,11.317c2.811,2.545,6.447,3.946,10.24,3.946s7.43-1.401,10.24-3.946
							c3.192-2.891,5.023-7.016,5.023-11.317C91.812,70.348,84.964,63.5,76.548,63.5z"/>
					</g>
				</g>
			</g>
			<g>
				<g>
					<path fill="#808285" d="M125.295,68.763c0,4.93,2.129,9.363,5.517,12.43c1.343-4.954,5.868-8.598,11.247-8.598
						c-3.968,0-7.185-3.217-7.185-7.185c0-3.968,3.217-7.184,7.185-7.184c3.968,0,7.184,3.217,7.184,7.184
						c0,3.968-3.217,7.185-7.184,7.185c3.889,0,7.325,1.911,9.441,4.839V54.914C148.81,53.077,145.561,52,142.058,52
						C132.8,52,125.295,59.505,125.295,68.763z"/>
				</g>
				<g>
					<path fill="#808285" d="M120.691,120.202H151.5V108.33h-37.351H151.5v-12.34h-19.808H151.5V82.596
						c-2.691,1.841-5.935,2.931-9.441,2.931c-4.328,0-8.273-1.641-11.247-4.334c-3.388-3.067-5.517-7.5-5.517-12.43
						c0-9.258,7.505-16.764,16.764-16.764c3.503,0,6.752,1.077,9.441,2.915V41.5h-37.447v90H151.5v-11.298H120.691z"/>
					<path fill="#414042" d="M153,133h-40.447V40H153v17.755l-2.346-1.603c-2.541-1.735-5.514-2.652-8.596-2.652
						c-8.416,0-15.264,6.848-15.264,15.264c0,4.302,1.831,8.427,5.023,11.317c2.811,2.545,6.447,3.946,10.24,3.946
						c3.068,0,6.041-0.923,8.595-2.669L153,79.754V133z M115.553,130H150v-8.298h-29.309v-3H150v-8.872h-34.447V130z
						 M115.553,106.83H150v-9.341h-18.309v-3H150v-9.29c-2.471,1.201-5.173,1.828-7.941,1.828c-4.539,0-8.891-1.677-12.254-4.722
						c-3.819-3.459-6.01-8.395-6.01-13.542c0-10.07,8.193-18.264,18.264-18.264c2.776,0,5.478,0.622,7.941,1.815V43h-34.447V106.83z
						"/>
				</g>
				<g>
					<circle fill="#58595B" cx="142.058" cy="65.411" r="7.185"/>
					<path fill="#414042" d="M142.059,74.096c-4.789,0-8.685-3.896-8.685-8.685s3.896-8.685,8.685-8.685s8.685,3.896,8.685,8.685
						S146.848,74.096,142.059,74.096z M142.059,59.727c-3.135,0-5.685,2.55-5.685,5.685s2.55,5.685,5.685,5.685
						s5.685-2.55,5.685-5.685S145.193,59.727,142.059,59.727z"/>
				</g>
				<g>
					<path fill="#58595B" d="M142.058,72.595c-5.379,0-9.904,3.645-11.247,8.598c2.974,2.693,6.919,4.334,11.247,4.334
						c3.506,0,6.751-1.09,9.441-2.931v-5.162C149.383,74.506,145.948,72.595,142.058,72.595z"/>
					<path fill="#414042" d="M142.059,87.027c-4.539,0-8.891-1.677-12.254-4.722l-0.682-0.617l0.241-0.888
						c1.549-5.714,6.769-9.705,12.694-9.705c4.202,0,8.186,2.041,10.657,5.46L153,76.949v6.439l-0.653,0.446
						C149.291,85.924,145.734,87.027,142.059,87.027z M132.544,80.699c2.697,2.152,6.04,3.328,9.515,3.328
						c2.811,0,5.54-0.774,7.941-2.246v-3.843c-1.922-2.415-4.855-3.843-7.941-3.843C137.798,74.096,134.01,76.768,132.544,80.699z"
						/>
				</g>
			</g>
			<g>
				<g>
					<path fill="#808285" d="M27.705,68.763c0,4.93-2.129,9.363-5.517,12.43c-1.343-4.954-5.868-8.598-11.247-8.598
						c3.968,0,7.184-3.217,7.184-7.185c0-3.968-3.217-7.184-7.184-7.184c-3.968,0-7.185,3.217-7.185,7.184
						c0,3.968,3.217,7.185,7.185,7.185c-3.889,0-7.325,1.911-9.441,4.839V54.914C4.189,53.077,7.439,52,10.941,52
						C20.2,52,27.705,59.505,27.705,68.763z"/>
				</g>
				<g>
					<path fill="#808285" d="M32.308,120.202H1.5V108.33h37.351H1.5v-12.34h19.808H1.5V82.596c2.691,1.841,5.935,2.931,9.441,2.931
						c4.328,0,8.273-1.641,11.247-4.334c3.388-3.067,5.517-7.5,5.517-12.43C27.705,59.505,20.2,52,10.941,52
						c-3.503,0-6.752,1.077-9.441,2.915V41.5h37.447v90H1.5v-11.298H32.308z"/>
					<path fill="#414042" d="M40.446,133H0V79.754l2.347,1.604c2.553,1.746,5.525,2.669,8.595,2.669c3.793,0,7.43-1.401,10.24-3.946
						c3.192-2.891,5.023-7.016,5.023-11.317c0-8.416-6.848-15.264-15.264-15.264c-3.082,0-6.055,0.917-8.596,2.652L0,57.755V40
						h40.446V133z M3,130h34.446v-20.17H3v8.872h29.309v3H3V130z M3,106.83h34.446V43H3v9.315c2.464-1.193,5.165-1.815,7.941-1.815
						c10.07,0,18.264,8.193,18.264,18.264c0,5.147-2.19,10.083-6.01,13.542c-3.363,3.045-7.715,4.722-12.254,4.722
						c-2.77,0-5.472-0.626-7.941-1.828v9.29h18.309v3H3V106.83z"/>
				</g>
				<g>
					<circle fill="#58595B" cx="10.941" cy="65.411" r="7.185"/>
					<path fill="#414042" d="M10.941,74.096c-4.789,0-8.685-3.896-8.685-8.685s3.896-8.685,8.685-8.685s8.685,3.896,8.685,8.685
						S15.73,74.096,10.941,74.096z M10.941,59.727c-3.135,0-5.685,2.55-5.685,5.685s2.55,5.685,5.685,5.685s5.685-2.55,5.685-5.685
						S14.076,59.727,10.941,59.727z"/>
				</g>
				<g>
					<path fill="#58595B" d="M10.941,72.595c5.379,0,9.904,3.645,11.247,8.598c-2.974,2.693-6.919,4.334-11.247,4.334
						c-3.506,0-6.751-1.09-9.441-2.931v-5.162C3.616,74.506,7.052,72.595,10.941,72.595z"/>
					<path fill="#414042" d="M10.941,87.027c-3.677,0-7.234-1.104-10.288-3.192L0,83.388v-6.438l0.284-0.394
						c2.472-3.419,6.455-5.46,10.657-5.46c5.924,0,11.145,3.991,12.694,9.705l0.241,0.888l-0.682,0.617
						C19.832,85.351,15.48,87.027,10.941,87.027z M3,81.782c2.4,1.471,5.13,2.245,7.941,2.245c3.475,0,6.817-1.176,9.515-3.328
						c-1.467-3.931-5.255-6.604-9.515-6.604c-3.086,0-6.02,1.428-7.941,3.843V81.782z"/>
				</g>
			</g>
			<g>
				<g>
					<circle fill="#808285" cx="76.5" cy="163" r="3.5"/>
				</g>
				<g>
					<circle fill="#808285" cx="90.5" cy="163" r="3.5"/>
				</g>
				<g>
					<circle fill="#808285" cx="62.5" cy="163" r="3.5"/>
				</g>
			</g>
		</g>
		<g>
			<g>
				<path fill="#414042" d="M141.5,183h-130C5.159,183,0,177.841,0,171.5v-160C0,5.159,5.159,0,11.5,0h130
					c6.341,0,11.5,5.159,11.5,11.5v160C153,177.841,147.841,183,141.5,183z M11.5,3C6.813,3,3,6.813,3,11.5v160
					c0,4.687,3.813,8.5,8.5,8.5h130c4.687,0,8.5-3.813,8.5-8.5v-160c0-4.687-3.813-8.5-8.5-8.5H11.5z"/>
			</g>
			<g>
				<rect x="1.5" y="20" fill="#414042" width="150" height="3"/>
			</g>
			<g>
				<circle fill="#808285" cx="12" cy="11.5" r="2.5"/>
			</g>
			<g>
				<circle fill="#808285" cx="20" cy="11.5" r="2.5"/>
			</g>
			<g>
				<circle fill="#808285" cx="28" cy="11.5" r="2.5"/>
			</g>
		</g>
	</g>
</g>
</svg>
