<?xml version="1.0" encoding="utf-8"?>
<!-- Generator: Adobe Illustrator 17.0.0, SVG Export Plug-In . SVG Version: 6.00 Build 0)  -->
<!DOCTYPE svg PUBLIC "-//W3C//DTD SVG 1.1//EN" "http://www.w3.org/Graphics/SVG/1.1/DTD/svg11.dtd">
<svg version="1.1" id="Layer_1" xmlns="http://www.w3.org/2000/svg" xmlns:xlink="http://www.w3.org/1999/xlink" x="0px" y="0px"
	 width="153px" height="183px" viewBox="0 0 153 183" enable-background="new 0 0 153 183" xml:space="preserve">
<g>
	<g>
		<g>
			<path fill="#58595B" d="M151.5,171.5c0,5.523-4.477,10-10,10h-130c-5.523,0-10-4.477-10-10v-160c0-5.523,4.477-10,10-10h130
				c5.523,0,10,4.477,10,10V171.5z"/>
		</g>
		<g>
			<g>
				<rect x="32.116" y="48.25" fill="#808285" width="88.768" height="100"/>
				<path fill="#414042" d="M122.384,149.751H30.615v-103h91.769V149.751z M33.615,146.751h85.769v-97H33.615V146.751z"/>
			</g>
			<g>
				<g>
					<g>
						<rect x="42.023" y="57.514" fill="#58595B" width="68.955" height="52.239"/>
						<path fill="#414042" d="M112.478,111.252H40.522V56.014h71.955V111.252z M43.522,108.252h65.955V59.014H43.522V108.252z"/>
					</g>
				</g>
				<g>
					<polygon fill="#808285" points="71.311,71.875 71.311,95.875 88.964,83.875 					"/>
					<path fill="#414042" d="M69.812,98.708V69.042l21.82,14.833L69.812,98.708z M72.812,74.708v18.333l13.484-9.167L72.812,74.708z
						"/>
				</g>
			</g>
			<g>
				<rect x="42.022" y="122.586" fill="#414042" width="68.955" height="3"/>
			</g>
			<g>
				<rect x="42.022" y="132.834" fill="#414042" width="44.776" height="3"/>
			</g>
		</g>
		<g>
			<g>
				<path fill="#414042" d="M141.5,183h-130C5.159,183,0,177.841,0,171.5v-160C0,5.159,5.159,0,11.5,0h130
					c6.341,0,11.5,5.159,11.5,11.5v160C153,177.841,147.841,183,141.5,183z M11.5,3C6.813,3,3,6.813,3,11.5v160
					c0,4.687,3.813,8.5,8.5,8.5h130c4.687,0,8.5-3.813,8.5-8.5v-160c0-4.687-3.813-8.5-8.5-8.5H11.5z"/>
			</g>
			<g>
				<rect x="1.5" y="20" fill="#414042" width="150" height="3"/>
			</g>
			<g>
				<circle fill="#808285" cx="12" cy="11.5" r="2.5"/>
			</g>
			<g>
				<circle fill="#808285" cx="20" cy="11.5" r="2.5"/>
			</g>
			<g>
				<circle fill="#808285" cx="28" cy="11.5" r="2.5"/>
			</g>
		</g>
	</g>
</g>
</svg>
