<?xml version="1.0" encoding="utf-8"?>
<!-- Generator: Adobe Illustrator 17.0.0, SVG Export Plug-In . SVG Version: 6.00 Build 0)  -->
<!DOCTYPE svg PUBLIC "-//W3C//DTD SVG 1.1//EN" "http://www.w3.org/Graphics/SVG/1.1/DTD/svg11.dtd">
<svg version="1.1" id="Layer_1" xmlns="http://www.w3.org/2000/svg" xmlns:xlink="http://www.w3.org/1999/xlink" x="0px" y="0px"
	 width="153px" height="183px" viewBox="0 0 153 183" enable-background="new 0 0 153 183" xml:space="preserve">
<g>
	<g>
		<g>
			<path fill="#58595B" d="M151.5,171.5c0,5.523-4.477,10-10,10h-130c-5.523,0-10-4.477-10-10v-160c0-5.523,4.477-10,10-10h130
				c5.523,0,10,4.477,10,10V171.5z"/>
		</g>
		<g>
			<polygon fill="#808285" points="17.025,168.5 135.975,168.5 135.975,50.5 58.5,50.5 58.5,34.5 17.025,34.5 			"/>
			<path fill="#414042" d="M137.475,170H15.525V33H60v16h77.475V170z M18.525,167h115.949V52H57V36H18.525V167z"/>
		</g>
		<g>
			<rect x="67.5" y="34.5" fill="#414042" width="37.333" height="16"/>
			<path fill="#414042" d="M106.333,52H66V33h40.333V52z M69,49h34.333V36H69V49z"/>
		</g>
		<g>
			<g>
				<rect x="37.025" y="68" fill="#414042" width="78.949" height="3"/>
			</g>
			<g>
				<rect x="37.025" y="78" fill="#414042" width="78.949" height="3"/>
			</g>
			<g>
				<rect x="37.025" y="88" fill="#414042" width="78.949" height="3"/>
			</g>
			<g>
				<rect x="37.025" y="98" fill="#414042" width="78.949" height="3"/>
			</g>
			<g>
				<rect x="37.025" y="108" fill="#414042" width="78.949" height="3"/>
			</g>
			<g>
				<rect x="37.025" y="118" fill="#414042" width="78.949" height="3"/>
			</g>
			<g>
				<rect x="37.025" y="128" fill="#414042" width="78.949" height="3"/>
			</g>
			<g>
				<rect x="37.025" y="138" fill="#414042" width="78.949" height="3"/>
			</g>
			<g>
				<rect x="37.025" y="148" fill="#414042" width="48.949" height="3"/>
			</g>
		</g>
		<g>
			<g>
				<path fill="#414042" d="M141.5,183h-130C5.159,183,0,177.841,0,171.5v-160C0,5.159,5.159,0,11.5,0h130
					c6.341,0,11.5,5.159,11.5,11.5v160C153,177.841,147.841,183,141.5,183z M11.5,3C6.813,3,3,6.813,3,11.5v160
					c0,4.687,3.813,8.5,8.5,8.5h130c4.687,0,8.5-3.813,8.5-8.5v-160c0-4.687-3.813-8.5-8.5-8.5H11.5z"/>
			</g>
			<g>
				<rect x="1.5" y="20" fill="#414042" width="150" height="3"/>
			</g>
			<g>
				<circle fill="#808285" cx="12" cy="11.5" r="2.5"/>
			</g>
			<g>
				<circle fill="#808285" cx="20" cy="11.5" r="2.5"/>
			</g>
			<g>
				<circle fill="#808285" cx="28" cy="11.5" r="2.5"/>
			</g>
		</g>
	</g>
</g>
</svg>
