<?xml version="1.0" encoding="utf-8"?>
<!-- Generator: Adobe Illustrator 17.0.0, SVG Export Plug-In . SVG Version: 6.00 Build 0)  -->
<!DOCTYPE svg PUBLIC "-//W3C//DTD SVG 1.1//EN" "http://www.w3.org/Graphics/SVG/1.1/DTD/svg11.dtd">
<svg version="1.1" id="Layer_1" xmlns="http://www.w3.org/2000/svg" xmlns:xlink="http://www.w3.org/1999/xlink" x="0px" y="0px"
	 width="153px" height="183px" viewBox="0 0 153 183" enable-background="new 0 0 153 183" xml:space="preserve">
<g>
	<g>
		<g>
			<path fill="#58595B" d="M151.5,171.5c0,5.523-4.477,10-10,10h-130c-5.523,0-10-4.477-10-10v-160c0-5.523,4.477-10,10-10h130
				c5.523,0,10,4.477,10,10V171.5z"/>
		</g>
		<g>
			<g>
				<g>
					<g>
						<g>
							<rect x="62" y="54.833" fill="#808285" width="75.5" height="3"/>
						</g>
						<g>
							<rect x="62" y="64.833" fill="#808285" width="75.5" height="3"/>
						</g>
						<g>
							<path fill="none" stroke="#808285" stroke-width="3" stroke-miterlimit="10" d="M117.5,76.334"/>
						</g>
						<g>
							<path fill="none" stroke="#808285" stroke-width="3" stroke-miterlimit="10" d="M62,76.334"/>
						</g>
						<g>
							<rect x="62" y="74.833" fill="#808285" width="65.5" height="3"/>
						</g>
					</g>
					<g>
						<g>
							<g>
								<rect x="15" y="48.251" fill="#808285" width="40" height="36.166"/>
								<path fill="#414042" d="M56.5,85.917h-43V46.75h43V85.917z M16.5,82.917h37V49.75h-37V82.917z"/>
							</g>
						</g>
						<g>
							<polygon fill="#414042" points="15.935,79.782 13.813,77.661 28.627,62.849 39.779,74.001 47.871,65.909 56.186,74.224 
								54.064,76.345 47.871,70.151 39.779,78.243 28.627,67.091 							"/>
						</g>
						<g>
							<path fill="#414042" d="M40.813,64.954c-3.047,0-5.525-2.479-5.525-5.525s2.479-5.525,5.525-5.525s5.525,2.479,5.525,5.525
								S43.86,64.954,40.813,64.954z M40.813,56.904c-1.393,0-2.525,1.133-2.525,2.525s1.133,2.525,2.525,2.525
								s2.525-1.133,2.525-2.525S42.206,56.904,40.813,56.904z"/>
						</g>
					</g>
				</g>
				<g>
					<g>
						<g>
							<rect x="62" y="140.167" fill="#808285" width="75.5" height="3"/>
						</g>
						<g>
							<rect x="62" y="150.167" fill="#808285" width="75.5" height="3"/>
						</g>
						<g>
							<path fill="none" stroke="#808285" stroke-width="3" stroke-miterlimit="10" d="M117.5,161.667"/>
						</g>
						<g>
							<path fill="none" stroke="#808285" stroke-width="3" stroke-miterlimit="10" d="M62,161.667"/>
						</g>
						<g>
							<rect x="62" y="160.167" fill="#808285" width="65.5" height="3"/>
						</g>
					</g>
					<g>
						<g>
							<g>
								<rect x="15" y="133.584" fill="#808285" width="40" height="36.166"/>
								<path fill="#414042" d="M56.5,171.25h-43v-39.166h43V171.25z M16.5,168.25h37v-33.166h-37V168.25z"/>
							</g>
						</g>
						<g>
							<polygon fill="#414042" points="15.935,165.116 13.813,162.995 28.627,148.182 39.779,159.334 47.871,151.242 
								56.186,159.557 54.064,161.678 47.871,155.484 39.779,163.576 28.627,152.424 							"/>
						</g>
						<g>
							<path fill="#414042" d="M40.813,150.287c-3.047,0-5.525-2.479-5.525-5.525c0-3.046,2.479-5.524,5.525-5.524
								s5.525,2.479,5.525,5.524C46.339,147.809,43.86,150.287,40.813,150.287z M40.813,142.237c-1.393,0-2.525,1.133-2.525,2.524
								c0,1.393,1.133,2.525,2.525,2.525s2.525-1.133,2.525-2.525C43.339,143.37,42.206,142.237,40.813,142.237z"/>
						</g>
					</g>
				</g>
				<g>
					<g>
						<g>
							<rect x="62" y="97.5" fill="#808285" width="75.5" height="3"/>
						</g>
						<g>
							<rect x="62" y="107.5" fill="#808285" width="75.5" height="3"/>
						</g>
						<g>
							<path fill="none" stroke="#808285" stroke-width="3" stroke-miterlimit="10" d="M117.5,119"/>
						</g>
						<g>
							<path fill="none" stroke="#808285" stroke-width="3" stroke-miterlimit="10" d="M62,119"/>
						</g>
						<g>
							<rect x="62" y="117.5" fill="#808285" width="65.5" height="3"/>
						</g>
					</g>
					<g>
						<g>
							<g>
								<rect x="15" y="90.917" fill="#808285" width="40" height="36.166"/>
								<path fill="#414042" d="M56.5,128.583h-43V89.417h43V128.583z M16.5,125.583h37V92.417h-37V125.583z"/>
							</g>
						</g>
						<g>
							<polygon fill="#414042" points="15.935,122.449 13.813,120.328 28.627,105.516 39.779,116.668 47.871,108.576 
								56.186,116.891 54.064,119.012 47.871,112.818 39.779,120.91 28.627,109.758 							"/>
						</g>
						<g>
							<path fill="#414042" d="M40.813,107.62c-3.047,0-5.525-2.479-5.525-5.524c0-3.047,2.479-5.525,5.525-5.525
								s5.525,2.479,5.525,5.525C46.339,105.142,43.86,107.62,40.813,107.62z M40.813,99.57c-1.393,0-2.525,1.133-2.525,2.525
								c0,1.392,1.133,2.524,2.525,2.524s2.525-1.133,2.525-2.524C43.339,100.703,42.206,99.57,40.813,99.57z"/>
						</g>
					</g>
				</g>
			</g>
			<g opacity="0.8">
				<path fill="#414042" d="M151.5,21.5v150c0,5.523-4.477,10-10,10h-130c-5.523,0-10-4.477-10-10v-150"/>
			</g>
			<g>
				<rect x="13.5" y="30.281" fill="#414042" width="126" height="11.469"/>
			</g>
		</g>
		<g>
			<g>
				<rect x="32.116" y="48.25" fill="#808285" width="88.768" height="100"/>
				<path fill="#414042" d="M122.384,149.751H30.615v-103h91.769V149.751z M33.615,146.751h85.769v-97H33.615V146.751z"/>
			</g>
			<g>
				<g>
					<g>
						<rect x="42.023" y="57.514" fill="#58595B" width="68.955" height="52.239"/>
						<path fill="#414042" d="M112.478,111.252H40.522V56.014h71.955V111.252z M43.522,108.252h65.955V59.014H43.522V108.252z"/>
					</g>
				</g>
				<g>
					<polygon fill="#414042" points="48.491,102.587 46.37,100.466 67.295,79.542 83.403,95.65 95.092,83.962 106.63,95.5 
						104.509,97.621 95.092,88.205 83.403,99.893 67.295,83.784 					"/>
				</g>
				<g>
					<path fill="#414042" d="M84.897,80.973c-4.033,0-7.314-3.281-7.314-7.314s3.281-7.313,7.314-7.313
						c4.032,0,7.313,3.281,7.313,7.313S88.93,80.973,84.897,80.973z M84.897,69.346c-2.379,0-4.314,1.935-4.314,4.313
						c0,2.379,1.936,4.314,4.314,4.314s4.313-1.935,4.313-4.314C89.211,71.281,87.276,69.346,84.897,69.346z"/>
				</g>
			</g>
			<g>
				<rect x="42.022" y="122.586" fill="#414042" width="68.955" height="3"/>
			</g>
			<g>
				<rect x="42.022" y="132.834" fill="#414042" width="44.776" height="3"/>
			</g>
		</g>
		<g>
			<g>
				<path fill="#414042" d="M141.5,183h-130C5.159,183,0,177.841,0,171.5v-160C0,5.159,5.159,0,11.5,0h130
					c6.341,0,11.5,5.159,11.5,11.5v160C153,177.841,147.841,183,141.5,183z M11.5,3C6.813,3,3,6.813,3,11.5v160
					c0,4.687,3.813,8.5,8.5,8.5h130c4.687,0,8.5-3.813,8.5-8.5v-160c0-4.687-3.813-8.5-8.5-8.5H11.5z"/>
			</g>
			<g>
				<rect x="1.5" y="20" fill="#414042" width="150" height="3"/>
			</g>
			<g>
				<circle fill="#808285" cx="12" cy="11.5" r="2.5"/>
			</g>
			<g>
				<circle fill="#808285" cx="20" cy="11.5" r="2.5"/>
			</g>
			<g>
				<circle fill="#808285" cx="28" cy="11.5" r="2.5"/>
			</g>
		</g>
	</g>
</g>
</svg>
