<?xml version="1.0" encoding="utf-8"?>
<!-- Generator: Adobe Illustrator 17.0.0, SVG Export Plug-In . SVG Version: 6.00 Build 0)  -->
<!DOCTYPE svg PUBLIC "-//W3C//DTD SVG 1.1//EN" "http://www.w3.org/Graphics/SVG/1.1/DTD/svg11.dtd">
<svg version="1.1" id="Layer_1" xmlns="http://www.w3.org/2000/svg" xmlns:xlink="http://www.w3.org/1999/xlink" x="0px" y="0px"
	 width="153px" height="183px" viewBox="0 0 153 183" enable-background="new 0 0 153 183" xml:space="preserve">
<g>
	<g>
		<g>
			<path fill="#58595B" d="M151.5,171.5c0,5.523-4.477,10-10,10h-130c-5.523,0-10-4.477-10-10v-160c0-5.523,4.477-10,10-10h130
				c5.523,0,10,4.477,10,10V171.5z"/>
		</g>
		<g>
			<path fill="#414042" d="M118.259,104.717L83.487,48.462c-1.497-2.421-4.14-3.895-6.987-3.895c-2.847,0-5.49,1.474-6.987,3.895
				l-34.772,56.255c-1.566,2.534-1.637,5.717-0.187,8.318c1.45,2.602,4.196,4.214,7.174,4.214h69.544
				c2.979,0,5.724-1.613,7.174-4.214C119.897,110.434,119.825,107.251,118.259,104.717z"/>
		</g>
		<g>
			<rect x="36.5" y="142" fill="#808285" width="80" height="3"/>
		</g>
		<g>
			<rect x="46.5" y="152" fill="#808285" width="60" height="3"/>
		</g>
		<g>
			<g>
				<rect x="74.5" y="72.438" fill="#808285" width="4" height="17.125"/>
			</g>
			<g>
				<rect x="74.5" y="95.563" fill="#808285" width="4" height="5"/>
			</g>
		</g>
		<g>
			<g>
				<path fill="#414042" d="M141.5,183h-130C5.159,183,0,177.841,0,171.5v-160C0,5.159,5.159,0,11.5,0h130
					c6.341,0,11.5,5.159,11.5,11.5v160C153,177.841,147.841,183,141.5,183z M11.5,3C6.813,3,3,6.813,3,11.5v160
					c0,4.687,3.813,8.5,8.5,8.5h130c4.687,0,8.5-3.813,8.5-8.5v-160c0-4.687-3.813-8.5-8.5-8.5H11.5z"/>
			</g>
			<g>
				<rect x="1.5" y="20" fill="#414042" width="150" height="3"/>
			</g>
			<g>
				<circle fill="#808285" cx="12" cy="11.5" r="2.5"/>
			</g>
			<g>
				<circle fill="#808285" cx="20" cy="11.5" r="2.5"/>
			</g>
			<g>
				<circle fill="#808285" cx="28" cy="11.5" r="2.5"/>
			</g>
		</g>
	</g>
</g>
</svg>
