<?xml version="1.0" encoding="utf-8"?>
<!-- Generator: Adobe Illustrator 17.0.0, SVG Export Plug-In . SVG Version: 6.00 Build 0)  -->
<!DOCTYPE svg PUBLIC "-//W3C//DTD SVG 1.1//EN" "http://www.w3.org/Graphics/SVG/1.1/DTD/svg11.dtd">
<svg version="1.1" id="Layer_1" xmlns="http://www.w3.org/2000/svg" xmlns:xlink="http://www.w3.org/1999/xlink" x="0px" y="0px"
	 width="153px" height="183px" viewBox="0 0 153 183" enable-background="new 0 0 153 183" xml:space="preserve">
<g>
	<g>
		<g>
			<path fill="#58595B" d="M151.5,171.5c0,5.523-4.477,10-10,10h-130c-5.523,0-10-4.477-10-10v-160c0-5.523,4.477-10,10-10h130
				c5.523,0,10,4.477,10,10V171.5z"/>
		</g>
		<g>
			<rect x="36.5" y="142" fill="#808285" width="80" height="3"/>
		</g>
		<g>
			<rect x="46.5" y="152" fill="#808285" width="60" height="3"/>
		</g>
		<g>
			<g>
				<g>
					<circle fill="#414042" cx="76.5" cy="113.5" r="15"/>
				</g>
				<g>
					<g>
						
							<rect x="75" y="107.445" transform="matrix(0.7071 0.7071 -0.7071 0.7071 102.663 -20.8503)" fill="#808285" width="3" height="12.109"/>
					</g>
					<g>
						
							<rect x="70.445" y="112" transform="matrix(0.7071 0.7071 -0.7071 0.7071 102.663 -20.8503)" fill="#808285" width="12.109" height="3"/>
					</g>
				</g>
			</g>
		</g>
		<g>
			<path fill="#808285" d="M30.54,73.149c0-0.9,0.18-1.439,0.899-3l12.3-26.519c0.54-1.14,1.319-1.74,2.34-1.74
				c1.319,0,2.399,0.96,2.399,2.4c0,0.36-0.119,0.84-0.3,1.2L36.419,70.87v0.12h10.8c0.24,0,0.36-0.12,0.36-0.36v-8.52
				c0-1.68,1.08-2.64,2.52-2.64c1.44,0,2.521,0.96,2.521,2.64v8.52c0,0.24,0.119,0.36,0.359,0.36h2.4c1.5,0,2.46,0.96,2.46,2.34
				c0,1.32-0.96,2.28-2.46,2.28h-2.4c-0.24,0-0.359,0.12-0.359,0.36v4.68c0,1.62-1.08,2.64-2.521,2.64c-1.439,0-2.52-1.02-2.52-2.64
				v-4.68c0-0.24-0.12-0.36-0.36-0.36H33.18C31.5,75.609,30.54,74.59,30.54,73.149z"/>
			<path fill="#808285" d="M64.439,62.59c0-9.6,0.42-11.759,0.899-13.319c1.62-4.979,5.52-7.74,11.16-7.74
				c5.64,0,9.539,2.76,11.159,7.74c0.479,1.56,0.9,3.72,0.9,13.319s-0.421,11.76-0.9,13.32c-1.62,4.979-5.52,7.74-11.159,7.74
				c-5.641,0-9.54-2.76-11.16-7.74C64.859,74.35,64.439,72.189,64.439,62.59z M76.499,78.969c2.999,0,5.22-1.38,6.18-4.08
				c0.42-1.26,0.659-3,0.659-12.3c0-9.299-0.239-11.039-0.659-12.299c-0.96-2.7-3.181-4.08-6.18-4.08c-3,0-5.22,1.38-6.181,4.08
				c-0.42,1.26-0.659,3-0.659,12.299c0,9.3,0.239,11.04,0.659,12.3C71.279,77.589,73.499,78.969,76.499,78.969z"/>
			<path fill="#808285" d="M96.959,62.59c0-9.6,0.42-11.759,0.899-13.319c1.62-4.979,5.52-7.74,11.16-7.74
				c5.64,0,9.539,2.76,11.159,7.74c0.479,1.56,0.9,3.72,0.9,13.319s-0.421,11.76-0.9,13.32c-1.62,4.979-5.52,7.74-11.159,7.74
				c-5.641,0-9.54-2.76-11.16-7.74C97.379,74.35,96.959,72.189,96.959,62.59z M109.019,78.969c2.999,0,5.22-1.38,6.18-4.08
				c0.42-1.26,0.659-3,0.659-12.3c0-9.299-0.239-11.039-0.659-12.299c-0.96-2.7-3.181-4.08-6.18-4.08c-3,0-5.22,1.38-6.181,4.08
				c-0.42,1.26-0.659,3-0.659,12.299c0,9.3,0.239,11.04,0.659,12.3C103.799,77.589,106.019,78.969,109.019,78.969z"/>
		</g>
		<g>
			<g>
				<path fill="#414042" d="M141.5,183h-130C5.159,183,0,177.841,0,171.5v-160C0,5.159,5.159,0,11.5,0h130
					c6.341,0,11.5,5.159,11.5,11.5v160C153,177.841,147.841,183,141.5,183z M11.5,3C6.813,3,3,6.813,3,11.5v160
					c0,4.687,3.813,8.5,8.5,8.5h130c4.687,0,8.5-3.813,8.5-8.5v-160c0-4.687-3.813-8.5-8.5-8.5H11.5z"/>
			</g>
			<g>
				<rect x="1.5" y="20" fill="#414042" width="150" height="3"/>
			</g>
			<g>
				<circle fill="#808285" cx="12" cy="11.5" r="2.5"/>
			</g>
			<g>
				<circle fill="#808285" cx="20" cy="11.5" r="2.5"/>
			</g>
			<g>
				<circle fill="#808285" cx="28" cy="11.5" r="2.5"/>
			</g>
		</g>
	</g>
</g>
</svg>
