<?xml version="1.0" encoding="utf-8"?>
<!-- Generator: Adobe Illustrator 17.0.0, SVG Export Plug-In . SVG Version: 6.00 Build 0)  -->
<!DOCTYPE svg PUBLIC "-//W3C//DTD SVG 1.1//EN" "http://www.w3.org/Graphics/SVG/1.1/DTD/svg11.dtd">
<svg version="1.1" id="Layer_1" xmlns="http://www.w3.org/2000/svg" xmlns:xlink="http://www.w3.org/1999/xlink" x="0px" y="0px"
	 width="153px" height="183px" viewBox="0 0 153 183" enable-background="new 0 0 153 183" xml:space="preserve">
<g>
	<g>
		<g>
			<path fill="#58595B" d="M151.5,171.5c0,5.523-4.477,10-10,10h-130c-5.523,0-10-4.477-10-10v-160c0-5.523,4.477-10,10-10h130
				c5.523,0,10,4.477,10,10V171.5z"/>
		</g>
		<g>
			<rect x="17.025" y="31.5" fill="#414042" width="118.95" height="96.75"/>
		</g>
		<g>
			<rect x="36.5" y="142" fill="#808285" width="80" height="3"/>
		</g>
		<g>
			<rect x="46.5" y="152" fill="#808285" width="60" height="3"/>
		</g>
		<g>
			<g>
				<polygon fill="#808285" points="110.525,85.011 99.803,74.288 101.924,72.167 110.525,80.769 123.864,67.43 125.985,69.551 				
					"/>
			</g>
			<g>
				<polygon fill="#808285" points="74.665,95.795 58.917,80.048 61.039,77.927 74.665,91.553 94.051,72.167 96.172,74.288 				"/>
			</g>
			<g>
				
					<rect x="44.308" y="75.5" transform="matrix(0.7071 0.7071 -0.7071 0.7071 75.222 -6.7905)" fill="#808285" width="3" height="23.811"/>
			</g>
			<g>
				<circle fill="#58595B" cx="97.987" cy="70.352" r="4.067"/>
				<path fill="#808285" d="M97.987,75.919c-3.07,0-5.567-2.497-5.567-5.567s2.497-5.567,5.567-5.567s5.567,2.497,5.567,5.567
					S101.057,75.919,97.987,75.919z M97.987,67.784c-1.416,0-2.567,1.151-2.567,2.567s1.151,2.567,2.567,2.567
					s2.567-1.151,2.567-2.567S99.402,67.784,97.987,67.784z"/>
			</g>
			<g>
				<circle fill="#58595B" cx="57.102" cy="76.111" r="4.067"/>
				<path fill="#808285" d="M57.103,81.679c-3.07,0-5.567-2.497-5.567-5.567s2.498-5.567,5.567-5.567s5.567,2.497,5.567,5.567
					S60.172,81.679,57.103,81.679z M57.103,73.544c-1.416,0-2.567,1.151-2.567,2.567s1.152,2.567,2.567,2.567
					s2.567-1.151,2.567-2.567S58.518,73.544,57.103,73.544z"/>
			</g>
		</g>
		<g>
			<polygon fill="#58595B" points="124.925,118.667 26.575,118.667 26.575,41.226 29.575,41.226 29.575,115.667 124.925,115.667 			
				"/>
		</g>
		<g>
			<g>
				<path fill="#414042" d="M141.5,183h-130C5.159,183,0,177.841,0,171.5v-160C0,5.159,5.159,0,11.5,0h130
					c6.341,0,11.5,5.159,11.5,11.5v160C153,177.841,147.841,183,141.5,183z M11.5,3C6.813,3,3,6.813,3,11.5v160
					c0,4.687,3.813,8.5,8.5,8.5h130c4.687,0,8.5-3.813,8.5-8.5v-160c0-4.687-3.813-8.5-8.5-8.5H11.5z"/>
			</g>
			<g>
				<rect x="1.5" y="20" fill="#414042" width="150" height="3"/>
			</g>
			<g>
				<circle fill="#808285" cx="12" cy="11.5" r="2.5"/>
			</g>
			<g>
				<circle fill="#808285" cx="20" cy="11.5" r="2.5"/>
			</g>
			<g>
				<circle fill="#808285" cx="28" cy="11.5" r="2.5"/>
			</g>
		</g>
	</g>
</g>
</svg>
