<?xml version="1.0" encoding="utf-8"?>
<!-- Generator: Adobe Illustrator 17.0.0, SVG Export Plug-In . SVG Version: 6.00 Build 0)  -->
<!DOCTYPE svg PUBLIC "-//W3C//DTD SVG 1.1//EN" "http://www.w3.org/Graphics/SVG/1.1/DTD/svg11.dtd">
<svg version="1.1" id="Layer_1" xmlns="http://www.w3.org/2000/svg" xmlns:xlink="http://www.w3.org/1999/xlink" x="0px" y="0px"
	 width="153px" height="183px" viewBox="0 0 153 183" enable-background="new 0 0 153 183" xml:space="preserve">
<g>
	<g>
		<g>
			<path fill="#58595B" d="M151.5,171.5c0,5.523-4.477,10-10,10h-130c-5.523,0-10-4.477-10-10v-160c0-5.523,4.477-10,10-10h130
				c5.523,0,10,4.477,10,10V171.5z"/>
		</g>
		<g>
			<rect x="32.116" y="143" fill="#808285" width="89.384" height="3"/>
		</g>
		<g>
			<rect x="32.116" y="153" fill="#808285" width="89.384" height="3"/>
		</g>
		<g>
			<rect x="32.116" y="133" fill="#808285" width="48.769" height="3"/>
		</g>
		<g>
			<rect x="32.116" y="123" fill="#808285" width="48.769" height="3"/>
		</g>
		<g>
			<rect x="32.116" y="113" fill="#808285" width="48.769" height="3"/>
		</g>
		<g>
			<rect x="32.116" y="42.5" fill="#414042" width="59.384" height="10"/>
		</g>
		<g>
			<rect x="32.116" y="103" fill="#808285" width="48.769" height="3"/>
		</g>
		<g>
			<rect x="72.116" y="93" fill="#808285" width="49.384" height="3"/>
		</g>
		<g>
			<rect x="72.116" y="83" fill="#808285" width="49.384" height="3"/>
		</g>
		<g>
			<rect x="72.116" y="73" fill="#808285" width="49.384" height="3"/>
		</g>
		<g>
			<rect x="72.116" y="63" fill="#808285" width="49.384" height="3"/>
		</g>
		<g>
			<g>
				<g>
					<rect x="22.969" y="63.895" fill="#808285" width="41.373" height="31.343"/>
					<path fill="#414042" d="M65.842,96.739H21.469V62.396h44.373V96.739z M24.469,93.739h38.373V65.396H24.469V93.739z"/>
				</g>
			</g>
			<g>
				<polygon fill="#414042" points="24.183,92.421 22.062,90.3 37.153,75.207 48.532,86.587 56.789,78.33 65.25,86.792 
					63.129,88.913 56.789,82.572 48.532,90.829 37.153,79.449 				"/>
			</g>
			<g>
				<path fill="#414042" d="M48.694,78.571c-2.75,0-4.988-2.237-4.988-4.988s2.238-4.988,4.988-4.988s4.988,2.237,4.988,4.988
					S51.444,78.571,48.694,78.571z M48.694,71.595c-1.096,0-1.988,0.892-1.988,1.988s0.892,1.988,1.988,1.988
					s1.988-0.892,1.988-1.988S49.79,71.595,48.694,71.595z"/>
			</g>
		</g>
		<g>
			<g>
				<g>
					<rect x="88.658" y="103.895" fill="#808285" width="41.373" height="31.343"/>
					<path fill="#414042" d="M131.531,136.739H87.158v-34.344h44.373V136.739z M90.158,133.739h38.373v-28.344H90.158V133.739z"/>
				</g>
			</g>
			<g>
				<polygon fill="#414042" points="89.871,132.421 87.75,130.3 102.842,115.207 114.221,126.587 122.477,118.33 130.938,126.792 
					128.817,128.913 122.477,122.572 114.221,130.829 102.842,119.449 				"/>
			</g>
			<g>
				<path fill="#414042" d="M114.382,118.571c-2.75,0-4.988-2.237-4.988-4.988s2.238-4.988,4.988-4.988
					c2.751,0,4.989,2.237,4.989,4.988S117.133,118.571,114.382,118.571z M114.382,111.595c-1.096,0-1.988,0.892-1.988,1.988
					s0.892,1.988,1.988,1.988c1.097,0,1.989-0.892,1.989-1.988S115.479,111.595,114.382,111.595z"/>
			</g>
		</g>
		<g>
			<g>
				<path fill="#414042" d="M141.5,183h-130C5.159,183,0,177.841,0,171.5v-160C0,5.159,5.159,0,11.5,0h130
					c6.341,0,11.5,5.159,11.5,11.5v160C153,177.841,147.841,183,141.5,183z M11.5,3C6.813,3,3,6.813,3,11.5v160
					c0,4.687,3.813,8.5,8.5,8.5h130c4.687,0,8.5-3.813,8.5-8.5v-160c0-4.687-3.813-8.5-8.5-8.5H11.5z"/>
			</g>
			<g>
				<rect x="1.5" y="20" fill="#414042" width="150" height="3"/>
			</g>
			<g>
				<circle fill="#808285" cx="12" cy="11.5" r="2.5"/>
			</g>
			<g>
				<circle fill="#808285" cx="20" cy="11.5" r="2.5"/>
			</g>
			<g>
				<circle fill="#808285" cx="28" cy="11.5" r="2.5"/>
			</g>
		</g>
	</g>
</g>
</svg>
