<?xml version="1.0" encoding="utf-8"?>
<!-- Generator: Adobe Illustrator 17.0.0, SVG Export Plug-In . SVG Version: 6.00 Build 0)  -->
<!DOCTYPE svg PUBLIC "-//W3C//DTD SVG 1.1//EN" "http://www.w3.org/Graphics/SVG/1.1/DTD/svg11.dtd">
<svg version="1.1" id="Layer_1" xmlns="http://www.w3.org/2000/svg" xmlns:xlink="http://www.w3.org/1999/xlink" x="0px" y="0px"
	 width="153px" height="183px" viewBox="0 0 153 183" enable-background="new 0 0 153 183" xml:space="preserve">
<g>
	<g>
		<g>
			<path fill="#58595B" d="M151.5,171.5c0,5.523-4.477,10-10,10h-130c-5.523,0-10-4.477-10-10v-160c0-5.523,4.477-10,10-10h130
				c5.523,0,10,4.477,10,10V171.5z"/>
		</g>
		<g>
			<g>
				<rect x="32.116" y="64.4" fill="#808285" width="88.768" height="36.75"/>
				<path fill="#414042" d="M122.384,102.65H30.616V62.9h91.769V102.65z M33.616,99.65h85.769V65.9H33.616V99.65z"/>
			</g>
			<g>
				<g>
					<rect x="71.426" y="75.9" fill="#414042" width="3" height="12.333"/>
				</g>
				<g>
					<rect x="78.574" y="75.9" fill="#414042" width="3" height="12.333"/>
				</g>
			</g>
			<g>
				<polygon fill="#414042" points="109.297,82.289 100.471,76.289 100.471,81.274 93.137,76.289 93.137,88.289 100.471,83.303 
					100.471,88.289 				"/>
			</g>
			<g>
				<polygon fill="#414042" points="44.25,82.289 53.076,76.289 53.076,81.274 60.409,76.289 60.409,88.289 53.076,83.303 
					53.076,88.289 				"/>
			</g>
		</g>
		<g>
			<rect x="32.116" y="143" fill="#808285" width="89.384" height="3"/>
		</g>
		<g>
			<rect x="32.116" y="153" fill="#808285" width="79.384" height="3"/>
		</g>
		<g>
			<rect x="32.116" y="133" fill="#808285" width="89.384" height="3"/>
		</g>
		<g>
			<rect x="32.116" y="123" fill="#808285" width="89.384" height="3"/>
		</g>
		<g>
			<rect x="32.116" y="113" fill="#808285" width="89.384" height="3"/>
		</g>
		<g>
			<rect x="32.116" y="42.5" fill="#414042" width="59.384" height="10"/>
		</g>
		<g>
			<g>
				<path fill="#414042" d="M141.5,183h-130C5.159,183,0,177.841,0,171.5v-160C0,5.159,5.159,0,11.5,0h130
					c6.341,0,11.5,5.159,11.5,11.5v160C153,177.841,147.841,183,141.5,183z M11.5,3C6.813,3,3,6.813,3,11.5v160
					c0,4.687,3.813,8.5,8.5,8.5h130c4.687,0,8.5-3.813,8.5-8.5v-160c0-4.687-3.813-8.5-8.5-8.5H11.5z"/>
			</g>
			<g>
				<rect x="1.5" y="20" fill="#414042" width="150" height="3"/>
			</g>
			<g>
				<circle fill="#808285" cx="12" cy="11.5" r="2.5"/>
			</g>
			<g>
				<circle fill="#808285" cx="20" cy="11.5" r="2.5"/>
			</g>
			<g>
				<circle fill="#808285" cx="28" cy="11.5" r="2.5"/>
			</g>
		</g>
	</g>
</g>
</svg>
