<?xml version="1.0" encoding="utf-8"?>
<!-- Generator: Adobe Illustrator 17.0.0, SVG Export Plug-In . SVG Version: 6.00 Build 0)  -->
<!DOCTYPE svg PUBLIC "-//W3C//DTD SVG 1.1//EN" "http://www.w3.org/Graphics/SVG/1.1/DTD/svg11.dtd">
<svg version="1.1" id="Layer_1" xmlns="http://www.w3.org/2000/svg" xmlns:xlink="http://www.w3.org/1999/xlink" x="0px" y="0px"
	 width="153px" height="183px" viewBox="0 0 153 183" enable-background="new 0 0 153 183" xml:space="preserve">
<g>
	<g>
		<g>
			<path fill="#58595B" d="M151.5,171.5c0,5.523-4.477,10-10,10h-130c-5.523,0-10-4.477-10-10v-160c0-5.523,4.477-10,10-10h130
				c5.523,0,10,4.477,10,10V171.5z"/>
		</g>
		<g>
			<g>
				<g>
					<rect x="15.025" y="34.5" fill="#808285" width="122.95" height="22.191"/>
					<path fill="#414042" d="M139.475,58.191H13.525V33h125.949V58.191z M16.525,55.191h119.949V36H16.525V55.191z"/>
				</g>
			</g>
			<g>
				<rect x="114.475" y="34.5" fill="#414042" width="3" height="22.191"/>
			</g>
			<g>
				<g>
					<path fill="#414042" d="M126.013,49.258c-1.339,0-2.598-0.521-3.544-1.468c-1.953-1.953-1.953-5.132,0.001-7.085
						c0.945-0.946,2.204-1.468,3.543-1.468c1.338,0,2.597,0.521,3.543,1.468c1.952,1.954,1.952,5.132,0.001,7.085
						C128.609,48.737,127.351,49.258,126.013,49.258z M126.013,42.236c-0.537,0-1.042,0.209-1.421,0.588
						c-0.785,0.785-0.785,2.06-0.001,2.844c0.76,0.76,2.084,0.76,2.844,0c0.783-0.784,0.783-2.06-0.001-2.844
						C127.055,42.445,126.55,42.236,126.013,42.236z"/>
				</g>
				<g>
					
						<rect x="127.724" y="47.092" transform="matrix(0.7071 0.7072 -0.7072 0.7071 72.5489 -77.9481)" fill="#414042" width="5.268" height="3"/>
				</g>
			</g>
		</g>
		<g>
			<g>
				<rect x="57.667" y="67.5" fill="#414042" width="37.667" height="29.75"/>
			</g>
			<g>
				<rect x="13.5" y="67.5" fill="#414042" width="37.667" height="29.75"/>
			</g>
			<g>
				<rect x="101.833" y="67.5" fill="#414042" width="37.667" height="29.75"/>
			</g>
			<g>
				<rect x="57.667" y="140" fill="#414042" width="37.667" height="29.75"/>
			</g>
			<g>
				<rect x="13.5" y="140" fill="#414042" width="37.667" height="29.75"/>
			</g>
			<g>
				<rect x="101.833" y="140" fill="#414042" width="37.667" height="29.75"/>
			</g>
			<g>
				<rect x="57.667" y="103.75" fill="#414042" width="37.667" height="29.75"/>
			</g>
			<g>
				<rect x="13.5" y="103.75" fill="#414042" width="37.667" height="29.75"/>
			</g>
			<g>
				<rect x="101.833" y="103.75" fill="#414042" width="37.667" height="29.75"/>
			</g>
		</g>
		<g>
			<g>
				<path fill="#414042" d="M141.5,183h-130C5.159,183,0,177.841,0,171.5v-160C0,5.159,5.159,0,11.5,0h130
					c6.341,0,11.5,5.159,11.5,11.5v160C153,177.841,147.841,183,141.5,183z M11.5,3C6.813,3,3,6.813,3,11.5v160
					c0,4.687,3.813,8.5,8.5,8.5h130c4.687,0,8.5-3.813,8.5-8.5v-160c0-4.687-3.813-8.5-8.5-8.5H11.5z"/>
			</g>
			<g>
				<rect x="1.5" y="20" fill="#414042" width="150" height="3"/>
			</g>
			<g>
				<circle fill="#808285" cx="12" cy="11.5" r="2.5"/>
			</g>
			<g>
				<circle fill="#808285" cx="20" cy="11.5" r="2.5"/>
			</g>
			<g>
				<circle fill="#808285" cx="28" cy="11.5" r="2.5"/>
			</g>
		</g>
	</g>
</g>
</svg>
