<?xml version="1.0" encoding="utf-8"?>
<!-- Generator: Adobe Illustrator 17.0.0, SVG Export Plug-In . SVG Version: 6.00 Build 0)  -->
<!DOCTYPE svg PUBLIC "-//W3C//DTD SVG 1.1//EN" "http://www.w3.org/Graphics/SVG/1.1/DTD/svg11.dtd">
<svg version="1.1" id="Layer_1" xmlns="http://www.w3.org/2000/svg" xmlns:xlink="http://www.w3.org/1999/xlink" x="0px" y="0px"
	 width="153px" height="183px" viewBox="0 0 153 183" enable-background="new 0 0 153 183" xml:space="preserve">
<g>
	<g>
		<g>
			<path fill="#58595B" d="M151.5,171.5c0,5.523-4.477,10-10,10h-130c-5.523,0-10-4.477-10-10v-160c0-5.523,4.477-10,10-10h130
				c5.523,0,10,4.477,10,10V171.5z"/>
		</g>
		<g>
			<g>
				<rect x="17.025" y="47.4" fill="#808285" width="53.261" height="60"/>
				<path fill="#414042" d="M71.786,108.9H15.525v-63h56.261V108.9z M18.525,105.9h50.261v-57H18.525V105.9z"/>
			</g>
			<g>
				<g>
					<g>
						<rect x="22.969" y="52.958" fill="#58595B" width="41.373" height="31.343"/>
						<path fill="#414042" d="M65.842,85.802H21.469V51.458h44.373V85.802z M24.469,82.802h38.373V54.458H24.469V82.802z"/>
					</g>
				</g>
				<g>
					<polygon fill="#808285" points="40.542,61.575 40.543,75.975 51.134,68.775 					"/>
					<path fill="#414042" d="M39.042,78.81V58.741l14.759,10.034L39.042,78.81z M42.042,64.409v8.732l6.423-4.366L42.042,64.409z"/>
				</g>
			</g>
			<g>
				<rect x="22.969" y="91.401" fill="#414042" width="41.373" height="3"/>
			</g>
			<g>
				<rect x="22.969" y="97.551" fill="#414042" width="26.866" height="3"/>
			</g>
		</g>
		<g>
			<g>
				<rect x="82.714" y="47.4" fill="#808285" width="53.261" height="60"/>
				<path fill="#414042" d="M137.475,108.9H81.214v-63h56.261V108.9z M84.214,105.9h50.261v-57H84.214V105.9z"/>
			</g>
			<g>
				<g>
					<g>
						<rect x="88.658" y="52.958" fill="#58595B" width="41.373" height="31.343"/>
						<path fill="#414042" d="M131.531,85.802H87.158V51.458h44.373V85.802z M90.158,82.802h38.373V54.458H90.158V82.802z"/>
					</g>
				</g>
				<g>
					<polygon fill="#808285" points="106.231,61.575 106.231,75.975 116.823,68.775 					"/>
					<path fill="#414042" d="M104.731,78.809V58.742l14.76,10.033L104.731,78.809z M107.731,64.408v8.734l6.424-4.367
						L107.731,64.408z"/>
				</g>
			</g>
			<g>
				<rect x="88.658" y="91.401" fill="#414042" width="41.373" height="3"/>
			</g>
			<g>
				<rect x="88.658" y="97.551" fill="#414042" width="26.865" height="3"/>
			</g>
		</g>
		<g>
			<rect x="23.5" y="122" fill="#808285" width="40" height="3"/>
		</g>
		<g>
			<rect x="23.5" y="132" fill="#808285" width="40" height="3"/>
		</g>
		<g>
			<rect x="33.5" y="142" fill="#808285" width="20" height="3"/>
		</g>
		<g>
			<rect x="89.344" y="122" fill="#808285" width="40" height="3"/>
		</g>
		<g>
			<rect x="89.344" y="132" fill="#808285" width="40" height="3"/>
		</g>
		<g>
			<rect x="99.344" y="142" fill="#808285" width="20" height="3"/>
		</g>
		<g>
			<g>
				<path fill="#414042" d="M141.5,183h-130C5.159,183,0,177.841,0,171.5v-160C0,5.159,5.159,0,11.5,0h130
					c6.341,0,11.5,5.159,11.5,11.5v160C153,177.841,147.841,183,141.5,183z M11.5,3C6.813,3,3,6.813,3,11.5v160
					c0,4.687,3.813,8.5,8.5,8.5h130c4.687,0,8.5-3.813,8.5-8.5v-160c0-4.687-3.813-8.5-8.5-8.5H11.5z"/>
			</g>
			<g>
				<rect x="1.5" y="20" fill="#414042" width="150" height="3"/>
			</g>
			<g>
				<circle fill="#808285" cx="12" cy="11.5" r="2.5"/>
			</g>
			<g>
				<circle fill="#808285" cx="20" cy="11.5" r="2.5"/>
			</g>
			<g>
				<circle fill="#808285" cx="28" cy="11.5" r="2.5"/>
			</g>
		</g>
	</g>
</g>
</svg>
