<?xml version="1.0" encoding="utf-8"?>
<!-- Generator: Adobe Illustrator 17.0.0, SVG Export Plug-In . SVG Version: 6.00 Build 0)  -->
<!DOCTYPE svg PUBLIC "-//W3C//DTD SVG 1.1//EN" "http://www.w3.org/Graphics/SVG/1.1/DTD/svg11.dtd">
<svg version="1.1" id="Layer_1" xmlns="http://www.w3.org/2000/svg" xmlns:xlink="http://www.w3.org/1999/xlink" x="0px" y="0px"
	 width="153px" height="183px" viewBox="0 0 153 183" enable-background="new 0 0 153 183" xml:space="preserve">
<g>
	<g>
		<g>
			<path fill="#58595B" d="M151.5,171.5c0,5.523-4.477,10-10,10h-130c-5.523,0-10-4.477-10-10v-160c0-5.523,4.477-10,10-10h130
				c5.523,0,10,4.477,10,10V171.5z"/>
		</g>
		<g>
			<polygon fill="#414042" points="62,35.595 62,50.095 56.5,53.595 62,57.095 62,71.595 137.5,71.595 137.5,35.595 			"/>
		</g>
		<g>
			<g>
				<g>
					<rect x="74.75" y="47.095" fill="#808285" width="50" height="3"/>
				</g>
				<g>
					<rect x="74.75" y="57.095" fill="#808285" width="40" height="3"/>
				</g>
				<g>
					<path fill="none" stroke="#808285" stroke-width="3" stroke-miterlimit="10" d="M74.75,68.595"/>
				</g>
			</g>
		</g>
		<g>
			<g>
				<g>
					<g>
						<path fill="#808285" d="M31.638,37c-9.258,0-16.764,7.505-16.764,16.764c0,4.93,2.129,9.363,5.517,12.43
							c2.974,2.693,6.919,4.334,11.247,4.334s8.273-1.641,11.247-4.334c3.388-3.067,5.517-7.5,5.517-12.43
							C48.402,44.505,40.897,37,31.638,37z"/>
					</g>
					<g>
						<g>
							<circle fill="#58595B" cx="31.638" cy="50.411" r="7.184"/>
							<path fill="#414042" d="M31.638,59.095c-4.789,0-8.685-3.896-8.685-8.684c0-4.789,3.896-8.685,8.685-8.685
								s8.685,3.896,8.685,8.685C40.323,55.199,36.427,59.095,31.638,59.095z M31.638,44.727c-3.134,0-5.685,2.55-5.685,5.685
								c0,3.134,2.55,5.684,5.685,5.684s5.685-2.55,5.685-5.684C37.323,47.276,34.772,44.727,31.638,44.727z"/>
						</g>
						<g>
							<path fill="#58595B" d="M31.638,57.595c-5.379,0-9.904,3.645-11.247,8.598c2.974,2.693,6.919,4.334,11.247,4.334
								s8.273-1.641,11.247-4.334C41.542,61.24,37.017,57.595,31.638,57.595z"/>
							<path fill="#414042" d="M31.638,72.027c-4.54,0-8.892-1.677-12.254-4.722l-0.682-0.617l0.241-0.888
								c1.55-5.715,6.77-9.706,12.695-9.706s11.145,3.991,12.695,9.706l0.241,0.888l-0.682,0.617
								C40.53,70.351,36.178,72.027,31.638,72.027z M22.124,65.699c2.697,2.152,6.04,3.328,9.515,3.328s6.818-1.176,9.515-3.328
								c-1.466-3.932-5.254-6.604-9.515-6.604S23.589,61.768,22.124,65.699z"/>
						</g>
					</g>
					<g>
						<path fill="#414042" d="M31.638,72.027c-4.54,0-8.892-1.677-12.254-4.722c-3.819-3.459-6.01-8.395-6.01-13.542
							c0-10.07,8.193-18.264,18.264-18.264s18.264,8.193,18.264,18.264c0,5.148-2.19,10.084-6.01,13.542
							C40.53,70.351,36.178,72.027,31.638,72.027z M31.638,38.5c-8.417,0-15.264,6.848-15.264,15.264
							c0,4.302,1.831,8.427,5.023,11.317c2.81,2.545,6.446,3.946,10.24,3.946s7.431-1.401,10.24-3.946
							c3.192-2.89,5.023-7.015,5.023-11.317C46.902,45.348,40.055,38.5,31.638,38.5z"/>
					</g>
				</g>
			</g>
		</g>
		<g>
			<polygon fill="#414042" points="62,82.595 62,97.095 56.5,100.595 62,104.095 62,118.595 137.5,118.595 137.5,82.595 			"/>
		</g>
		<g>
			<g>
				<g>
					<rect x="74.75" y="94.095" fill="#808285" width="50" height="3"/>
				</g>
				<g>
					<rect x="74.75" y="104.095" fill="#808285" width="40" height="3"/>
				</g>
				<g>
					<path fill="none" stroke="#808285" stroke-width="3" stroke-miterlimit="10" d="M74.75,115.595"/>
				</g>
			</g>
		</g>
		<g>
			<g>
				<g>
					<g>
						<path fill="#808285" d="M31.638,84c-9.258,0-16.764,7.505-16.764,16.764c0,4.93,2.129,9.363,5.517,12.43
							c2.974,2.693,6.919,4.334,11.247,4.334s8.273-1.641,11.247-4.334c3.388-3.067,5.517-7.5,5.517-12.43
							C48.402,91.505,40.897,84,31.638,84z"/>
					</g>
					<g>
						<g>
							<circle fill="#58595B" cx="31.638" cy="97.411" r="7.184"/>
							<path fill="#414042" d="M31.638,106.095c-4.789,0-8.685-3.896-8.685-8.684c0-4.789,3.896-8.685,8.685-8.685
								s8.685,3.896,8.685,8.685C40.323,102.199,36.427,106.095,31.638,106.095z M31.638,91.727c-3.134,0-5.685,2.55-5.685,5.685
								c0,3.134,2.55,5.684,5.685,5.684s5.685-2.55,5.685-5.684C37.323,94.276,34.772,91.727,31.638,91.727z"/>
						</g>
						<g>
							<path fill="#58595B" d="M31.638,104.595c-5.379,0-9.904,3.645-11.247,8.598c2.974,2.693,6.919,4.334,11.247,4.334
								s8.273-1.641,11.247-4.334C41.542,108.24,37.017,104.595,31.638,104.595z"/>
							<path fill="#414042" d="M31.638,119.027c-4.54,0-8.892-1.677-12.254-4.722l-0.682-0.617l0.241-0.888
								c1.55-5.715,6.77-9.706,12.695-9.706s11.145,3.991,12.695,9.706l0.241,0.888l-0.682,0.617
								C40.53,117.351,36.178,119.027,31.638,119.027z M22.124,112.699c2.697,2.152,6.04,3.328,9.515,3.328s6.818-1.176,9.515-3.328
								c-1.466-3.932-5.254-6.604-9.515-6.604S23.589,108.768,22.124,112.699z"/>
						</g>
					</g>
					<g>
						<path fill="#414042" d="M31.638,119.027c-4.54,0-8.892-1.677-12.254-4.722c-3.819-3.459-6.01-8.395-6.01-13.542
							c0-10.07,8.193-18.264,18.264-18.264s18.264,8.193,18.264,18.264c0,5.148-2.19,10.084-6.01,13.542
							C40.53,117.351,36.178,119.027,31.638,119.027z M31.638,85.5c-8.417,0-15.264,6.848-15.264,15.264
							c0,4.302,1.831,8.427,5.023,11.317c2.81,2.545,6.446,3.946,10.24,3.946s7.431-1.401,10.24-3.946
							c3.192-2.89,5.023-7.015,5.023-11.317C46.902,92.348,40.055,85.5,31.638,85.5z"/>
					</g>
				</g>
			</g>
		</g>
		<g>
			<polygon fill="#414042" points="62,129.595 62,144.095 56.5,147.595 62,151.095 62,165.595 137.5,165.595 137.5,129.595 			"/>
		</g>
		<g>
			<g>
				<g>
					<rect x="74.75" y="141.095" fill="#808285" width="50" height="3"/>
				</g>
				<g>
					<rect x="74.75" y="151.095" fill="#808285" width="40" height="3"/>
				</g>
				<g>
					<path fill="none" stroke="#808285" stroke-width="3" stroke-miterlimit="10" d="M74.75,162.595"/>
				</g>
			</g>
		</g>
		<g>
			<g>
				<g>
					<g>
						<path fill="#808285" d="M31.638,131c-9.258,0-16.764,7.505-16.764,16.764c0,4.93,2.129,9.363,5.517,12.43
							c2.974,2.693,6.919,4.334,11.247,4.334s8.273-1.641,11.247-4.334c3.388-3.067,5.517-7.5,5.517-12.43
							C48.402,138.505,40.897,131,31.638,131z"/>
					</g>
					<g>
						<g>
							<circle fill="#58595B" cx="31.638" cy="144.411" r="7.184"/>
							<path fill="#414042" d="M31.638,153.095c-4.789,0-8.685-3.896-8.685-8.684c0-4.789,3.896-8.685,8.685-8.685
								s8.685,3.896,8.685,8.685C40.323,149.199,36.427,153.095,31.638,153.095z M31.638,138.727c-3.134,0-5.685,2.55-5.685,5.685
								c0,3.134,2.55,5.684,5.685,5.684s5.685-2.55,5.685-5.684C37.323,141.276,34.772,138.727,31.638,138.727z"/>
						</g>
						<g>
							<path fill="#58595B" d="M31.638,151.595c-5.379,0-9.904,3.645-11.247,8.598c2.974,2.693,6.919,4.334,11.247,4.334
								s8.273-1.641,11.247-4.334C41.542,155.24,37.017,151.595,31.638,151.595z"/>
							<path fill="#414042" d="M31.638,166.027c-4.54,0-8.892-1.677-12.254-4.722l-0.682-0.617l0.241-0.888
								c1.55-5.715,6.77-9.706,12.695-9.706s11.145,3.991,12.695,9.706l0.241,0.888l-0.682,0.617
								C40.53,164.351,36.178,166.027,31.638,166.027z M22.124,159.699c2.697,2.152,6.04,3.328,9.515,3.328s6.818-1.176,9.515-3.328
								c-1.466-3.932-5.254-6.604-9.515-6.604S23.589,155.768,22.124,159.699z"/>
						</g>
					</g>
					<g>
						<path fill="#414042" d="M31.638,166.027c-4.54,0-8.892-1.677-12.254-4.722c-3.819-3.459-6.01-8.395-6.01-13.542
							c0-10.07,8.193-18.264,18.264-18.264s18.264,8.193,18.264,18.264c0,5.148-2.19,10.084-6.01,13.542
							C40.53,164.351,36.178,166.027,31.638,166.027z M31.638,132.5c-8.417,0-15.264,6.848-15.264,15.264
							c0,4.302,1.831,8.427,5.023,11.317c2.81,2.545,6.446,3.946,10.24,3.946s7.431-1.401,10.24-3.946
							c3.192-2.89,5.023-7.015,5.023-11.317C46.902,139.348,40.055,132.5,31.638,132.5z"/>
					</g>
				</g>
			</g>
		</g>
		<g>
			<g>
				<path fill="#414042" d="M141.5,183h-130C5.159,183,0,177.841,0,171.5v-160C0,5.159,5.159,0,11.5,0h130
					c6.341,0,11.5,5.159,11.5,11.5v160C153,177.841,147.841,183,141.5,183z M11.5,3C6.813,3,3,6.813,3,11.5v160
					c0,4.687,3.813,8.5,8.5,8.5h130c4.687,0,8.5-3.813,8.5-8.5v-160c0-4.687-3.813-8.5-8.5-8.5H11.5z"/>
			</g>
			<g>
				<rect x="1.5" y="20" fill="#414042" width="150" height="3"/>
			</g>
			<g>
				<circle fill="#808285" cx="12" cy="11.5" r="2.5"/>
			</g>
			<g>
				<circle fill="#808285" cx="20" cy="11.5" r="2.5"/>
			</g>
			<g>
				<circle fill="#808285" cx="28" cy="11.5" r="2.5"/>
			</g>
		</g>
	</g>
</g>
</svg>
