<?xml version="1.0" encoding="utf-8"?>
<!-- Generator: Adobe Illustrator 17.0.0, SVG Export Plug-In . SVG Version: 6.00 Build 0)  -->
<!DOCTYPE svg PUBLIC "-//W3C//DTD SVG 1.1//EN" "http://www.w3.org/Graphics/SVG/1.1/DTD/svg11.dtd">
<svg version="1.1" id="Layer_1" xmlns="http://www.w3.org/2000/svg" xmlns:xlink="http://www.w3.org/1999/xlink" x="0px" y="0px"
	 width="153px" height="183px" viewBox="0 0 153 183" enable-background="new 0 0 153 183" xml:space="preserve">
<g>
	<g>
		<g>
			<path fill="#58595B" d="M151.5,171.5c0,5.523-4.477,10-10,10h-130c-5.523,0-10-4.477-10-10v-160c0-5.523,4.477-10,10-10h130
				c5.523,0,10,4.477,10,10V171.5z"/>
		</g>
		<g>
			<g>
				<rect x="17.025" y="37.4" fill="#808285" width="53.261" height="60"/>
				<path fill="#414042" d="M71.786,98.9H15.525v-63h56.261V98.9z M18.525,95.9h50.261v-57H18.525V95.9z"/>
			</g>
			<g>
				<g>
					<g>
						<rect x="22.969" y="42.958" fill="#58595B" width="41.373" height="31.343"/>
						<path fill="#414042" d="M65.842,75.801H21.469V41.458h44.373V75.801z M24.469,72.801h38.373V44.458H24.469V72.801z"/>
					</g>
				</g>
				<g>
					<polygon fill="#414042" points="27.275,70.426 25.154,68.305 38.132,55.327 47.798,64.992 54.811,57.979 62.158,65.326 
						60.037,67.447 54.811,62.221 47.798,69.234 38.132,59.569 					"/>
				</g>
				<g>
					<path fill="#414042" d="M48.694,57.634c-2.75,0-4.988-2.238-4.988-4.988s2.238-4.988,4.988-4.988s4.988,2.238,4.988,4.988
						S51.444,57.634,48.694,57.634z M48.694,50.657c-1.096,0-1.988,0.892-1.988,1.988s0.892,1.988,1.988,1.988
						s1.988-0.892,1.988-1.988S49.79,50.657,48.694,50.657z"/>
				</g>
			</g>
			<g>
				<rect x="22.969" y="81.401" fill="#414042" width="41.373" height="3"/>
			</g>
			<g>
				<rect x="22.969" y="87.55" fill="#414042" width="26.866" height="3"/>
			</g>
		</g>
		<g>
			<g>
				<rect x="17.025" y="107.4" fill="#808285" width="53.261" height="60"/>
				<path fill="#414042" d="M71.786,168.9H15.525v-63h56.261V168.9z M18.525,165.9h50.261v-57H18.525V165.9z"/>
			</g>
			<g>
				<g>
					<g>
						<rect x="22.969" y="112.958" fill="#58595B" width="41.373" height="31.343"/>
						<path fill="#414042" d="M65.842,145.802H21.469v-34.344h44.373V145.802z M24.469,142.802h38.373v-28.344H24.469V142.802z"/>
					</g>
				</g>
				<g>
					<polygon fill="#414042" points="27.275,140.427 25.154,138.306 38.132,125.326 47.798,134.992 54.811,127.979 62.158,135.326 
						60.037,137.447 54.811,132.222 47.798,139.234 38.132,129.568 					"/>
				</g>
				<g>
					<path fill="#414042" d="M48.694,127.634c-2.75,0-4.988-2.237-4.988-4.988s2.238-4.988,4.988-4.988s4.988,2.237,4.988,4.988
						S51.444,127.634,48.694,127.634z M48.694,120.657c-1.096,0-1.988,0.892-1.988,1.988s0.892,1.988,1.988,1.988
						s1.988-0.892,1.988-1.988S49.79,120.657,48.694,120.657z"/>
				</g>
			</g>
			<g>
				<rect x="22.969" y="151.401" fill="#414042" width="41.373" height="3"/>
			</g>
			<g>
				<rect x="22.969" y="157.551" fill="#414042" width="26.866" height="3"/>
			</g>
		</g>
		<g>
			<g>
				<rect x="82.714" y="37.4" fill="#808285" width="53.261" height="60"/>
				<path fill="#414042" d="M137.475,98.9H81.214v-63h56.261V98.9z M84.214,95.9h50.261v-57H84.214V95.9z"/>
			</g>
			<g>
				<g>
					<g>
						<rect x="88.658" y="42.958" fill="#58595B" width="41.373" height="31.343"/>
						<path fill="#414042" d="M131.531,75.801H87.158V41.458h44.373V75.801z M90.158,72.801h38.373V44.458H90.158V72.801z"/>
					</g>
				</g>
				<g>
					<polygon fill="#414042" points="92.963,70.426 90.842,68.305 103.821,55.327 113.486,64.992 120.499,57.979 127.846,65.326 
						125.725,67.447 120.499,62.221 113.486,69.234 103.821,59.569 					"/>
				</g>
				<g>
					<path fill="#414042" d="M114.383,57.634c-2.75,0-4.988-2.238-4.988-4.988s2.238-4.988,4.988-4.988s4.988,2.238,4.988,4.988
						S117.133,57.634,114.383,57.634z M114.383,50.657c-1.096,0-1.988,0.892-1.988,1.988s0.892,1.988,1.988,1.988
						s1.988-0.892,1.988-1.988S115.479,50.657,114.383,50.657z"/>
				</g>
			</g>
			<g>
				<rect x="88.658" y="81.401" fill="#414042" width="41.373" height="3"/>
			</g>
			<g>
				<rect x="88.658" y="87.55" fill="#414042" width="26.866" height="3"/>
			</g>
		</g>
		<g>
			<g>
				<rect x="82.714" y="107.4" fill="#808285" width="53.261" height="60"/>
				<path fill="#414042" d="M137.475,168.9H81.214v-63h56.261V168.9z M84.214,165.9h50.261v-57H84.214V165.9z"/>
			</g>
			<g>
				<g>
					<g>
						<rect x="88.658" y="112.958" fill="#58595B" width="41.373" height="31.343"/>
						<path fill="#414042" d="M131.531,145.802H87.158v-34.344h44.373V145.802z M90.158,142.802h38.373v-28.344H90.158V142.802z"/>
					</g>
				</g>
				<g>
					<polygon fill="#414042" points="92.963,140.427 90.842,138.306 103.821,125.326 113.486,134.992 120.499,127.979 
						127.846,135.326 125.725,137.447 120.499,132.222 113.486,139.234 103.821,129.568 					"/>
				</g>
				<g>
					<path fill="#414042" d="M114.383,127.634c-2.75,0-4.988-2.237-4.988-4.988s2.238-4.988,4.988-4.988s4.988,2.237,4.988,4.988
						S117.133,127.634,114.383,127.634z M114.383,120.657c-1.096,0-1.988,0.892-1.988,1.988s0.892,1.988,1.988,1.988
						s1.988-0.892,1.988-1.988S115.479,120.657,114.383,120.657z"/>
				</g>
			</g>
			<g>
				<rect x="88.658" y="151.401" fill="#414042" width="41.373" height="3"/>
			</g>
			<g>
				<rect x="88.658" y="157.551" fill="#414042" width="26.866" height="3"/>
			</g>
		</g>
		<g>
			<g>
				<path fill="#414042" d="M141.5,183h-130C5.159,183,0,177.841,0,171.5v-160C0,5.159,5.159,0,11.5,0h130
					c6.341,0,11.5,5.159,11.5,11.5v160C153,177.841,147.841,183,141.5,183z M11.5,3C6.813,3,3,6.813,3,11.5v160
					c0,4.687,3.813,8.5,8.5,8.5h130c4.687,0,8.5-3.813,8.5-8.5v-160c0-4.687-3.813-8.5-8.5-8.5H11.5z"/>
			</g>
			<g>
				<rect x="1.5" y="20" fill="#414042" width="150" height="3"/>
			</g>
			<g>
				<circle fill="#808285" cx="12" cy="11.5" r="2.5"/>
			</g>
			<g>
				<circle fill="#808285" cx="20" cy="11.5" r="2.5"/>
			</g>
			<g>
				<circle fill="#808285" cx="28" cy="11.5" r="2.5"/>
			</g>
		</g>
	</g>
</g>
</svg>
