<?xml version="1.0" encoding="utf-8"?>
<!-- Generator: Adobe Illustrator 17.0.0, SVG Export Plug-In . SVG Version: 6.00 Build 0)  -->
<!DOCTYPE svg PUBLIC "-//W3C//DTD SVG 1.1//EN" "http://www.w3.org/Graphics/SVG/1.1/DTD/svg11.dtd">
<svg version="1.1" id="Layer_1" xmlns="http://www.w3.org/2000/svg" xmlns:xlink="http://www.w3.org/1999/xlink" x="0px" y="0px"
	 width="153px" height="183px" viewBox="0 0 153 183" enable-background="new 0 0 153 183" xml:space="preserve">
<g>
	<g>
		<g>
			<path fill="#58595B" d="M151.5,171.5c0,5.523-4.477,10-10,10h-130c-5.523,0-10-4.477-10-10v-160c0-5.523,4.477-10,10-10h130
				c5.523,0,10,4.477,10,10V171.5z"/>
		</g>
		<g>
			<g>
				<rect x="17.073" y="150.486" fill="#414042" width="118.949" height="3"/>
			</g>
			<g>
				<rect x="17.073" y="130.486" fill="#414042" width="118.949" height="3"/>
			</g>
			<g>
				<rect x="17.073" y="110.486" fill="#414042" width="118.949" height="3"/>
			</g>
			<g>
				<rect x="17.073" y="90.486" fill="#414042" width="118.949" height="3"/>
			</g>
			<g>
				<rect x="17.073" y="70.486" fill="#414042" width="118.949" height="3"/>
			</g>
			<g>
				<rect x="17.073" y="50.486" fill="#414042" width="118.949" height="3"/>
			</g>
			<g>
				<rect x="35.048" y="31.986" fill="#414042" width="3" height="140"/>
			</g>
			<g>
				<rect x="55.048" y="31.986" fill="#414042" width="3" height="140"/>
			</g>
			<g>
				<rect x="75.048" y="31.986" fill="#414042" width="3" height="140"/>
			</g>
			<g>
				<rect x="95.048" y="31.986" fill="#414042" width="3" height="140"/>
			</g>
			<g>
				<rect x="115.048" y="31.986" fill="#414042" width="3" height="140"/>
			</g>
		</g>
		<g>
			<g>
				<path fill="#808285" d="M75.586,51.586c0-10.541-8.545-19.086-19.086-19.086c-10.541,0-19.086,8.545-19.086,19.086
					S56.5,82.5,56.5,82.5S75.586,62.127,75.586,51.586z"/>
				<path fill="#414042" d="M56.5,84.694l-1.095-1.169c-0.796-0.85-19.492-20.931-19.492-31.939C35.913,40.234,45.148,31,56.5,31
					s20.586,9.234,20.586,20.586c0,11.009-18.695,31.09-19.491,31.939L56.5,84.694z M56.5,34c-9.697,0-17.587,7.889-17.587,17.586
					c0,7.64,11.813,22.303,17.587,28.696c5.772-6.396,17.586-21.062,17.586-28.696C74.086,41.889,66.197,34,56.5,34z"/>
			</g>
			<g>
				<circle fill="#58595B" cx="56.528" cy="50.617" r="8.871"/>
				<path fill="#414042" d="M56.528,60.988c-5.719,0-10.371-4.652-10.371-10.371c0-5.718,4.652-10.37,10.371-10.37
					c5.718,0,10.37,4.652,10.37,10.37C66.898,56.336,62.246,60.988,56.528,60.988z M56.528,43.247c-4.064,0-7.371,3.307-7.371,7.37
					c0,4.064,3.307,7.371,7.371,7.371c4.063,0,7.37-3.307,7.37-7.371C63.898,46.554,60.592,43.247,56.528,43.247z"/>
			</g>
		</g>
		<g>
			<g>
				<path fill="#808285" d="M135.586,91.586c0-10.541-8.545-19.086-19.086-19.086c-10.541,0-19.086,8.545-19.086,19.086
					S116.5,122.5,116.5,122.5S135.586,102.128,135.586,91.586z"/>
				<path fill="#414042" d="M116.5,124.694l-1.095-1.169c-0.796-0.85-19.492-20.931-19.492-31.939
					C95.913,80.234,105.148,71,116.5,71s20.586,9.234,20.586,20.586c0,11.009-18.695,31.09-19.491,31.939L116.5,124.694z M116.5,74
					c-9.697,0-17.587,7.889-17.587,17.586c0,7.64,11.813,22.303,17.587,28.696c5.772-6.396,17.586-21.062,17.586-28.696
					C134.086,81.889,126.197,74,116.5,74z"/>
			</g>
			<g>
				<circle fill="#58595B" cx="116.528" cy="90.617" r="8.871"/>
				<path fill="#414042" d="M116.528,100.988c-5.719,0-10.371-4.652-10.371-10.371c0-5.718,4.652-10.37,10.371-10.37
					c5.718,0,10.37,4.652,10.37,10.37C126.898,96.336,122.246,100.988,116.528,100.988z M116.528,83.247
					c-4.064,0-7.371,3.307-7.371,7.37c0,4.064,3.307,7.371,7.371,7.371c4.063,0,7.37-3.307,7.37-7.371
					C123.898,86.554,120.592,83.247,116.528,83.247z"/>
			</g>
		</g>
		<g>
			<g>
				<path fill="#808285" d="M95.586,131.586c0-10.541-8.545-19.086-19.086-19.086c-10.541,0-19.086,8.545-19.086,19.086
					c0,10.541,19.086,30.914,19.086,30.914S95.586,142.128,95.586,131.586z"/>
				<path fill="#414042" d="M76.5,164.694l-1.095-1.169c-0.796-0.85-19.492-20.931-19.492-31.939
					C55.913,120.234,65.148,111,76.5,111s20.586,9.234,20.586,20.586c0,11.009-18.695,31.09-19.491,31.939L76.5,164.694z M76.5,114
					c-9.697,0-17.587,7.889-17.587,17.586c0,7.64,11.813,22.303,17.587,28.696c5.772-6.396,17.586-21.062,17.586-28.696
					C94.086,121.889,86.197,114,76.5,114z"/>
			</g>
			<g>
				<circle fill="#58595B" cx="76.528" cy="130.617" r="8.871"/>
				<path fill="#414042" d="M76.528,140.988c-5.719,0-10.371-4.652-10.371-10.371c0-5.718,4.652-10.37,10.371-10.37
					c5.718,0,10.37,4.652,10.37,10.37C86.898,136.336,82.246,140.988,76.528,140.988z M76.528,123.247
					c-4.064,0-7.371,3.307-7.371,7.37c0,4.064,3.307,7.371,7.371,7.371c4.063,0,7.37-3.307,7.37-7.371
					C83.898,126.554,80.592,123.247,76.528,123.247z"/>
			</g>
		</g>
		<g>
			<g>
				<path fill="#414042" d="M141.5,183h-130C5.159,183,0,177.841,0,171.5v-160C0,5.159,5.159,0,11.5,0h130
					c6.341,0,11.5,5.159,11.5,11.5v160C153,177.841,147.841,183,141.5,183z M11.5,3C6.813,3,3,6.813,3,11.5v160
					c0,4.687,3.813,8.5,8.5,8.5h130c4.687,0,8.5-3.813,8.5-8.5v-160c0-4.687-3.813-8.5-8.5-8.5H11.5z"/>
			</g>
			<g>
				<rect x="1.5" y="20" fill="#414042" width="150" height="3"/>
			</g>
			<g>
				<circle fill="#808285" cx="12" cy="11.5" r="2.5"/>
			</g>
			<g>
				<circle fill="#808285" cx="20" cy="11.5" r="2.5"/>
			</g>
			<g>
				<circle fill="#808285" cx="28" cy="11.5" r="2.5"/>
			</g>
		</g>
	</g>
</g>
</svg>
