<?xml version="1.0" encoding="utf-8"?>
<!-- Generator: Adobe Illustrator 17.0.0, SVG Export Plug-In . SVG Version: 6.00 Build 0)  -->
<!DOCTYPE svg PUBLIC "-//W3C//DTD SVG 1.1//EN" "http://www.w3.org/Graphics/SVG/1.1/DTD/svg11.dtd">
<svg version="1.1" id="Layer_1" xmlns="http://www.w3.org/2000/svg" xmlns:xlink="http://www.w3.org/1999/xlink" x="0px" y="0px"
	 width="153px" height="183px" viewBox="0 0 153 183" enable-background="new 0 0 153 183" xml:space="preserve">
<g>
	<g>
		<g>
			<path fill="#58595B" d="M151.5,171.5c0,5.523-4.477,10-10,10h-130c-5.523,0-10-4.477-10-10v-160c0-5.523,4.477-10,10-10h130
				c5.523,0,10,4.477,10,10V171.5z"/>
		</g>
		<g>
			<g>
				<rect x="32.116" y="84.025" fill="#808285" width="88.768" height="36.75"/>
				<path fill="#414042" d="M122.384,122.275H30.616v-39.75h91.769V122.275z M33.616,119.275h85.769v-33.75H33.616V119.275z"/>
			</g>
			<g>
				<g>
					<rect x="71.426" y="95.525" fill="#414042" width="3" height="12.333"/>
				</g>
				<g>
					<rect x="78.574" y="95.525" fill="#414042" width="3" height="12.333"/>
				</g>
			</g>
			<g>
				<polygon fill="#414042" points="109.297,101.913 100.471,95.913 100.471,100.899 93.137,95.913 93.137,107.913 100.471,102.928 
					100.471,107.913 				"/>
			</g>
			<g>
				<polygon fill="#414042" points="44.25,101.913 53.076,95.913 53.076,100.899 60.409,95.913 60.409,107.913 53.076,102.928 
					53.076,107.913 				"/>
			</g>
		</g>
		<g>
			<g>
				<rect x="32.116" y="37.4" fill="#808285" width="88.768" height="36.75"/>
				<path fill="#414042" d="M122.384,75.65H30.616V35.9h91.769V75.65z M33.616,72.65h85.769V38.9H33.616V72.65z"/>
			</g>
			<g>
				<g>
					<rect x="71.426" y="48.9" fill="#414042" width="3" height="12.333"/>
				</g>
				<g>
					<rect x="78.574" y="48.9" fill="#414042" width="3" height="12.333"/>
				</g>
			</g>
			<g>
				<polygon fill="#414042" points="109.297,55.289 100.471,49.289 100.471,54.274 93.137,49.289 93.137,61.289 100.471,56.304 
					100.471,61.289 				"/>
			</g>
			<g>
				<polygon fill="#414042" points="44.25,55.289 53.076,49.289 53.076,54.274 60.409,49.289 60.409,61.289 53.076,56.304 
					53.076,61.289 				"/>
			</g>
		</g>
		<g>
			<g>
				<rect x="32.116" y="130.65" fill="#808285" width="88.768" height="36.75"/>
				<path fill="#414042" d="M122.384,168.9H30.616v-39.751h91.769V168.9z M33.616,165.9h85.769v-33.751H33.616V165.9z"/>
			</g>
			<g>
				<g>
					<rect x="71.426" y="142.15" fill="#414042" width="3" height="12.333"/>
				</g>
				<g>
					<rect x="78.574" y="142.15" fill="#414042" width="3" height="12.333"/>
				</g>
			</g>
			<g>
				<polygon fill="#414042" points="109.297,148.538 100.471,142.538 100.471,147.523 93.137,142.538 93.137,154.538 
					100.471,149.553 100.471,154.538 				"/>
			</g>
			<g>
				<polygon fill="#414042" points="44.25,148.538 53.076,142.538 53.076,147.523 60.409,142.538 60.409,154.538 53.076,149.553 
					53.076,154.538 				"/>
			</g>
		</g>
		<g>
			<g>
				<path fill="#414042" d="M141.5,183h-130C5.159,183,0,177.841,0,171.5v-160C0,5.159,5.159,0,11.5,0h130
					c6.341,0,11.5,5.159,11.5,11.5v160C153,177.841,147.841,183,141.5,183z M11.5,3C6.813,3,3,6.813,3,11.5v160
					c0,4.687,3.813,8.5,8.5,8.5h130c4.687,0,8.5-3.813,8.5-8.5v-160c0-4.687-3.813-8.5-8.5-8.5H11.5z"/>
			</g>
			<g>
				<rect x="1.5" y="20" fill="#414042" width="150" height="3"/>
			</g>
			<g>
				<circle fill="#808285" cx="12" cy="11.5" r="2.5"/>
			</g>
			<g>
				<circle fill="#808285" cx="20" cy="11.5" r="2.5"/>
			</g>
			<g>
				<circle fill="#808285" cx="28" cy="11.5" r="2.5"/>
			</g>
		</g>
	</g>
</g>
</svg>
